<svg xmlns="http://www.w3.org/2000/svg" xmlns:xlink="http://www.w3.org/1999/xlink" width="1024" zoomAndPan="magnify" viewBox="0 0 768 767.999994" height="1024" preserveAspectRatio="xMidYMid meet" version="1.2"><defs><clipPath id="d2d458b129"><path d="M 69 81.199219 L 717 81.199219 L 717 677 L 69 677 Z M 69 81.199219 "/></clipPath><clipPath id="6350990664"><path d="M 69 394.773438 L 375.4375 394.773438 L 375.4375 677 L 69 677 Z M 69 394.773438 "/></clipPath><clipPath id="92e9198a7c"><path d="M 426.453125 404.835938 L 714 404.835938 L 714 677 L 426.453125 677 Z M 426.453125 404.835938 "/></clipPath></defs><g id="54e41e9716"><g clip-rule="nonzero" clip-path="url(#d2d458b129)"><path style=" stroke:none;fill-rule:evenodd;fill:#101010;fill-opacity:1;" d="M 313.460938 322.058594 C 311.597656 320.675781 309.769531 319.242188 307.976562 317.765625 C 306.1875 316.285156 304.433594 314.761719 302.722656 313.191406 C 301.011719 311.621094 299.34375 310.007812 297.714844 308.351562 C 296.089844 306.695312 294.503906 304.996094 292.964844 303.257812 C 291.425781 301.515625 289.933594 299.738281 288.488281 297.921875 C 287.042969 296.101562 285.644531 294.25 284.296875 292.359375 C 282.949219 290.46875 281.648438 288.542969 280.398438 286.585938 C 279.152344 284.628906 277.953125 282.636719 276.808594 280.617188 C 275.664062 278.597656 274.574219 276.546875 273.535156 274.46875 C 272.496094 272.394531 271.511719 270.289062 270.585938 268.160156 C 269.65625 266.03125 268.785156 263.878906 267.96875 261.707031 C 267.152344 259.53125 266.394531 257.335938 265.691406 255.125 C 264.988281 252.910156 264.347656 250.679688 263.761719 248.429688 C 263.175781 246.183594 262.648438 243.921875 262.183594 241.648438 C 261.714844 239.371094 261.308594 237.085938 260.960938 234.789062 C 260.613281 232.492188 260.324219 230.191406 260.09375 227.878906 C 259.867188 225.566406 259.699219 223.25 259.59375 220.933594 C 259.484375 218.613281 259.441406 216.289062 259.453125 213.96875 C 259.46875 211.644531 259.542969 209.324219 259.675781 207.007812 C 259.8125 204.6875 260.007812 202.375 260.265625 200.066406 C 260.519531 197.757812 260.835938 195.457031 261.210938 193.164062 C 261.585938 190.875 262.023438 188.59375 262.515625 186.324219 C 263.011719 184.054688 263.566406 181.800781 264.179688 179.558594 C 264.789062 177.320312 265.460938 175.097656 266.1875 172.890625 C 266.917969 170.6875 267.703125 168.5 268.546875 166.335938 C 269.386719 164.171875 270.285156 162.03125 271.238281 159.914062 C 272.195312 157.796875 273.203125 155.707031 274.265625 153.640625 C 275.328125 151.574219 276.445312 149.539062 277.613281 147.53125 C 278.785156 145.527344 280.003906 143.550781 281.277344 141.609375 C 282.550781 139.664062 283.871094 137.757812 285.242188 135.882812 C 286.617188 134.007812 288.035156 132.171875 289.503906 130.371094 C 290.972656 128.574219 292.484375 126.8125 294.042969 125.089844 C 295.605469 123.371094 297.207031 121.691406 298.855469 120.054688 C 300.5 118.417969 302.191406 116.824219 303.921875 115.273438 C 305.652344 113.726562 307.421875 112.222656 309.230469 110.765625 C 311.039062 109.308594 312.882812 107.898438 314.765625 106.539062 C 316.648438 105.179688 318.5625 103.867188 320.515625 102.605469 C 322.464844 101.347656 324.449219 100.136719 326.460938 98.980469 C 328.476562 97.824219 330.515625 96.71875 332.589844 95.667969 C 334.660156 94.617188 336.757812 93.621094 338.878906 92.679688 C 341.003906 91.738281 343.148438 90.855469 345.320312 90.023438 C 347.488281 89.195312 349.679688 88.425781 351.886719 87.707031 C 354.097656 86.992188 356.324219 86.335938 358.570312 85.738281 C 360.8125 85.140625 363.070312 84.597656 365.34375 84.117188 C 367.613281 83.636719 369.898438 83.214844 372.191406 82.855469 C 374.488281 82.492188 376.789062 82.191406 379.097656 81.949219 C 381.40625 81.707031 383.722656 81.523438 386.042969 81.402344 C 388.363281 81.28125 390.683594 81.222656 393.003906 81.222656 C 395.328125 81.222656 397.648438 81.28125 399.96875 81.402344 C 402.285156 81.523438 404.601562 81.707031 406.910156 81.949219 C 409.222656 82.191406 411.523438 82.492188 413.816406 82.855469 C 416.113281 83.214844 418.394531 83.636719 420.667969 84.117188 C 422.9375 84.597656 425.195312 85.140625 427.441406 85.738281 C 429.683594 86.335938 431.910156 86.992188 434.121094 87.707031 C 436.332031 88.425781 438.519531 89.195312 440.691406 90.023438 C 442.859375 90.855469 445.007812 91.738281 447.128906 92.679688 C 449.253906 93.621094 451.347656 94.617188 453.421875 95.667969 C 455.492188 96.71875 457.535156 97.824219 459.546875 98.980469 C 461.5625 100.136719 463.542969 101.347656 465.496094 102.605469 C 467.445312 103.867188 469.363281 105.179688 471.242188 106.539062 C 473.125 107.898438 474.972656 109.308594 476.78125 110.765625 C 478.589844 112.222656 480.359375 113.726562 482.089844 115.273438 C 483.820312 116.824219 485.507812 118.417969 487.15625 120.054688 C 488.800781 121.691406 490.40625 123.371094 491.964844 125.089844 C 493.523438 126.8125 495.039062 128.574219 496.507812 130.371094 C 497.976562 132.171875 499.394531 134.007812 500.765625 135.882812 C 502.136719 137.757812 503.460938 139.664062 504.734375 141.609375 C 506.003906 143.550781 507.226562 145.527344 508.394531 147.53125 C 509.566406 149.539062 510.679688 151.574219 511.746094 153.640625 C 512.808594 155.707031 513.816406 157.796875 514.769531 159.914062 C 515.722656 162.03125 516.621094 164.171875 517.464844 166.335938 C 518.308594 168.5 519.09375 170.6875 519.820312 172.890625 C 520.550781 175.097656 521.21875 177.320312 521.832031 179.558594 C 522.445312 181.800781 522.996094 184.054688 523.492188 186.324219 C 523.988281 188.59375 524.421875 190.875 524.796875 193.164062 C 525.175781 195.457031 525.488281 197.757812 525.746094 200.066406 C 526 202.375 526.195312 204.6875 526.332031 207.007812 C 526.46875 209.324219 526.542969 211.644531 526.554688 213.96875 C 526.570312 216.289062 526.523438 218.613281 526.417969 220.933594 C 526.308594 223.25 526.140625 225.566406 525.914062 227.878906 C 525.6875 230.191406 525.398438 232.492188 525.050781 234.789062 C 524.703125 237.085938 524.292969 239.371094 523.828125 241.648438 C 523.359375 243.921875 522.832031 246.183594 522.25 248.429688 C 521.664062 250.679688 521.019531 252.910156 520.316406 255.125 C 519.617188 257.335938 518.859375 259.53125 518.042969 261.707031 C 517.226562 263.878906 516.351562 266.03125 515.425781 268.160156 C 514.496094 270.289062 513.511719 272.394531 512.476562 274.46875 C 511.4375 276.546875 510.34375 278.597656 509.199219 280.617188 C 508.054688 282.636719 506.859375 284.628906 505.609375 286.585938 C 504.359375 288.542969 503.0625 290.46875 501.710938 292.359375 C 500.363281 294.25 498.964844 296.101562 497.519531 297.921875 C 496.074219 299.738281 494.582031 301.515625 493.042969 303.257812 C 491.503906 304.996094 489.921875 306.695312 488.292969 308.351562 C 486.667969 310.007812 484.996094 311.621094 483.285156 313.191406 C 481.574219 314.761719 479.824219 316.285156 478.03125 317.765625 C 476.242188 319.242188 474.414062 320.675781 472.546875 322.058594 L 426.242188 356.339844 C 425.023438 357.265625 423.851562 358.246094 422.722656 359.28125 C 421.59375 360.3125 420.511719 361.394531 419.480469 362.527344 C 418.445312 363.65625 417.46875 364.832031 416.542969 366.050781 C 415.617188 367.269531 414.746094 368.53125 413.933594 369.828125 C 413.125 371.125 412.371094 372.457031 411.679688 373.820312 C 410.988281 375.1875 410.359375 376.582031 409.792969 378.003906 C 409.226562 379.425781 408.726562 380.871094 408.289062 382.339844 C 407.855469 383.808594 407.488281 385.292969 407.183594 386.792969 C 406.882812 388.292969 406.648438 389.804688 406.484375 391.328125 C 406.320312 392.847656 406.222656 394.375 406.199219 395.90625 C 406.171875 397.4375 406.210938 398.964844 406.324219 400.492188 C 406.433594 402.019531 406.613281 403.539062 406.863281 405.046875 C 407.109375 406.558594 407.425781 408.054688 407.808594 409.539062 C 408.191406 411.019531 408.640625 412.480469 409.15625 413.921875 C 409.671875 415.363281 410.25 416.78125 410.894531 418.167969 C 411.539062 419.558594 412.242188 420.917969 413.007812 422.242188 C 413.773438 423.566406 414.597656 424.855469 415.480469 426.109375 C 416.363281 427.359375 417.296875 428.566406 418.289062 429.734375 C 419.28125 430.902344 420.324219 432.019531 421.414062 433.09375 C 422.507812 434.167969 423.644531 435.1875 424.832031 436.15625 C 426.015625 437.125 427.242188 438.042969 428.507812 438.898438 C 429.773438 439.757812 431.078125 440.558594 432.417969 441.300781 C 433.757812 442.042969 435.128906 442.722656 436.527344 443.339844 C 437.929688 443.957031 439.355469 444.511719 440.804688 445 C 442.257812 445.488281 443.726562 445.910156 445.214844 446.265625 C 446.703125 446.621094 448.207031 446.910156 449.722656 447.132812 C 451.234375 447.351562 452.757812 447.503906 454.285156 447.585938 C 455.816406 447.667969 457.34375 447.683594 458.875 447.628906 C 460.40625 447.574219 461.929688 447.449219 463.449219 447.257812 C 464.964844 447.0625 466.472656 446.804688 467.96875 446.472656 C 469.464844 446.144531 470.941406 445.75 472.398438 445.289062 C 473.859375 444.824219 475.296875 444.296875 476.707031 443.707031 L 529.492188 420.796875 C 531.625 419.871094 533.777344 419.003906 535.953125 418.191406 C 538.128906 417.378906 540.324219 416.625 542.539062 415.925781 C 544.757812 415.230469 546.988281 414.589844 549.238281 414.007812 C 551.488281 413.429688 553.75 412.90625 556.027344 412.445312 C 558.300781 411.980469 560.589844 411.578125 562.886719 411.234375 C 565.183594 410.890625 567.488281 410.605469 569.800781 410.382812 C 572.113281 410.160156 574.425781 409.996094 576.75 409.894531 C 579.070312 409.792969 581.390625 409.75 583.714844 409.769531 C 586.035156 409.789062 588.355469 409.867188 590.675781 410.007812 C 592.992188 410.148438 595.308594 410.347656 597.613281 410.609375 C 599.921875 410.867188 602.222656 411.1875 604.515625 411.570312 C 606.804688 411.949219 609.085938 412.390625 611.355469 412.890625 C 613.621094 413.390625 615.875 413.945312 618.117188 414.5625 C 620.355469 415.179688 622.578125 415.855469 624.78125 416.589844 C 626.984375 417.320312 629.167969 418.113281 631.332031 418.957031 C 633.492188 419.804688 635.632812 420.707031 637.75 421.667969 C 639.863281 422.625 641.953125 423.636719 644.015625 424.707031 C 646.082031 425.773438 648.113281 426.894531 650.117188 428.066406 C 652.121094 429.242188 654.09375 430.464844 656.035156 431.742188 C 657.976562 433.019531 659.882812 434.34375 661.753906 435.722656 C 663.625 437.097656 665.460938 438.519531 667.257812 439.992188 C 669.054688 441.464844 670.8125 442.980469 672.527344 444.546875 C 674.246094 446.109375 675.921875 447.714844 677.554688 449.367188 C 679.191406 451.015625 680.78125 452.710938 682.328125 454.445312 C 683.871094 456.175781 685.371094 457.949219 686.824219 459.761719 C 688.277344 461.574219 689.683594 463.421875 691.039062 465.308594 C 692.394531 467.195312 693.703125 469.113281 694.960938 471.066406 C 696.214844 473.019531 697.421875 475.003906 698.574219 477.019531 C 699.726562 479.039062 700.828125 481.082031 701.875 483.15625 C 702.917969 485.230469 703.910156 487.328125 704.847656 489.457031 C 705.785156 491.582031 706.664062 493.730469 707.492188 495.902344 C 708.316406 498.070312 709.082031 500.261719 709.792969 502.476562 C 710.503906 504.6875 711.15625 506.914062 711.75 509.160156 C 712.34375 511.40625 712.878906 513.664062 713.355469 515.9375 C 713.832031 518.210938 714.246094 520.496094 714.605469 522.792969 C 714.960938 525.085938 715.257812 527.390625 715.496094 529.699219 C 715.730469 532.011719 715.910156 534.328125 716.023438 536.648438 C 716.140625 538.964844 716.195312 541.289062 716.191406 543.609375 C 716.1875 545.933594 716.121094 548.253906 715.996094 550.574219 C 715.867188 552.894531 715.683594 555.207031 715.433594 557.515625 C 715.1875 559.828125 714.882812 562.128906 714.515625 564.421875 C 714.148438 566.714844 713.71875 568.996094 713.234375 571.269531 C 712.75 573.539062 712.203125 575.796875 711.597656 578.039062 C 710.996094 580.285156 710.332031 582.507812 709.613281 584.71875 C 708.894531 586.925781 708.117188 589.113281 707.28125 591.28125 C 706.449219 593.449219 705.558594 595.59375 704.613281 597.714844 C 703.664062 599.835938 702.664062 601.933594 701.609375 604 C 700.554688 606.070312 699.445312 608.109375 698.285156 610.121094 C 697.121094 612.132812 695.910156 614.113281 694.644531 616.0625 C 693.378906 618.007812 692.0625 619.921875 690.699219 621.800781 C 689.332031 623.679688 687.921875 625.523438 686.460938 627.328125 C 684.996094 629.136719 683.492188 630.902344 681.9375 632.628906 C 680.382812 634.355469 678.785156 636.039062 677.144531 637.683594 C 675.503906 639.328125 673.820312 640.929688 672.097656 642.484375 C 670.371094 644.039062 668.609375 645.550781 666.804688 647.011719 C 665 648.476562 663.160156 649.894531 661.285156 651.261719 C 659.40625 652.628906 657.496094 653.945312 655.546875 655.214844 C 653.601562 656.484375 651.625 657.699219 649.613281 658.863281 C 647.605469 660.027344 645.566406 661.140625 643.5 662.199219 C 641.429688 663.257812 639.335938 664.261719 637.21875 665.210938 C 635.097656 666.160156 632.953125 667.054688 630.789062 667.890625 C 628.621094 668.726562 626.433594 669.507812 624.226562 670.230469 C 622.019531 670.957031 619.796875 671.621094 617.554688 672.226562 C 615.3125 672.835938 613.054688 673.382812 610.785156 673.871094 C 608.515625 674.363281 606.230469 674.792969 603.9375 675.164062 C 601.644531 675.535156 599.34375 675.84375 597.035156 676.09375 C 594.726562 676.34375 592.414062 676.535156 590.09375 676.664062 C 587.773438 676.792969 585.453125 676.863281 583.128906 676.871094 C 580.808594 676.878906 578.484375 676.828125 576.167969 676.714844 C 573.847656 676.601562 571.53125 676.429688 569.21875 676.195312 C 566.910156 675.964844 564.605469 675.671875 562.308594 675.316406 C 560.015625 674.960938 557.730469 674.550781 555.453125 674.078125 C 553.179688 673.605469 550.921875 673.074219 548.675781 672.480469 C 546.425781 671.890625 544.199219 671.242188 541.984375 670.535156 C 539.773438 669.828125 537.582031 669.0625 535.40625 668.242188 C 533.234375 667.421875 531.085938 666.542969 528.957031 665.609375 C 526.832031 664.675781 524.730469 663.6875 522.65625 662.644531 C 520.578125 661.601562 518.53125 660.503906 516.515625 659.355469 C 514.496094 658.203125 512.511719 657.003906 510.554688 655.75 C 508.597656 654.496094 506.679688 653.191406 504.789062 651.835938 C 502.902344 650.484375 501.050781 649.082031 499.238281 647.632812 C 497.425781 646.179688 495.648438 644.683594 493.914062 643.140625 C 492.175781 641.597656 490.480469 640.011719 488.828125 638.378906 C 487.175781 636.746094 485.566406 635.074219 484 633.359375 C 482.433594 631.644531 480.914062 629.886719 479.4375 628.09375 C 477.964844 626.296875 476.539062 624.464844 475.160156 622.597656 C 473.78125 620.726562 472.453125 618.824219 471.171875 616.882812 C 469.894531 614.945312 468.664062 612.976562 467.488281 610.972656 C 466.3125 608.96875 465.1875 606.9375 464.117188 604.875 C 463.046875 602.816406 462.03125 600.726562 461.070312 598.613281 C 460.105469 596.5 459.199219 594.359375 458.351562 592.199219 C 457.5 590.039062 456.707031 587.855469 455.972656 585.652344 C 455.234375 583.449219 454.558594 581.230469 453.9375 578.988281 C 453.316406 576.75 452.753906 574.5 452.25 572.230469 C 451.75 569.964844 451.304688 567.683594 450.921875 565.394531 C 450.539062 563.101562 450.214844 560.804688 449.949219 558.496094 L 443.429688 501.34375 C 443.253906 499.808594 443.007812 498.289062 442.695312 496.78125 C 442.378906 495.269531 441.996094 493.777344 441.546875 492.304688 C 441.09375 490.828125 440.578125 489.378906 439.996094 487.949219 C 439.414062 486.523438 438.765625 485.125 438.054688 483.753906 C 437.347656 482.386719 436.574219 481.054688 435.742188 479.753906 C 434.914062 478.457031 434.023438 477.199219 433.078125 475.980469 C 432.132812 474.761719 431.132812 473.589844 430.078125 472.464844 C 429.027344 471.335938 427.921875 470.261719 426.773438 469.234375 C 425.621094 468.207031 424.425781 467.238281 423.1875 466.320312 C 421.949219 465.402344 420.667969 464.542969 419.351562 463.742188 C 418.035156 462.941406 416.683594 462.203125 415.296875 461.523438 C 413.910156 460.847656 412.5 460.234375 411.058594 459.683594 C 409.617188 459.132812 408.152344 458.652344 406.667969 458.234375 C 405.183594 457.820312 403.683594 457.472656 402.167969 457.195312 C 400.652344 456.914062 399.125 456.703125 397.589844 456.566406 C 396.054688 456.425781 394.515625 456.355469 392.972656 456.355469 C 391.429688 456.355469 389.890625 456.425781 388.355469 456.566406 C 386.820312 456.703125 385.292969 456.914062 383.777344 457.195312 C 382.261719 457.472656 380.761719 457.820312 379.277344 458.234375 C 377.789062 458.652344 376.328125 459.132812 374.886719 459.683594 C 373.445312 460.234375 372.03125 460.847656 370.648438 461.523438 C 369.261719 462.203125 367.910156 462.941406 366.59375 463.742188 C 365.277344 464.542969 363.996094 465.402344 362.757812 466.320312 C 361.519531 467.238281 360.324219 468.207031 359.171875 469.234375 C 358.019531 470.261719 356.917969 471.335938 355.867188 472.464844 C 354.8125 473.589844 353.8125 474.761719 352.867188 475.980469 C 351.921875 477.199219 351.03125 478.457031 350.199219 479.753906 C 349.371094 481.054688 348.597656 482.386719 347.886719 483.753906 C 347.179688 485.125 346.53125 486.523438 345.949219 487.949219 C 345.367188 489.378906 344.847656 490.828125 344.398438 492.304688 C 343.949219 493.777344 343.566406 495.269531 343.25 496.78125 C 342.9375 498.289062 342.691406 499.808594 342.515625 501.34375 L 335.996094 558.496094 C 335.730469 560.804688 335.40625 563.101562 335.023438 565.394531 C 334.640625 567.683594 334.195312 569.964844 333.691406 572.230469 C 333.191406 574.5 332.628906 576.75 332.007812 578.988281 C 331.386719 581.230469 330.710938 583.449219 329.972656 585.652344 C 329.238281 587.855469 328.445312 590.039062 327.59375 592.199219 C 326.742188 594.359375 325.835938 596.5 324.875 598.613281 C 323.914062 600.726562 322.898438 602.816406 321.828125 604.875 C 320.757812 606.9375 319.632812 608.96875 318.457031 610.972656 C 317.28125 612.976562 316.050781 614.945312 314.773438 616.882812 C 313.492188 618.824219 312.164062 620.726562 310.785156 622.597656 C 309.40625 624.464844 307.980469 626.296875 306.503906 628.09375 C 305.03125 629.886719 303.511719 631.644531 301.945312 633.359375 C 300.378906 635.074219 298.769531 636.746094 297.117188 638.378906 C 295.460938 640.011719 293.769531 641.597656 292.03125 643.140625 C 290.296875 644.683594 288.519531 646.179688 286.707031 647.632812 C 284.890625 649.082031 283.042969 650.484375 281.152344 651.835938 C 279.265625 653.191406 277.34375 654.496094 275.390625 655.75 C 273.433594 657.003906 271.449219 658.203125 269.429688 659.355469 C 267.410156 660.503906 265.363281 661.601562 263.289062 662.644531 C 261.214844 663.6875 259.113281 664.675781 256.984375 665.609375 C 254.859375 666.542969 252.710938 667.421875 250.535156 668.242188 C 248.363281 669.0625 246.171875 669.828125 243.960938 670.535156 C 241.746094 671.242188 239.515625 671.890625 237.269531 672.480469 C 235.023438 673.074219 232.765625 673.605469 230.488281 674.078125 C 228.214844 674.550781 225.929688 674.960938 223.636719 675.316406 C 221.339844 675.671875 219.035156 675.964844 216.726562 676.195312 C 214.414062 676.429688 212.097656 676.601562 209.777344 676.714844 C 207.457031 676.828125 205.136719 676.878906 202.8125 676.871094 C 200.492188 676.863281 198.171875 676.792969 195.851562 676.664062 C 193.53125 676.535156 191.21875 676.34375 188.910156 676.09375 C 186.597656 675.84375 184.296875 675.535156 182.003906 675.164062 C 179.710938 674.792969 177.429688 674.363281 175.160156 673.871094 C 172.890625 673.382812 170.632812 672.835938 168.390625 672.226562 C 166.148438 671.621094 163.925781 670.957031 161.71875 670.230469 C 159.511719 669.507812 157.324219 668.726562 155.15625 667.890625 C 152.988281 667.054688 150.847656 666.160156 148.726562 665.210938 C 146.605469 664.261719 144.511719 663.257812 142.445312 662.199219 C 140.378906 661.140625 138.339844 660.027344 136.328125 658.863281 C 134.320312 657.699219 132.34375 656.484375 130.394531 655.214844 C 128.449219 653.945312 126.539062 652.628906 124.660156 651.261719 C 122.785156 649.894531 120.945312 648.476562 119.140625 647.011719 C 117.335938 645.550781 115.574219 644.039062 113.847656 642.484375 C 112.121094 640.929688 110.441406 639.328125 108.800781 637.683594 C 107.15625 636.039062 105.558594 634.355469 104.007812 632.628906 C 102.453125 630.902344 100.945312 629.136719 99.484375 627.328125 C 98.023438 625.523438 96.613281 623.679688 95.246094 621.800781 C 93.882812 619.921875 92.566406 618.007812 91.300781 616.0625 C 90.035156 614.113281 88.824219 612.132812 87.660156 610.121094 C 86.5 608.109375 85.390625 606.070312 84.335938 604 C 83.28125 601.933594 82.277344 599.835938 81.332031 597.714844 C 80.386719 595.59375 79.496094 593.449219 78.664062 591.28125 C 77.828125 589.113281 77.050781 586.925781 76.332031 584.71875 C 75.609375 582.507812 74.949219 580.285156 74.34375 578.039062 C 73.742188 575.796875 73.195312 573.539062 72.710938 571.269531 C 72.222656 568.996094 71.796875 566.714844 71.429688 564.421875 C 71.0625 562.128906 70.757812 559.828125 70.511719 557.515625 C 70.261719 555.207031 70.078125 552.894531 69.949219 550.574219 C 69.824219 548.253906 69.757812 545.933594 69.753906 543.609375 C 69.75 541.289062 69.804688 538.964844 69.917969 536.648438 C 70.035156 534.328125 70.210938 532.011719 70.449219 529.699219 C 70.6875 527.390625 70.984375 525.085938 71.339844 522.792969 C 71.695312 520.496094 72.113281 518.210938 72.589844 515.9375 C 73.066406 513.664062 73.601562 511.40625 74.195312 509.160156 C 74.789062 506.914062 75.441406 504.6875 76.152344 502.476562 C 76.863281 500.265625 77.628906 498.070312 78.453125 495.902344 C 79.277344 493.730469 80.160156 491.582031 81.097656 489.457031 C 82.035156 487.328125 83.023438 485.230469 84.070312 483.15625 C 85.117188 481.082031 86.21875 479.039062 87.371094 477.019531 C 88.523438 475.003906 89.726562 473.019531 90.984375 471.066406 C 92.242188 469.113281 93.546875 467.195312 94.90625 465.308594 C 96.261719 463.421875 97.667969 461.574219 99.121094 459.761719 C 100.574219 457.949219 102.074219 456.175781 103.617188 454.445312 C 105.164062 452.710938 106.753906 451.019531 108.386719 449.367188 C 110.023438 447.714844 111.699219 446.109375 113.414062 444.546875 C 115.132812 442.980469 116.890625 441.464844 118.6875 439.992188 C 120.484375 438.519531 122.320312 437.097656 124.191406 435.722656 C 126.0625 434.34375 127.96875 433.019531 129.910156 431.742188 C 131.847656 430.464844 133.820312 429.242188 135.828125 428.066406 C 137.832031 426.894531 139.863281 425.773438 141.925781 424.707031 C 143.992188 423.636719 146.078125 422.625 148.195312 421.667969 C 150.3125 420.707031 152.449219 419.804688 154.613281 418.957031 C 156.777344 418.113281 158.960938 417.320312 161.164062 416.589844 C 163.367188 415.855469 165.589844 415.179688 167.828125 414.5625 C 170.066406 413.945312 172.320312 413.390625 174.589844 412.890625 C 176.859375 412.390625 179.140625 411.949219 181.429688 411.570312 C 183.722656 411.1875 186.023438 410.867188 188.328125 410.609375 C 190.636719 410.347656 192.949219 410.148438 195.269531 410.007812 C 197.589844 409.867188 199.910156 409.789062 202.230469 409.769531 C 204.554688 409.75 206.875 409.792969 209.195312 409.894531 C 211.515625 409.996094 213.832031 410.160156 216.144531 410.382812 C 218.457031 410.609375 220.761719 410.890625 223.058594 411.234375 C 225.355469 411.578125 227.644531 411.980469 229.917969 412.445312 C 232.195312 412.90625 234.457031 413.429688 236.707031 414.007812 C 238.957031 414.589844 241.1875 415.230469 243.402344 415.925781 C 245.621094 416.625 247.816406 417.378906 249.992188 418.191406 C 252.167969 419.003906 254.320312 419.871094 256.453125 420.796875 L 309.238281 443.707031 C 310.648438 444.296875 312.085938 444.824219 313.542969 445.289062 C 315.003906 445.75 316.480469 446.144531 317.976562 446.472656 C 319.472656 446.804688 320.976562 447.0625 322.496094 447.257812 C 324.015625 447.449219 325.539062 447.574219 327.070312 447.628906 C 328.601562 447.683594 330.128906 447.667969 331.65625 447.585938 C 333.1875 447.503906 334.707031 447.351562 336.222656 447.132812 C 337.738281 446.910156 339.242188 446.621094 340.730469 446.265625 C 342.21875 445.910156 343.6875 445.488281 345.140625 445 C 346.589844 444.511719 348.015625 443.957031 349.417969 443.339844 C 350.816406 442.722656 352.1875 442.042969 353.527344 441.300781 C 354.867188 440.558594 356.167969 439.757812 357.4375 438.898438 C 358.703125 438.042969 359.929688 437.125 361.113281 436.15625 C 362.296875 435.1875 363.4375 434.164062 364.53125 433.09375 C 365.621094 432.019531 366.664062 430.902344 367.65625 429.734375 C 368.644531 428.566406 369.582031 427.359375 370.464844 426.109375 C 371.347656 424.855469 372.171875 423.566406 372.9375 422.242188 C 373.703125 420.917969 374.40625 419.558594 375.050781 418.167969 C 375.691406 416.78125 376.273438 415.363281 376.789062 413.921875 C 377.304688 412.480469 377.753906 411.019531 378.136719 409.539062 C 378.519531 408.054688 378.835938 406.558594 379.082031 405.046875 C 379.332031 403.539062 379.511719 402.019531 379.621094 400.492188 C 379.730469 398.964844 379.773438 397.4375 379.746094 395.90625 C 379.71875 394.375 379.625 392.847656 379.460938 391.328125 C 379.292969 389.804688 379.0625 388.292969 378.757812 386.792969 C 378.457031 385.292969 378.089844 383.808594 377.652344 382.339844 C 377.21875 380.871094 376.71875 379.425781 376.152344 378.003906 C 375.585938 376.582031 374.957031 375.1875 374.265625 373.820312 C 373.574219 372.457031 372.820312 371.125 372.007812 369.828125 C 371.195312 368.53125 370.328125 367.269531 369.402344 366.050781 C 368.476562 364.832031 367.496094 363.65625 366.464844 362.527344 C 365.433594 361.394531 364.351562 360.3125 363.222656 359.28125 C 362.09375 358.246094 360.917969 357.265625 359.703125 356.339844 Z M 313.460938 322.058594 "/></g><g clip-rule="nonzero" clip-path="url(#6350990664)"><path style=" stroke:none;fill-rule:evenodd;fill:#ff3131;fill-opacity:1;" d="M 313.460938 322.058594 C 311.597656 320.675781 309.769531 319.242188 307.976562 317.765625 C 306.1875 316.285156 304.433594 314.761719 302.722656 313.191406 C 301.011719 311.621094 299.34375 310.007812 297.714844 308.351562 C 296.089844 306.695312 294.503906 304.996094 292.964844 303.257812 C 291.425781 301.515625 289.933594 299.738281 288.488281 297.921875 C 287.042969 296.101562 285.644531 294.25 284.296875 292.359375 C 282.949219 290.46875 281.648438 288.542969 280.398438 286.585938 C 279.152344 284.628906 277.953125 282.636719 276.808594 280.617188 C 275.664062 278.597656 274.574219 276.546875 273.535156 274.46875 C 272.496094 272.394531 271.511719 270.289062 270.585938 268.160156 C 269.65625 266.03125 268.785156 263.878906 267.96875 261.707031 C 267.152344 259.53125 266.394531 257.335938 265.691406 255.125 C 264.988281 252.910156 264.347656 250.679688 263.761719 248.429688 C 263.175781 246.183594 262.648438 243.921875 262.183594 241.648438 C 261.714844 239.371094 261.308594 237.085938 260.960938 234.789062 C 260.613281 232.492188 260.324219 230.191406 260.09375 227.878906 C 259.867188 225.566406 259.699219 223.25 259.59375 220.933594 C 259.484375 218.613281 259.441406 216.289062 259.453125 213.96875 C 259.46875 211.644531 259.542969 209.324219 259.675781 207.007812 C 259.8125 204.6875 260.007812 202.375 260.265625 200.066406 C 260.519531 197.757812 260.835938 195.457031 261.210938 193.164062 C 261.585938 190.875 262.023438 188.59375 262.515625 186.324219 C 263.011719 184.054688 263.566406 181.800781 264.179688 179.558594 C 264.789062 177.320312 265.460938 175.097656 266.1875 172.890625 C 266.917969 170.6875 267.703125 168.5 268.546875 166.335938 C 269.386719 164.171875 270.285156 162.03125 271.238281 159.914062 C 272.195312 157.796875 273.203125 155.707031 274.265625 153.640625 C 275.328125 151.574219 276.445312 149.539062 277.613281 147.53125 C 278.785156 145.527344 280.003906 143.550781 281.277344 141.609375 C 282.550781 139.664062 283.871094 137.757812 285.242188 135.882812 C 286.617188 134.007812 288.035156 132.171875 289.503906 130.371094 C 290.972656 128.574219 292.484375 126.8125 294.042969 125.089844 C 295.605469 123.371094 297.207031 121.691406 298.855469 120.054688 C 300.5 118.417969 302.191406 116.824219 303.921875 115.273438 C 305.652344 113.726562 307.421875 112.222656 309.230469 110.765625 C 311.039062 109.308594 312.882812 107.898438 314.765625 106.539062 C 316.648438 105.179688 318.5625 103.867188 320.515625 102.605469 C 322.464844 101.347656 324.449219 100.136719 326.460938 98.980469 C 328.476562 97.824219 330.515625 96.71875 332.589844 95.667969 C 334.660156 94.617188 336.757812 93.621094 338.878906 92.679688 C 341.003906 91.738281 343.148438 90.855469 345.320312 90.023438 C 347.488281 89.195312 349.679688 88.425781 351.886719 87.707031 C 354.097656 86.992188 356.324219 86.335938 358.570312 85.738281 C 360.8125 85.140625 363.070312 84.597656 365.34375 84.117188 C 367.613281 83.636719 369.898438 83.214844 372.191406 82.855469 C 374.488281 82.492188 376.789062 82.191406 379.097656 81.949219 C 381.40625 81.707031 383.722656 81.523438 386.042969 81.402344 C 388.363281 81.28125 390.683594 81.222656 393.003906 81.222656 C 395.328125 81.222656 397.648438 81.28125 399.96875 81.402344 C 402.285156 81.523438 404.601562 81.707031 406.910156 81.949219 C 409.222656 82.191406 411.523438 82.492188 413.816406 82.855469 C 416.113281 83.214844 418.394531 83.636719 420.667969 84.117188 C 422.9375 84.597656 425.195312 85.140625 427.441406 85.738281 C 429.683594 86.335938 431.910156 86.992188 434.121094 87.707031 C 436.332031 88.425781 438.519531 89.195312 440.691406 90.023438 C 442.859375 90.855469 445.007812 91.738281 447.128906 92.679688 C 449.253906 93.621094 451.347656 94.617188 453.421875 95.667969 C 455.492188 96.71875 457.535156 97.824219 459.546875 98.980469 C 461.5625 100.136719 463.542969 101.347656 465.496094 102.605469 C 467.445312 103.867188 469.363281 105.179688 471.242188 106.539062 C 473.125 107.898438 474.972656 109.308594 476.78125 110.765625 C 478.589844 112.222656 480.359375 113.726562 482.089844 115.273438 C 483.820312 116.824219 485.507812 118.417969 487.15625 120.054688 C 488.800781 121.691406 490.40625 123.371094 491.964844 125.089844 C 493.523438 126.8125 495.039062 128.574219 496.507812 130.371094 C 497.976562 132.171875 499.394531 134.007812 500.765625 135.882812 C 502.136719 137.757812 503.460938 139.664062 504.734375 141.609375 C 506.003906 143.550781 507.226562 145.527344 508.394531 147.53125 C 509.566406 149.539062 510.679688 151.574219 511.746094 153.640625 C 512.808594 155.707031 513.816406 157.796875 514.769531 159.914062 C 515.722656 162.03125 516.621094 164.171875 517.464844 166.335938 C 518.308594 168.5 519.09375 170.6875 519.820312 172.890625 C 520.550781 175.097656 521.21875 177.320312 521.832031 179.558594 C 522.445312 181.800781 522.996094 184.054688 523.492188 186.324219 C 523.988281 188.59375 524.421875 190.875 524.796875 193.164062 C 525.175781 195.457031 525.488281 197.757812 525.746094 200.066406 C 526 202.375 526.195312 204.6875 526.332031 207.007812 C 526.46875 209.324219 526.542969 211.644531 526.554688 213.96875 C 526.570312 216.289062 526.523438 218.613281 526.417969 220.933594 C 526.308594 223.25 526.140625 225.566406 525.914062 227.878906 C 525.6875 230.191406 525.398438 232.492188 525.050781 234.789062 C 524.703125 237.085938 524.292969 239.371094 523.828125 241.648438 C 523.359375 243.921875 522.832031 246.183594 522.25 248.429688 C 521.664062 250.679688 521.019531 252.910156 520.316406 255.125 C 519.617188 257.335938 518.859375 259.53125 518.042969 261.707031 C 517.226562 263.878906 516.351562 266.03125 515.425781 268.160156 C 514.496094 270.289062 513.511719 272.394531 512.476562 274.46875 C 511.4375 276.546875 510.34375 278.597656 509.199219 280.617188 C 508.054688 282.636719 506.859375 284.628906 505.609375 286.585938 C 504.359375 288.542969 503.0625 290.46875 501.710938 292.359375 C 500.363281 294.25 498.964844 296.101562 497.519531 297.921875 C 496.074219 299.738281 494.582031 301.515625 493.042969 303.257812 C 491.503906 304.996094 489.921875 306.695312 488.292969 308.351562 C 486.667969 310.007812 484.996094 311.621094 483.285156 313.191406 C 481.574219 314.761719 479.824219 316.285156 478.03125 317.765625 C 476.242188 319.242188 474.414062 320.675781 472.546875 322.058594 L 426.242188 356.339844 C 425.023438 357.265625 423.851562 358.246094 422.722656 359.28125 C 421.59375 360.3125 420.511719 361.394531 419.480469 362.527344 C 418.445312 363.65625 417.46875 364.832031 416.542969 366.050781 C 415.617188 367.269531 414.746094 368.53125 413.933594 369.828125 C 413.125 371.125 412.371094 372.457031 411.679688 373.820312 C 410.988281 375.1875 410.359375 376.582031 409.792969 378.003906 C 409.226562 379.425781 408.726562 380.871094 408.289062 382.339844 C 407.855469 383.808594 407.488281 385.292969 407.183594 386.792969 C 406.882812 388.292969 406.648438 389.804688 406.484375 391.328125 C 406.320312 392.847656 406.222656 394.375 406.199219 395.90625 C 406.171875 397.4375 406.210938 398.964844 406.324219 400.492188 C 406.433594 402.019531 406.613281 403.539062 406.863281 405.046875 C 407.109375 406.558594 407.425781 408.054688 407.808594 409.539062 C 408.191406 411.019531 408.640625 412.480469 409.15625 413.921875 C 409.671875 415.363281 410.25 416.78125 410.894531 418.167969 C 411.539062 419.558594 412.242188 420.917969 413.007812 422.242188 C 413.773438 423.566406 414.597656 424.855469 415.480469 426.109375 C 416.363281 427.359375 417.296875 428.566406 418.289062 429.734375 C 419.28125 430.902344 420.324219 432.019531 421.414062 433.09375 C 422.507812 434.167969 423.644531 435.1875 424.832031 436.15625 C 426.015625 437.125 427.242188 438.042969 428.507812 438.898438 C 429.773438 439.757812 431.078125 440.558594 432.417969 441.300781 C 433.757812 442.042969 435.128906 442.722656 436.527344 443.339844 C 437.929688 443.957031 439.355469 444.511719 440.804688 445 C 442.257812 445.488281 443.726562 445.910156 445.214844 446.265625 C 446.703125 446.621094 448.207031 446.910156 449.722656 447.132812 C 451.234375 447.351562 452.757812 447.503906 454.285156 447.585938 C 455.816406 447.667969 457.34375 447.683594 458.875 447.628906 C 460.40625 447.574219 461.929688 447.449219 463.449219 447.257812 C 464.964844 447.0625 466.472656 446.804688 467.96875 446.472656 C 469.464844 446.144531 470.941406 445.75 472.398438 445.289062 C 473.859375 444.824219 475.296875 444.296875 476.707031 443.707031 L 529.492188 420.796875 C 531.625 419.871094 533.777344 419.003906 535.953125 418.191406 C 538.128906 417.378906 540.324219 416.625 542.539062 415.925781 C 544.757812 415.230469 546.988281 414.589844 549.238281 414.007812 C 551.488281 413.429688 553.75 412.90625 556.027344 412.445312 C 558.300781 411.980469 560.589844 411.578125 562.886719 411.234375 C 565.183594 410.890625 567.488281 410.605469 569.800781 410.382812 C 572.113281 410.160156 574.425781 409.996094 576.75 409.894531 C 579.070312 409.792969 581.390625 409.75 583.714844 409.769531 C 586.035156 409.789062 588.355469 409.867188 590.675781 410.007812 C 592.992188 410.148438 595.308594 410.347656 597.613281 410.609375 C 599.921875 410.867188 602.222656 411.1875 604.515625 411.570312 C 606.804688 411.949219 609.085938 412.390625 611.355469 412.890625 C 613.621094 413.390625 615.875 413.945312 618.117188 414.5625 C 620.355469 415.179688 622.578125 415.855469 624.78125 416.589844 C 626.984375 417.320312 629.167969 418.113281 631.332031 418.957031 C 633.492188 419.804688 635.632812 420.707031 637.75 421.667969 C 639.863281 422.625 641.953125 423.636719 644.015625 424.707031 C 646.082031 425.773438 648.113281 426.894531 650.117188 428.066406 C 652.121094 429.242188 654.09375 430.464844 656.035156 431.742188 C 657.976562 433.019531 659.882812 434.34375 661.753906 435.722656 C 663.625 437.097656 665.460938 438.519531 667.257812 439.992188 C 669.054688 441.464844 670.8125 442.980469 672.527344 444.546875 C 674.246094 446.109375 675.921875 447.714844 677.554688 449.367188 C 679.191406 451.019531 680.78125 452.710938 682.328125 454.445312 C 683.871094 456.175781 685.371094 457.949219 686.824219 459.761719 C 688.277344 461.574219 689.683594 463.421875 691.039062 465.308594 C 692.394531 467.195312 693.703125 469.113281 694.960938 471.066406 C 696.214844 473.019531 697.421875 475.003906 698.574219 477.019531 C 699.726562 479.039062 700.828125 481.082031 701.875 483.15625 C 702.917969 485.230469 703.910156 487.328125 704.847656 489.457031 C 705.785156 491.582031 706.664062 493.730469 707.492188 495.902344 C 708.316406 498.070312 709.082031 500.265625 709.792969 502.476562 C 710.503906 504.6875 711.15625 506.914062 711.75 509.160156 C 712.34375 511.40625 712.878906 513.664062 713.355469 515.9375 C 713.832031 518.210938 714.246094 520.496094 714.605469 522.792969 C 714.960938 525.085938 715.257812 527.390625 715.496094 529.699219 C 715.730469 532.011719 715.910156 534.328125 716.023438 536.648438 C 716.140625 538.964844 716.195312 541.289062 716.191406 543.609375 C 716.1875 545.933594 716.121094 548.253906 715.996094 550.574219 C 715.867188 552.894531 715.683594 555.207031 715.433594 557.515625 C 715.1875 559.828125 714.882812 562.128906 714.515625 564.421875 C 714.148438 566.714844 713.71875 568.996094 713.234375 571.269531 C 712.75 573.539062 712.203125 575.796875 711.597656 578.039062 C 710.996094 580.285156 710.332031 582.507812 709.613281 584.71875 C 708.894531 586.925781 708.117188 589.113281 707.28125 591.28125 C 706.449219 593.449219 705.558594 595.59375 704.613281 597.714844 C 703.664062 599.835938 702.664062 601.933594 701.609375 604 C 700.554688 606.070312 699.445312 608.109375 698.285156 610.121094 C 697.121094 612.132812 695.910156 614.113281 694.644531 616.0625 C 693.378906 618.007812 692.0625 619.921875 690.699219 621.800781 C 689.332031 623.679688 687.921875 625.523438 686.460938 627.328125 C 684.996094 629.136719 683.492188 630.902344 681.9375 632.628906 C 680.382812 634.355469 678.785156 636.039062 677.144531 637.683594 C 675.503906 639.328125 673.820312 640.929688 672.097656 642.484375 C 670.371094 644.039062 668.609375 645.550781 666.804688 647.011719 C 665 648.476562 663.160156 649.894531 661.285156 651.261719 C 659.40625 652.628906 657.496094 653.945312 655.546875 655.214844 C 653.601562 656.484375 651.625 657.699219 649.613281 658.863281 C 647.605469 660.027344 645.566406 661.140625 643.5 662.199219 C 641.429688 663.257812 639.335938 664.261719 637.21875 665.210938 C 635.097656 666.160156 632.953125 667.054688 630.789062 667.890625 C 628.621094 668.726562 626.433594 669.507812 624.226562 670.230469 C 622.019531 670.957031 619.796875 671.621094 617.554688 672.226562 C 615.3125 672.835938 613.054688 673.382812 610.785156 673.875 C 608.515625 674.363281 606.230469 674.792969 603.9375 675.164062 C 601.644531 675.535156 599.34375 675.84375 597.035156 676.09375 C 594.726562 676.34375 592.414062 676.535156 590.09375 676.664062 C 587.773438 676.792969 585.453125 676.863281 583.128906 676.871094 C 580.808594 676.878906 578.484375 676.828125 576.167969 676.714844 C 573.847656 676.601562 571.53125 676.429688 569.21875 676.195312 C 566.910156 675.964844 564.605469 675.671875 562.308594 675.316406 C 560.015625 674.960938 557.730469 674.550781 555.453125 674.078125 C 553.179688 673.605469 550.921875 673.074219 548.675781 672.480469 C 546.425781 671.890625 544.199219 671.242188 541.984375 670.535156 C 539.773438 669.828125 537.582031 669.0625 535.40625 668.242188 C 533.234375 667.421875 531.085938 666.542969 528.957031 665.609375 C 526.832031 664.675781 524.730469 663.6875 522.65625 662.644531 C 520.578125 661.601562 518.53125 660.503906 516.515625 659.355469 C 514.496094 658.203125 512.511719 657.003906 510.554688 655.75 C 508.597656 654.496094 506.679688 653.191406 504.789062 651.835938 C 502.902344 650.484375 501.050781 649.082031 499.238281 647.632812 C 497.425781 646.179688 495.648438 644.683594 493.914062 643.140625 C 492.175781 641.597656 490.480469 640.011719 488.828125 638.378906 C 487.175781 636.746094 485.566406 635.074219 484 633.359375 C 482.433594 631.644531 480.914062 629.886719 479.4375 628.09375 C 477.964844 626.296875 476.539062 624.464844 475.160156 622.597656 C 473.78125 620.726562 472.453125 618.824219 471.171875 616.882812 C 469.894531 614.945312 468.664062 612.976562 467.488281 610.972656 C 466.3125 608.96875 465.1875 606.9375 464.117188 604.875 C 463.046875 602.816406 462.03125 600.726562 461.070312 598.613281 C 460.105469 596.5 459.199219 594.359375 458.351562 592.199219 C 457.5 590.039062 456.707031 587.855469 455.972656 585.652344 C 455.234375 583.449219 454.558594 581.230469 453.9375 578.988281 C 453.316406 576.75 452.753906 574.5 452.25 572.230469 C 451.75 569.964844 451.304688 567.683594 450.921875 565.394531 C 450.539062 563.101562 450.214844 560.804688 449.949219 558.496094 L 443.429688 501.34375 C 443.253906 499.808594 443.007812 498.289062 442.695312 496.78125 C 442.378906 495.269531 441.996094 493.777344 441.546875 492.304688 C 441.09375 490.828125 440.578125 489.378906 439.996094 487.949219 C 439.414062 486.523438 438.765625 485.125 438.054688 483.753906 C 437.347656 482.386719 436.574219 481.054688 435.742188 479.753906 C 434.914062 478.457031 434.023438 477.199219 433.078125 475.980469 C 432.132812 474.761719 431.132812 473.589844 430.078125 472.464844 C 429.027344 471.335938 427.921875 470.261719 426.773438 469.234375 C 425.621094 468.207031 424.425781 467.238281 423.1875 466.320312 C 421.949219 465.402344 420.667969 464.542969 419.351562 463.742188 C 418.035156 462.941406 416.683594 462.203125 415.296875 461.523438 C 413.910156 460.847656 412.5 460.234375 411.058594 459.683594 C 409.617188 459.132812 408.152344 458.652344 406.667969 458.234375 C 405.183594 457.820312 403.683594 457.472656 402.167969 457.195312 C 400.652344 456.914062 399.125 456.703125 397.589844 456.566406 C 396.054688 456.425781 394.515625 456.355469 392.972656 456.355469 C 391.429688 456.355469 389.890625 456.425781 388.355469 456.566406 C 386.820312 456.703125 385.292969 456.914062 383.777344 457.195312 C 382.261719 457.472656 380.761719 457.820312 379.277344 458.234375 C 377.789062 458.652344 376.328125 459.132812 374.886719 459.683594 C 373.445312 460.234375 372.03125 460.847656 370.648438 461.523438 C 369.261719 462.203125 367.910156 462.941406 366.59375 463.742188 C 365.277344 464.542969 363.996094 465.402344 362.757812 466.320312 C 361.519531 467.238281 360.324219 468.207031 359.171875 469.234375 C 358.019531 470.261719 356.917969 471.335938 355.867188 472.464844 C 354.8125 473.589844 353.8125 474.761719 352.867188 475.980469 C 351.921875 477.199219 351.03125 478.457031 350.199219 479.753906 C 349.371094 481.054688 348.597656 482.386719 347.886719 483.753906 C 347.179688 485.125 346.53125 486.523438 345.949219 487.949219 C 345.367188 489.378906 344.847656 490.828125 344.398438 492.304688 C 343.949219 493.777344 343.566406 495.269531 343.25 496.78125 C 342.9375 498.289062 342.691406 499.808594 342.515625 501.34375 L 335.996094 558.496094 C 335.730469 560.804688 335.40625 563.101562 335.023438 565.394531 C 334.640625 567.683594 334.195312 569.964844 333.691406 572.230469 C 333.191406 574.5 332.628906 576.75 332.007812 578.988281 C 331.386719 581.230469 330.710938 583.449219 329.972656 585.652344 C 329.238281 587.855469 328.445312 590.039062 327.59375 592.199219 C 326.742188 594.359375 325.835938 596.5 324.875 598.613281 C 323.914062 600.726562 322.898438 602.816406 321.828125 604.875 C 320.757812 606.9375 319.632812 608.96875 318.457031 610.972656 C 317.28125 612.976562 316.050781 614.945312 314.773438 616.882812 C 313.492188 618.824219 312.164062 620.726562 310.785156 622.597656 C 309.40625 624.464844 307.980469 626.296875 306.503906 628.09375 C 305.03125 629.886719 303.511719 631.644531 301.945312 633.359375 C 300.378906 635.074219 298.769531 636.746094 297.117188 638.378906 C 295.460938 640.011719 293.769531 641.597656 292.03125 643.140625 C 290.296875 644.683594 288.519531 646.179688 286.707031 647.632812 C 284.890625 649.082031 283.042969 650.484375 281.152344 651.835938 C 279.265625 653.191406 277.34375 654.496094 275.390625 655.75 C 273.433594 657.003906 271.449219 658.203125 269.429688 659.355469 C 267.410156 660.503906 265.363281 661.601562 263.289062 662.644531 C 261.214844 663.6875 259.113281 664.675781 256.984375 665.609375 C 254.859375 666.542969 252.710938 667.421875 250.535156 668.242188 C 248.363281 669.0625 246.171875 669.828125 243.960938 670.535156 C 241.746094 671.242188 239.515625 671.890625 237.269531 672.480469 C 235.023438 673.074219 232.765625 673.605469 230.488281 674.078125 C 228.214844 674.550781 225.929688 674.964844 223.636719 675.316406 C 221.339844 675.671875 219.035156 675.964844 216.726562 676.195312 C 214.414062 676.429688 212.097656 676.601562 209.777344 676.714844 C 207.457031 676.828125 205.136719 676.878906 202.8125 676.871094 C 200.492188 676.863281 198.171875 676.792969 195.851562 676.664062 C 193.53125 676.535156 191.21875 676.34375 188.910156 676.09375 C 186.597656 675.84375 184.296875 675.535156 182.003906 675.164062 C 179.710938 674.792969 177.429688 674.363281 175.160156 673.875 C 172.890625 673.382812 170.632812 672.835938 168.390625 672.226562 C 166.148438 671.621094 163.925781 670.957031 161.71875 670.230469 C 159.511719 669.507812 157.324219 668.726562 155.15625 667.890625 C 152.988281 667.054688 150.847656 666.160156 148.726562 665.210938 C 146.605469 664.261719 144.511719 663.257812 142.445312 662.199219 C 140.378906 661.140625 138.339844 660.027344 136.328125 658.863281 C 134.320312 657.699219 132.34375 656.484375 130.394531 655.214844 C 128.449219 653.945312 126.539062 652.628906 124.660156 651.261719 C 122.785156 649.894531 120.945312 648.476562 119.140625 647.011719 C 117.335938 645.550781 115.574219 644.039062 113.847656 642.484375 C 112.121094 640.929688 110.441406 639.328125 108.800781 637.683594 C 107.15625 636.039062 105.558594 634.355469 104.007812 632.628906 C 102.453125 630.902344 100.945312 629.136719 99.484375 627.328125 C 98.023438 625.523438 96.613281 623.679688 95.246094 621.800781 C 93.882812 619.921875 92.566406 618.007812 91.300781 616.0625 C 90.035156 614.113281 88.824219 612.132812 87.660156 610.121094 C 86.5 608.109375 85.390625 606.070312 84.335938 604 C 83.28125 601.933594 82.277344 599.835938 81.332031 597.714844 C 80.386719 595.59375 79.496094 593.449219 78.664062 591.28125 C 77.828125 589.113281 77.050781 586.925781 76.332031 584.71875 C 75.609375 582.507812 74.949219 580.285156 74.34375 578.039062 C 73.742188 575.796875 73.195312 573.539062 72.710938 571.269531 C 72.222656 568.996094 71.796875 566.714844 71.429688 564.421875 C 71.0625 562.128906 70.757812 559.828125 70.511719 557.515625 C 70.261719 555.207031 70.078125 552.894531 69.949219 550.574219 C 69.824219 548.253906 69.757812 545.933594 69.753906 543.609375 C 69.75 541.289062 69.804688 538.964844 69.917969 536.648438 C 70.035156 534.328125 70.210938 532.011719 70.449219 529.699219 C 70.6875 527.390625 70.984375 525.085938 71.339844 522.792969 C 71.695312 520.496094 72.113281 518.210938 72.589844 515.9375 C 73.066406 513.664062 73.601562 511.40625 74.195312 509.160156 C 74.789062 506.914062 75.441406 504.6875 76.152344 502.476562 C 76.863281 500.265625 77.628906 498.070312 78.453125 495.902344 C 79.277344 493.730469 80.160156 491.582031 81.097656 489.457031 C 82.035156 487.328125 83.023438 485.230469 84.070312 483.15625 C 85.117188 481.082031 86.21875 479.039062 87.371094 477.023438 C 88.523438 475.003906 89.726562 473.019531 90.984375 471.066406 C 92.242188 469.113281 93.546875 467.195312 94.90625 465.308594 C 96.261719 463.421875 97.667969 461.574219 99.121094 459.761719 C 100.574219 457.949219 102.074219 456.175781 103.617188 454.445312 C 105.164062 452.710938 106.753906 451.019531 108.386719 449.367188 C 110.023438 447.714844 111.699219 446.109375 113.414062 444.546875 C 115.132812 442.980469 116.890625 441.464844 118.6875 439.992188 C 120.484375 438.519531 122.320312 437.097656 124.191406 435.722656 C 126.0625 434.34375 127.96875 433.019531 129.910156 431.742188 C 131.847656 430.464844 133.820312 429.242188 135.828125 428.066406 C 137.832031 426.894531 139.863281 425.773438 141.925781 424.707031 C 143.992188 423.636719 146.078125 422.625 148.195312 421.667969 C 150.3125 420.707031 152.449219 419.804688 154.613281 418.957031 C 156.777344 418.113281 158.960938 417.320312 161.164062 416.589844 C 163.367188 415.855469 165.589844 415.179688 167.828125 414.5625 C 170.066406 413.945312 172.320312 413.390625 174.589844 412.890625 C 176.859375 412.390625 179.140625 411.949219 181.429688 411.570312 C 183.722656 411.1875 186.023438 410.867188 188.328125 410.609375 C 190.636719 410.347656 192.949219 410.148438 195.269531 410.007812 C 197.589844 409.867188 199.910156 409.789062 202.230469 409.769531 C 204.554688 409.75 206.875 409.792969 209.195312 409.894531 C 211.515625 409.996094 213.832031 410.160156 216.144531 410.382812 C 218.457031 410.609375 220.761719 410.890625 223.058594 411.234375 C 225.355469 411.578125 227.644531 411.980469 229.917969 412.445312 C 232.195312 412.90625 234.457031 413.429688 236.707031 414.007812 C 238.957031 414.589844 241.1875 415.230469 243.402344 415.925781 C 245.621094 416.625 247.816406 417.378906 249.992188 418.191406 C 252.167969 419.003906 254.320312 419.871094 256.453125 420.796875 L 309.238281 443.707031 C 310.648438 444.296875 312.085938 444.824219 313.542969 445.289062 C 315.003906 445.75 316.480469 446.144531 317.976562 446.472656 C 319.472656 446.804688 320.976562 447.0625 322.496094 447.257812 C 324.015625 447.449219 325.539062 447.574219 327.070312 447.628906 C 328.601562 447.683594 330.128906 447.667969 331.65625 447.585938 C 333.1875 447.503906 334.707031 447.351562 336.222656 447.132812 C 337.738281 446.910156 339.242188 446.621094 340.730469 446.265625 C 342.21875 445.910156 343.6875 445.488281 345.140625 445 C 346.589844 444.511719 348.015625 443.957031 349.417969 443.339844 C 350.816406 442.722656 352.1875 442.042969 353.527344 441.300781 C 354.867188 440.558594 356.167969 439.757812 357.4375 438.898438 C 358.703125 438.042969 359.929688 437.125 361.113281 436.15625 C 362.296875 435.1875 363.4375 434.167969 364.53125 433.09375 C 365.621094 432.019531 366.664062 430.902344 367.65625 429.734375 C 368.644531 428.566406 369.582031 427.359375 370.464844 426.109375 C 371.347656 424.855469 372.171875 423.566406 372.9375 422.242188 C 373.703125 420.917969 374.40625 419.558594 375.050781 418.167969 C 375.691406 416.78125 376.273438 415.363281 376.789062 413.921875 C 377.304688 412.480469 377.753906 411.019531 378.136719 409.539062 C 378.519531 408.054688 378.835938 406.558594 379.082031 405.046875 C 379.332031 403.539062 379.511719 402.019531 379.621094 400.492188 C 379.730469 398.964844 379.773438 397.4375 379.746094 395.90625 C 379.71875 394.375 379.625 392.847656 379.460938 391.328125 C 379.292969 389.804688 379.0625 388.292969 378.757812 386.792969 C 378.457031 385.292969 378.089844 383.808594 377.652344 382.339844 C 377.21875 380.871094 376.71875 379.425781 376.152344 378.003906 C 375.585938 376.582031 374.957031 375.1875 374.265625 373.820312 C 373.574219 372.457031 372.820312 371.125 372.007812 369.828125 C 371.195312 368.53125 370.328125 367.269531 369.402344 366.050781 C 368.476562 364.832031 367.496094 363.65625 366.464844 362.527344 C 365.433594 361.394531 364.351562 360.3125 363.222656 359.28125 C 362.09375 358.246094 360.917969 357.265625 359.703125 356.339844 Z M 313.460938 322.058594 "/></g><g clip-rule="nonzero" clip-path="url(#92e9198a7c)"><path style=" stroke:none;fill-rule:evenodd;fill:#016e01;fill-opacity:1;" d="M 310.894531 322.058594 C 309.027344 320.675781 307.199219 319.242188 305.410156 317.765625 C 303.617188 316.285156 301.867188 314.761719 300.15625 313.191406 C 298.445312 311.621094 296.773438 310.007812 295.148438 308.351562 C 293.519531 306.695312 291.9375 304.996094 290.398438 303.257812 C 288.859375 301.515625 287.367188 299.738281 285.921875 297.921875 C 284.476562 296.101562 283.078125 294.25 281.726562 292.359375 C 280.378906 290.46875 279.082031 288.542969 277.832031 286.585938 C 276.582031 284.628906 275.386719 282.636719 274.242188 280.617188 C 273.097656 278.597656 272.003906 276.546875 270.964844 274.46875 C 269.929688 272.394531 268.945312 270.289062 268.015625 268.160156 C 267.089844 266.03125 266.214844 263.878906 265.398438 261.707031 C 264.582031 259.53125 263.824219 257.335938 263.125 255.125 C 262.421875 252.910156 261.777344 250.679688 261.191406 248.429688 C 260.609375 246.183594 260.082031 243.921875 259.613281 241.648438 C 259.148438 239.371094 258.738281 237.085938 258.390625 234.789062 C 258.042969 232.492188 257.753906 230.191406 257.527344 227.878906 C 257.300781 225.566406 257.132812 223.25 257.023438 220.933594 C 256.917969 218.613281 256.871094 216.289062 256.886719 213.96875 C 256.898438 211.644531 256.972656 209.324219 257.109375 207.007812 C 257.242188 204.6875 257.441406 202.375 257.695312 200.066406 C 257.949219 197.757812 258.265625 195.457031 258.644531 193.164062 C 259.019531 190.875 259.453125 188.59375 259.949219 186.324219 C 260.445312 184.054688 260.996094 181.800781 261.609375 179.558594 C 262.222656 177.320312 262.890625 175.097656 263.621094 172.890625 C 264.347656 170.6875 265.132812 168.5 265.976562 166.335938 C 266.820312 164.171875 267.71875 162.03125 268.671875 159.914062 C 269.625 157.796875 270.632812 155.707031 271.695312 153.640625 C 272.761719 151.574219 273.875 149.539062 275.046875 147.53125 C 276.214844 145.527344 277.4375 143.550781 278.707031 141.609375 C 279.980469 139.664062 281.304688 137.757812 282.675781 135.882812 C 284.046875 134.007812 285.464844 132.171875 286.933594 130.371094 C 288.402344 128.574219 289.914062 126.8125 291.476562 125.089844 C 293.035156 123.371094 294.636719 121.691406 296.285156 120.054688 C 297.933594 118.417969 299.621094 116.824219 301.351562 115.273438 C 303.082031 113.726562 304.851562 112.222656 306.660156 110.765625 C 308.46875 109.308594 310.316406 107.898438 312.195312 106.539062 C 314.078125 105.179688 315.996094 103.867188 317.945312 102.605469 C 319.898438 101.347656 321.878906 100.136719 323.894531 98.980469 C 325.90625 97.824219 327.949219 96.71875 330.019531 95.667969 C 332.089844 94.617188 334.1875 93.621094 336.3125 92.679688 C 338.433594 91.738281 340.582031 90.855469 342.75 90.023438 C 344.921875 89.195312 347.109375 88.425781 349.320312 87.707031 C 351.53125 86.992188 353.757812 86.335938 356 85.738281 C 358.242188 85.140625 360.503906 84.597656 362.773438 84.117188 C 365.046875 83.636719 367.328125 83.214844 369.625 82.855469 C 371.917969 82.492188 374.21875 82.191406 376.53125 81.949219 C 378.839844 81.707031 381.152344 81.523438 383.472656 81.402344 C 385.792969 81.28125 388.113281 81.222656 390.4375 81.222656 C 392.757812 81.222656 395.078125 81.28125 397.398438 81.402344 C 399.71875 81.523438 402.03125 81.707031 404.34375 81.949219 C 406.652344 82.191406 408.953125 82.492188 411.25 82.855469 C 413.542969 83.214844 415.824219 83.636719 418.097656 84.117188 C 420.371094 84.597656 422.628906 85.140625 424.871094 85.738281 C 427.117188 86.335938 429.34375 86.992188 431.554688 87.707031 C 433.761719 88.425781 435.953125 89.195312 438.121094 90.023438 C 440.289062 90.855469 442.4375 91.738281 444.558594 92.679688 C 446.683594 93.621094 448.78125 94.617188 450.851562 95.667969 C 452.921875 96.71875 454.964844 97.824219 456.980469 98.980469 C 458.992188 100.136719 460.976562 101.347656 462.925781 102.605469 C 464.875 103.867188 466.792969 105.179688 468.675781 106.539062 C 470.558594 107.898438 472.402344 109.308594 474.210938 110.765625 C 476.019531 112.222656 477.789062 113.726562 479.519531 115.273438 C 481.25 116.824219 482.941406 118.417969 484.585938 120.054688 C 486.234375 121.691406 487.835938 123.371094 489.398438 125.089844 C 490.957031 126.8125 492.46875 128.574219 493.9375 130.371094 C 495.40625 132.171875 496.824219 134.007812 498.199219 135.882812 C 499.570312 137.757812 500.890625 139.664062 502.164062 141.609375 C 503.4375 143.550781 504.65625 145.527344 505.828125 147.53125 C 506.996094 149.539062 508.113281 151.574219 509.175781 153.640625 C 510.238281 155.707031 511.246094 157.796875 512.203125 159.914062 C 513.15625 162.03125 514.054688 164.171875 514.894531 166.335938 C 515.738281 168.5 516.523438 170.6875 517.253906 172.890625 C 517.980469 175.097656 518.652344 177.320312 519.261719 179.558594 C 519.875 181.800781 520.429688 184.054688 520.925781 186.324219 C 521.417969 188.59375 521.855469 190.875 522.230469 193.164062 C 522.605469 195.457031 522.921875 197.757812 523.175781 200.066406 C 523.433594 202.375 523.628906 204.6875 523.761719 207.007812 C 523.898438 209.324219 523.972656 211.644531 523.988281 213.96875 C 524 216.289062 523.953125 218.613281 523.847656 220.933594 C 523.742188 223.25 523.574219 225.566406 523.34375 227.878906 C 523.117188 230.191406 522.828125 232.492188 522.480469 234.789062 C 522.132812 237.085938 521.726562 239.371094 521.257812 241.648438 C 520.792969 243.921875 520.265625 246.183594 519.679688 248.429688 C 519.09375 250.679688 518.449219 252.910156 517.75 255.125 C 517.046875 257.335938 516.289062 259.53125 515.472656 261.707031 C 514.65625 263.878906 513.785156 266.03125 512.855469 268.160156 C 511.929688 270.289062 510.945312 272.394531 509.90625 274.46875 C 508.867188 276.546875 507.777344 278.597656 506.632812 280.617188 C 505.488281 282.636719 504.289062 284.628906 503.042969 286.585938 C 501.792969 288.542969 500.492188 290.46875 499.144531 292.359375 C 497.796875 294.25 496.398438 296.101562 494.953125 297.921875 C 493.503906 299.738281 492.011719 301.515625 490.476562 303.257812 C 488.9375 304.996094 487.351562 306.695312 485.726562 308.351562 C 484.097656 310.007812 482.429688 311.621094 480.71875 313.191406 C 479.007812 314.761719 477.253906 316.285156 475.464844 317.765625 C 473.671875 319.242188 471.84375 320.675781 469.980469 322.058594 L 423.675781 356.339844 C 422.457031 357.265625 421.28125 358.246094 420.152344 359.28125 C 419.023438 360.3125 417.941406 361.394531 416.910156 362.527344 C 415.878906 363.65625 414.898438 364.832031 413.972656 366.050781 C 413.046875 367.269531 412.179688 368.53125 411.367188 369.828125 C 410.554688 371.125 409.804688 372.457031 409.109375 373.820312 C 408.417969 375.1875 407.789062 376.582031 407.222656 378.003906 C 406.65625 379.425781 406.15625 380.871094 405.722656 382.339844 C 405.285156 383.808594 404.917969 385.292969 404.617188 386.792969 C 404.316406 388.292969 404.082031 389.804688 403.917969 391.328125 C 403.75 392.847656 403.65625 394.375 403.628906 395.90625 C 403.601562 397.4375 403.644531 398.964844 403.753906 400.492188 C 403.867188 402.019531 404.046875 403.539062 404.292969 405.046875 C 404.542969 406.558594 404.855469 408.054688 405.242188 409.539062 C 405.625 411.019531 406.074219 412.480469 406.589844 413.921875 C 407.101562 415.363281 407.683594 416.78125 408.324219 418.167969 C 408.96875 419.558594 409.671875 420.917969 410.4375 422.242188 C 411.203125 423.566406 412.027344 424.855469 412.910156 426.109375 C 413.792969 427.359375 414.730469 428.566406 415.722656 429.734375 C 416.710938 430.902344 417.753906 432.019531 418.847656 433.09375 C 419.9375 434.167969 421.078125 435.1875 422.261719 436.15625 C 423.445312 437.125 424.671875 438.042969 425.9375 438.898438 C 427.207031 439.757812 428.511719 440.558594 429.847656 441.300781 C 431.1875 442.042969 432.558594 442.722656 433.960938 443.339844 C 435.359375 443.957031 436.785156 444.511719 438.238281 445 C 439.6875 445.488281 441.15625 445.910156 442.648438 446.265625 C 444.136719 446.621094 445.636719 446.910156 447.152344 447.132812 C 448.667969 447.351562 450.1875 447.503906 451.71875 447.585938 C 453.246094 447.667969 454.777344 447.683594 456.304688 447.628906 C 457.835938 447.574219 459.359375 447.449219 460.878906 447.257812 C 462.398438 447.0625 463.90625 446.804688 465.398438 446.472656 C 466.894531 446.144531 468.371094 445.75 469.832031 445.289062 C 471.292969 444.824219 472.726562 444.296875 474.140625 443.707031 L 526.925781 420.796875 C 529.054688 419.871094 531.207031 419.003906 533.382812 418.191406 C 535.5625 417.378906 537.757812 416.625 539.972656 415.925781 C 542.1875 415.230469 544.421875 414.589844 546.667969 414.007812 C 548.917969 413.429688 551.179688 412.90625 553.457031 412.445312 C 555.734375 411.980469 558.019531 411.578125 560.316406 411.234375 C 562.613281 410.890625 564.917969 410.605469 567.230469 410.382812 C 569.542969 410.160156 571.859375 409.996094 574.179688 409.894531 C 576.5 409.792969 578.820312 409.75 581.144531 409.769531 C 583.46875 409.789062 585.789062 409.867188 588.105469 410.007812 C 590.425781 410.148438 592.738281 410.347656 595.046875 410.609375 C 597.355469 410.867188 599.652344 411.1875 601.945312 411.570312 C 604.238281 411.949219 606.515625 412.390625 608.785156 412.890625 C 611.054688 413.390625 613.308594 413.945312 615.546875 414.5625 C 617.785156 415.179688 620.007812 415.855469 622.210938 416.589844 C 624.417969 417.320312 626.601562 418.113281 628.761719 418.957031 C 630.925781 419.804688 633.066406 420.707031 635.179688 421.667969 C 637.296875 422.625 639.386719 423.636719 641.449219 424.707031 C 643.511719 425.773438 645.546875 426.894531 647.550781 428.066406 C 649.554688 429.242188 651.527344 430.464844 653.46875 431.742188 C 655.40625 433.019531 657.3125 434.34375 659.183594 435.722656 C 661.054688 437.097656 662.890625 438.519531 664.6875 439.992188 C 666.484375 441.464844 668.242188 442.980469 669.960938 444.546875 C 671.679688 446.109375 673.355469 447.714844 674.988281 449.367188 C 676.621094 451.019531 678.210938 452.710938 679.757812 454.445312 C 681.304688 456.175781 682.804688 457.949219 684.257812 459.761719 C 685.710938 461.574219 687.113281 463.421875 688.472656 465.308594 C 689.828125 467.195312 691.132812 469.113281 692.390625 471.066406 C 693.648438 473.019531 694.851562 475.003906 696.003906 477.019531 C 697.160156 479.039062 698.257812 481.082031 699.304688 483.15625 C 700.351562 485.230469 701.34375 487.328125 702.28125 489.457031 C 703.214844 491.582031 704.097656 493.730469 704.921875 495.902344 C 705.746094 498.070312 706.515625 500.265625 707.222656 502.476562 C 707.933594 504.6875 708.585938 506.914062 709.179688 509.160156 C 709.773438 511.40625 710.308594 513.664062 710.785156 515.9375 C 711.261719 518.210938 711.679688 520.496094 712.035156 522.792969 C 712.394531 525.085938 712.691406 527.390625 712.925781 529.699219 C 713.164062 532.011719 713.339844 534.328125 713.457031 536.648438 C 713.574219 538.964844 713.628906 541.289062 713.621094 543.609375 C 713.617188 545.933594 713.550781 548.253906 713.425781 550.574219 C 713.300781 552.894531 713.113281 555.207031 712.867188 557.515625 C 712.621094 559.828125 712.3125 562.128906 711.945312 564.421875 C 711.578125 566.714844 711.152344 568.996094 710.664062 571.269531 C 710.179688 573.539062 709.632812 575.796875 709.03125 578.039062 C 708.425781 580.285156 707.765625 582.507812 707.042969 584.71875 C 706.324219 586.925781 705.546875 589.113281 704.714844 591.28125 C 703.878906 593.449219 702.988281 595.59375 702.042969 597.714844 C 701.097656 599.835938 700.097656 601.933594 699.042969 604 C 697.984375 606.070312 696.878906 608.109375 695.714844 610.121094 C 694.554688 612.132812 693.339844 614.113281 692.074219 616.0625 C 690.808594 618.007812 689.496094 619.921875 688.128906 621.800781 C 686.765625 623.679688 685.351562 625.523438 683.890625 627.328125 C 682.429688 629.136719 680.921875 630.902344 679.367188 632.628906 C 677.816406 634.355469 676.21875 636.039062 674.578125 637.683594 C 672.9375 639.328125 671.253906 640.929688 669.527344 642.484375 C 667.804688 644.039062 666.039062 645.550781 664.234375 647.011719 C 662.433594 648.476562 660.59375 649.894531 658.714844 651.261719 C 656.835938 652.628906 654.925781 653.945312 652.980469 655.214844 C 651.035156 656.484375 649.054688 657.699219 647.046875 658.863281 C 645.035156 660.027344 643 661.140625 640.929688 662.199219 C 638.863281 663.257812 636.769531 664.261719 634.648438 665.210938 C 632.53125 666.160156 630.386719 667.054688 628.21875 667.890625 C 626.054688 668.726562 623.867188 669.507812 621.660156 670.230469 C 619.453125 670.957031 617.226562 671.621094 614.984375 672.226562 C 612.742188 672.835938 610.488281 673.382812 608.214844 673.875 C 605.945312 674.363281 603.664062 674.792969 601.371094 675.164062 C 599.078125 675.535156 596.777344 675.84375 594.46875 676.09375 C 592.15625 676.34375 589.84375 676.535156 587.523438 676.664062 C 585.207031 676.792969 582.882812 676.863281 580.5625 676.871094 C 578.238281 676.878906 575.917969 676.828125 573.597656 676.714844 C 571.277344 676.601562 568.960938 676.429688 566.652344 676.195312 C 564.339844 675.964844 562.035156 675.671875 559.742188 675.316406 C 557.445312 674.960938 555.160156 674.550781 552.886719 674.078125 C 550.613281 673.605469 548.351562 673.074219 546.105469 672.480469 C 543.859375 671.890625 541.628906 671.242188 539.417969 670.535156 C 537.203125 669.828125 535.011719 669.0625 532.839844 668.242188 C 530.667969 667.421875 528.515625 666.542969 526.390625 665.609375 C 524.261719 664.675781 522.160156 663.6875 520.085938 662.644531 C 518.011719 661.601562 515.964844 660.503906 513.945312 659.355469 C 511.929688 658.203125 509.941406 657.003906 507.984375 655.75 C 506.03125 654.496094 504.109375 653.191406 502.222656 651.835938 C 500.335938 650.484375 498.484375 649.082031 496.667969 647.632812 C 494.855469 646.179688 493.082031 644.683594 491.34375 643.140625 C 489.609375 641.597656 487.914062 640.011719 486.261719 638.378906 C 484.605469 636.746094 482.996094 635.074219 481.429688 633.359375 C 479.867188 631.644531 478.34375 629.886719 476.871094 628.09375 C 475.394531 626.296875 473.96875 624.464844 472.589844 622.597656 C 471.210938 620.726562 469.882812 618.824219 468.605469 616.882812 C 467.324219 614.945312 466.097656 612.976562 464.917969 610.972656 C 463.742188 608.96875 462.621094 606.9375 461.546875 604.875 C 460.476562 602.816406 459.460938 600.726562 458.5 598.613281 C 457.539062 596.5 456.632812 594.359375 455.78125 592.199219 C 454.933594 590.039062 454.140625 587.855469 453.402344 585.652344 C 452.667969 583.449219 451.988281 581.230469 451.367188 578.988281 C 450.746094 576.75 450.1875 574.5 449.683594 572.230469 C 449.179688 569.964844 448.738281 567.683594 448.351562 565.394531 C 447.96875 563.101562 447.644531 560.804688 447.382812 558.496094 L 440.859375 501.34375 C 440.683594 499.808594 440.441406 498.289062 440.125 496.78125 C 439.808594 495.269531 439.425781 493.777344 438.976562 492.304688 C 438.527344 490.828125 438.011719 489.378906 437.425781 487.949219 C 436.84375 486.523438 436.199219 485.125 435.488281 483.753906 C 434.777344 482.386719 434.007812 481.054688 433.175781 479.753906 C 432.34375 478.457031 431.453125 477.199219 430.507812 475.980469 C 429.5625 474.761719 428.5625 473.589844 427.511719 472.464844 C 426.457031 471.335938 425.355469 470.261719 424.203125 469.234375 C 423.054688 468.207031 421.859375 467.238281 420.617188 466.320312 C 419.378906 465.402344 418.101562 464.542969 416.78125 463.742188 C 415.464844 462.941406 414.113281 462.203125 412.726562 461.523438 C 411.34375 460.847656 409.929688 460.234375 408.488281 459.683594 C 407.046875 459.132812 405.585938 458.652344 404.101562 458.234375 C 402.617188 457.820312 401.113281 457.472656 399.597656 457.195312 C 398.082031 456.914062 396.554688 456.703125 395.019531 456.566406 C 393.484375 456.425781 391.945312 456.355469 390.402344 456.355469 C 388.863281 456.355469 387.324219 456.425781 385.789062 456.566406 C 384.25 456.703125 382.726562 456.914062 381.210938 457.195312 C 379.691406 457.472656 378.191406 457.820312 376.707031 458.234375 C 375.222656 458.652344 373.757812 459.132812 372.316406 459.683594 C 370.878906 460.234375 369.464844 460.847656 368.078125 461.523438 C 366.695312 462.203125 365.34375 462.941406 364.023438 463.742188 C 362.707031 464.542969 361.429688 465.402344 360.1875 466.320312 C 358.949219 467.238281 357.753906 468.207031 356.601562 469.234375 C 355.453125 470.261719 354.351562 471.335938 353.296875 472.464844 C 352.246094 473.589844 351.246094 474.761719 350.300781 475.980469 C 349.351562 477.199219 348.464844 478.457031 347.632812 479.753906 C 346.800781 481.054688 346.03125 482.386719 345.320312 483.753906 C 344.609375 485.125 343.964844 486.523438 343.378906 487.949219 C 342.796875 489.378906 342.28125 490.828125 341.832031 492.304688 C 341.378906 493.777344 340.996094 495.269531 340.683594 496.78125 C 340.367188 498.289062 340.121094 499.808594 339.945312 501.34375 L 333.425781 558.496094 C 333.164062 560.804688 332.839844 563.101562 332.453125 565.394531 C 332.070312 567.683594 331.628906 569.964844 331.125 572.230469 C 330.621094 574.5 330.058594 576.75 329.441406 578.988281 C 328.820312 581.230469 328.140625 583.449219 327.40625 585.652344 C 326.667969 587.855469 325.875 590.039062 325.023438 592.199219 C 324.175781 594.359375 323.269531 596.5 322.308594 598.613281 C 321.34375 600.726562 320.328125 602.816406 319.257812 604.875 C 318.1875 606.9375 317.066406 608.96875 315.886719 610.972656 C 314.710938 612.976562 313.484375 614.945312 312.203125 616.882812 C 310.925781 618.824219 309.59375 620.726562 308.214844 622.597656 C 306.835938 624.464844 305.410156 626.296875 303.9375 628.09375 C 302.460938 629.886719 300.941406 631.644531 299.375 633.359375 C 297.808594 635.074219 296.199219 636.746094 294.546875 638.378906 C 292.894531 640.011719 291.199219 641.597656 289.464844 643.140625 C 287.726562 644.683594 285.953125 646.179688 284.136719 647.632812 C 282.324219 649.082031 280.472656 650.484375 278.585938 651.835938 C 276.699219 653.191406 274.777344 654.496094 272.820312 655.75 C 270.867188 657.003906 268.878906 658.203125 266.859375 659.355469 C 264.84375 660.503906 262.796875 661.601562 260.722656 662.644531 C 258.644531 663.6875 256.542969 664.675781 254.417969 665.609375 C 252.289062 666.542969 250.140625 667.421875 247.96875 668.242188 C 245.796875 669.0625 243.601562 669.828125 241.390625 670.535156 C 239.179688 671.242188 236.949219 671.890625 234.703125 672.480469 C 232.457031 673.074219 230.195312 673.605469 227.921875 674.078125 C 225.648438 674.550781 223.363281 674.964844 221.066406 675.316406 C 218.769531 675.671875 216.46875 675.964844 214.15625 676.195312 C 211.84375 676.429688 209.53125 676.601562 207.210938 676.714844 C 204.890625 676.828125 202.570312 676.878906 200.246094 676.871094 C 197.921875 676.863281 195.601562 676.792969 193.28125 676.664062 C 190.964844 676.535156 188.648438 676.34375 186.339844 676.09375 C 184.03125 675.84375 181.730469 675.535156 179.4375 675.164062 C 177.144531 674.792969 174.863281 674.363281 172.589844 673.875 C 170.320312 673.382812 168.066406 672.835938 165.824219 672.226562 C 163.582031 671.621094 161.355469 670.957031 159.148438 670.230469 C 156.941406 669.507812 154.753906 668.726562 152.589844 667.890625 C 150.421875 667.054688 148.277344 666.160156 146.15625 665.210938 C 144.039062 664.261719 141.945312 663.257812 139.875 662.199219 C 137.808594 661.140625 135.769531 660.027344 133.761719 658.863281 C 131.75 657.699219 129.773438 656.484375 127.828125 655.214844 C 125.882812 653.945312 123.96875 652.628906 122.09375 651.261719 C 120.214844 649.894531 118.375 648.476562 116.570312 647.011719 C 114.769531 645.550781 113.003906 644.039062 111.277344 642.484375 C 109.554688 640.929688 107.871094 639.328125 106.230469 637.683594 C 104.589844 636.039062 102.992188 634.355469 101.4375 632.628906 C 99.886719 630.902344 98.378906 629.136719 96.917969 627.328125 C 95.457031 625.523438 94.042969 623.679688 92.679688 621.800781 C 91.3125 619.921875 89.996094 618.007812 88.734375 616.0625 C 87.46875 614.113281 86.253906 612.132812 85.09375 610.121094 C 83.929688 608.109375 82.820312 606.070312 81.765625 604 C 80.710938 601.933594 79.710938 599.835938 78.765625 597.714844 C 77.816406 595.59375 76.929688 593.449219 76.09375 591.28125 C 75.257812 589.113281 74.484375 586.925781 73.761719 584.71875 C 73.042969 582.507812 72.378906 580.285156 71.777344 578.039062 C 71.171875 575.796875 70.628906 573.539062 70.140625 571.269531 C 69.65625 568.996094 69.230469 566.714844 68.863281 564.421875 C 68.496094 562.128906 68.1875 559.828125 67.941406 557.515625 C 67.695312 555.207031 67.507812 552.894531 67.382812 550.574219 C 67.253906 548.253906 67.191406 545.933594 67.183594 543.609375 C 67.179688 541.289062 67.234375 538.964844 67.351562 536.648438 C 67.46875 534.328125 67.644531 532.011719 67.878906 529.699219 C 68.117188 527.390625 68.414062 525.085938 68.769531 522.792969 C 69.128906 520.496094 69.546875 518.210938 70.019531 515.9375 C 70.496094 513.664062 71.03125 511.40625 71.625 509.160156 C 72.21875 506.914062 72.871094 504.6875 73.582031 502.476562 C 74.292969 500.265625 75.0625 498.070312 75.886719 495.902344 C 76.710938 493.730469 77.589844 491.582031 78.527344 489.457031 C 79.464844 487.328125 80.457031 485.230469 81.503906 483.15625 C 82.550781 481.082031 83.648438 479.039062 84.800781 477.023438 C 85.953125 475.003906 87.160156 473.019531 88.417969 471.066406 C 89.671875 469.113281 90.980469 467.195312 92.335938 465.308594 C 93.691406 463.421875 95.097656 461.574219 96.550781 459.761719 C 98.003906 457.949219 99.503906 456.175781 101.050781 454.445312 C 102.59375 452.710938 104.183594 451.019531 105.820312 449.367188 C 107.453125 447.714844 109.128906 446.109375 110.847656 444.546875 C 112.566406 442.980469 114.324219 441.464844 116.121094 439.992188 C 117.917969 438.519531 119.75 437.097656 121.621094 435.722656 C 123.492188 434.34375 125.398438 433.019531 127.339844 431.742188 C 129.28125 430.464844 131.253906 429.242188 133.257812 428.066406 C 135.261719 426.894531 137.296875 425.773438 139.359375 424.707031 C 141.421875 423.636719 143.511719 422.625 145.625 421.667969 C 147.742188 420.707031 149.882812 419.804688 152.042969 418.957031 C 154.207031 418.113281 156.390625 417.320312 158.59375 416.589844 C 160.800781 415.855469 163.019531 415.179688 165.261719 414.5625 C 167.5 413.945312 169.753906 413.390625 172.023438 412.890625 C 174.289062 412.390625 176.570312 411.949219 178.863281 411.570312 C 181.152344 411.1875 183.453125 410.867188 185.761719 410.609375 C 188.070312 410.347656 190.382812 410.148438 192.699219 410.007812 C 195.019531 409.867188 197.339844 409.789062 199.664062 409.769531 C 201.984375 409.75 204.308594 409.792969 206.628906 409.894531 C 208.949219 409.996094 211.265625 410.160156 213.578125 410.382812 C 215.886719 410.609375 218.191406 410.890625 220.492188 411.234375 C 222.789062 411.578125 225.074219 411.980469 227.351562 412.445312 C 229.625 412.90625 231.890625 413.429688 234.136719 414.007812 C 236.386719 414.589844 238.621094 415.230469 240.835938 415.925781 C 243.050781 416.625 245.246094 417.378906 247.421875 418.191406 C 249.597656 419.003906 251.753906 419.871094 253.882812 420.796875 L 306.667969 443.707031 C 308.082031 444.296875 309.515625 444.824219 310.976562 445.289062 C 312.433594 445.75 313.914062 446.144531 315.40625 446.472656 C 316.902344 446.804688 318.410156 447.0625 319.929688 447.257812 C 321.445312 447.449219 322.972656 447.574219 324.5 447.628906 C 326.03125 447.683594 327.5625 447.667969 329.089844 447.585938 C 330.617188 447.503906 332.140625 447.351562 333.65625 447.132812 C 335.167969 446.910156 336.671875 446.621094 338.160156 446.265625 C 339.648438 445.910156 341.121094 445.488281 342.570312 445 C 344.019531 444.511719 345.445312 443.957031 346.847656 443.339844 C 348.25 442.722656 349.617188 442.042969 350.957031 441.300781 C 352.296875 440.558594 353.601562 439.757812 354.867188 438.898438 C 356.136719 438.042969 357.359375 437.125 358.546875 436.15625 C 359.730469 435.1875 360.867188 434.167969 361.960938 433.09375 C 363.054688 432.019531 364.09375 430.902344 365.085938 429.734375 C 366.078125 428.566406 367.015625 427.359375 367.898438 426.109375 C 368.777344 424.855469 369.601562 423.566406 370.367188 422.242188 C 371.132812 420.917969 371.839844 419.558594 372.480469 418.167969 C 373.125 416.78125 373.703125 415.363281 374.21875 413.921875 C 374.734375 412.480469 375.183594 411.019531 375.566406 409.539062 C 375.949219 408.054688 376.265625 406.558594 376.515625 405.046875 C 376.761719 403.539062 376.941406 402.019531 377.054688 400.492188 C 377.164062 398.964844 377.207031 397.4375 377.179688 395.90625 C 377.152344 394.375 377.054688 392.847656 376.890625 391.328125 C 376.726562 389.804688 376.492188 388.292969 376.191406 386.792969 C 375.890625 385.292969 375.519531 383.808594 375.085938 382.339844 C 374.648438 380.871094 374.148438 379.425781 373.582031 378.003906 C 373.015625 376.582031 372.386719 375.1875 371.695312 373.820312 C 371.003906 372.457031 370.253906 371.125 369.441406 369.828125 C 368.628906 368.53125 367.757812 367.269531 366.832031 366.050781 C 365.90625 364.832031 364.929688 363.65625 363.898438 362.527344 C 362.863281 361.394531 361.785156 360.3125 360.65625 359.28125 C 359.523438 358.246094 358.351562 357.265625 357.132812 356.339844 Z M 310.894531 322.058594 "/></g></g></svg>