<svg xmlns="http://www.w3.org/2000/svg" xmlns:xlink="http://www.w3.org/1999/xlink" width="250" zoomAndPan="magnify" viewBox="0 0 187.5 74.999997" height="100" preserveAspectRatio="xMidYMid meet" version="1.2"><defs><clipPath id="59d85eca1f"><path d="M 29.011719 51.085938 L 187 51.085938 L 187 58.015625 L 29.011719 58.015625 Z M 29.011719 51.085938 "/></clipPath><clipPath id="6d3c3da606"><path d="M 29.011719 51.085938 L 30.507812 58.015625 L 194.773438 51.460938 L 194.679688 51.085938 Z M 29.011719 51.085938 "/></clipPath><linearGradient x1="1466.825682" gradientTransform="matrix(0.0270695,0,0,0.0270695,29.010805,51.087673)" y1="-1466.824218" x2="4513.052969" gradientUnits="userSpaceOnUse" y2="1579.402019" id="6c56fd257f"><stop style="stop-color:#1e6b0c;stop-opacity:1;" offset="0"/><stop style="stop-color:#206a0c;stop-opacity:1;" offset="0.00390625"/><stop style="stop-color:#216a0c;stop-opacity:1;" offset="0.0078125"/><stop style="stop-color:#23690c;stop-opacity:1;" offset="0.0117188"/><stop style="stop-color:#25680c;stop-opacity:1;" offset="0.015625"/><stop style="stop-color:#26670c;stop-opacity:1;" offset="0.0195313"/><stop style="stop-color:#28660b;stop-opacity:1;" offset="0.0234375"/><stop style="stop-color:#2a660b;stop-opacity:1;" offset="0.0273438"/><stop style="stop-color:#2c650b;stop-opacity:1;" offset="0.03125"/><stop style="stop-color:#2d640b;stop-opacity:1;" offset="0.0351562"/><stop style="stop-color:#2f630b;stop-opacity:1;" offset="0.0390625"/><stop style="stop-color:#31620b;stop-opacity:1;" offset="0.0429688"/><stop style="stop-color:#32620b;stop-opacity:1;" offset="0.046875"/><stop style="stop-color:#34610b;stop-opacity:1;" offset="0.0507812"/><stop style="stop-color:#36600b;stop-opacity:1;" offset="0.0546875"/><stop style="stop-color:#375f0b;stop-opacity:1;" offset="0.0585937"/><stop style="stop-color:#395e0b;stop-opacity:1;" offset="0.0625"/><stop style="stop-color:#3b5e0a;stop-opacity:1;" offset="0.0664063"/><stop style="stop-color:#3c5d0a;stop-opacity:1;" offset="0.0703125"/><stop style="stop-color:#3e5c0a;stop-opacity:1;" offset="0.0742188"/><stop style="stop-color:#405b0a;stop-opacity:1;" offset="0.078125"/><stop style="stop-color:#415a0a;stop-opacity:1;" offset="0.0820313"/><stop style="stop-color:#435a0a;stop-opacity:1;" offset="0.0859375"/><stop style="stop-color:#45590a;stop-opacity:1;" offset="0.0898438"/><stop style="stop-color:#46580a;stop-opacity:1;" offset="0.09375"/><stop style="stop-color:#48570a;stop-opacity:1;" offset="0.0976562"/><stop style="stop-color:#4a560a;stop-opacity:1;" offset="0.101562"/><stop style="stop-color:#4b560a;stop-opacity:1;" offset="0.105469"/><stop style="stop-color:#4d5509;stop-opacity:1;" offset="0.109375"/><stop style="stop-color:#4f5409;stop-opacity:1;" offset="0.113281"/><stop style="stop-color:#505309;stop-opacity:1;" offset="0.117188"/><stop style="stop-color:#525209;stop-opacity:1;" offset="0.121094"/><stop style="stop-color:#545209;stop-opacity:1;" offset="0.125"/><stop style="stop-color:#555109;stop-opacity:1;" offset="0.128906"/><stop style="stop-color:#575009;stop-opacity:1;" offset="0.132813"/><stop style="stop-color:#594f09;stop-opacity:1;" offset="0.136719"/><stop style="stop-color:#5b4e09;stop-opacity:1;" offset="0.140625"/><stop style="stop-color:#5c4e09;stop-opacity:1;" offset="0.144531"/><stop style="stop-color:#5e4d09;stop-opacity:1;" offset="0.148438"/><stop style="stop-color:#604c08;stop-opacity:1;" offset="0.152344"/><stop style="stop-color:#614b08;stop-opacity:1;" offset="0.15625"/><stop style="stop-color:#634a08;stop-opacity:1;" offset="0.160156"/><stop style="stop-color:#654a08;stop-opacity:1;" offset="0.164063"/><stop style="stop-color:#664908;stop-opacity:1;" offset="0.167969"/><stop style="stop-color:#684808;stop-opacity:1;" offset="0.171875"/><stop style="stop-color:#6a4708;stop-opacity:1;" offset="0.175781"/><stop style="stop-color:#6b4608;stop-opacity:1;" offset="0.179688"/><stop style="stop-color:#6d4608;stop-opacity:1;" offset="0.183594"/><stop style="stop-color:#6f4508;stop-opacity:1;" offset="0.1875"/><stop style="stop-color:#704408;stop-opacity:1;" offset="0.191406"/><stop style="stop-color:#724308;stop-opacity:1;" offset="0.195313"/><stop style="stop-color:#744207;stop-opacity:1;" offset="0.199219"/><stop style="stop-color:#754207;stop-opacity:1;" offset="0.203125"/><stop style="stop-color:#774107;stop-opacity:1;" offset="0.207031"/><stop style="stop-color:#794007;stop-opacity:1;" offset="0.210938"/><stop style="stop-color:#7a3f07;stop-opacity:1;" offset="0.214844"/><stop style="stop-color:#7c3e07;stop-opacity:1;" offset="0.21875"/><stop style="stop-color:#7e3e07;stop-opacity:1;" offset="0.222656"/><stop style="stop-color:#7f3d07;stop-opacity:1;" offset="0.226563"/><stop style="stop-color:#813c07;stop-opacity:1;" offset="0.230469"/><stop style="stop-color:#833b07;stop-opacity:1;" offset="0.234375"/><stop style="stop-color:#843a07;stop-opacity:1;" offset="0.238281"/><stop style="stop-color:#863a06;stop-opacity:1;" offset="0.242188"/><stop style="stop-color:#883906;stop-opacity:1;" offset="0.246094"/><stop style="stop-color:#893806;stop-opacity:1;" offset="0.25"/><stop style="stop-color:#8b3706;stop-opacity:1;" offset="0.253906"/><stop style="stop-color:#8d3606;stop-opacity:1;" offset="0.257813"/><stop style="stop-color:#8f3606;stop-opacity:1;" offset="0.261719"/><stop style="stop-color:#903506;stop-opacity:1;" offset="0.265625"/><stop style="stop-color:#923406;stop-opacity:1;" offset="0.269531"/><stop style="stop-color:#943306;stop-opacity:1;" offset="0.273438"/><stop style="stop-color:#953206;stop-opacity:1;" offset="0.277344"/><stop style="stop-color:#973206;stop-opacity:1;" offset="0.28125"/><stop style="stop-color:#993105;stop-opacity:1;" offset="0.285156"/><stop style="stop-color:#9a3005;stop-opacity:1;" offset="0.289063"/><stop style="stop-color:#9c2f05;stop-opacity:1;" offset="0.292969"/><stop style="stop-color:#9e2e05;stop-opacity:1;" offset="0.296875"/><stop style="stop-color:#9f2e05;stop-opacity:1;" offset="0.300781"/><stop style="stop-color:#a12d05;stop-opacity:1;" offset="0.304688"/><stop style="stop-color:#a32c05;stop-opacity:1;" offset="0.308594"/><stop style="stop-color:#a42b05;stop-opacity:1;" offset="0.3125"/><stop style="stop-color:#a62a05;stop-opacity:1;" offset="0.316406"/><stop style="stop-color:#a82a05;stop-opacity:1;" offset="0.320313"/><stop style="stop-color:#a92905;stop-opacity:1;" offset="0.324219"/><stop style="stop-color:#ab2804;stop-opacity:1;" offset="0.328125"/><stop style="stop-color:#ad2704;stop-opacity:1;" offset="0.332031"/><stop style="stop-color:#ae2604;stop-opacity:1;" offset="0.335938"/><stop style="stop-color:#b02604;stop-opacity:1;" offset="0.339844"/><stop style="stop-color:#b22504;stop-opacity:1;" offset="0.34375"/><stop style="stop-color:#b32404;stop-opacity:1;" offset="0.347656"/><stop style="stop-color:#b52304;stop-opacity:1;" offset="0.351563"/><stop style="stop-color:#b72204;stop-opacity:1;" offset="0.355469"/><stop style="stop-color:#b82204;stop-opacity:1;" offset="0.359375"/><stop style="stop-color:#ba2104;stop-opacity:1;" offset="0.363281"/><stop style="stop-color:#bc2004;stop-opacity:1;" offset="0.367188"/><stop style="stop-color:#be1f03;stop-opacity:1;" offset="0.371094"/><stop style="stop-color:#bf1e03;stop-opacity:1;" offset="0.375"/><stop style="stop-color:#c11e03;stop-opacity:1;" offset="0.378906"/><stop style="stop-color:#c31d03;stop-opacity:1;" offset="0.382812"/><stop style="stop-color:#c41c03;stop-opacity:1;" offset="0.386719"/><stop style="stop-color:#c61b03;stop-opacity:1;" offset="0.390625"/><stop style="stop-color:#c81a03;stop-opacity:1;" offset="0.394531"/><stop style="stop-color:#c91a03;stop-opacity:1;" offset="0.398438"/><stop style="stop-color:#cb1903;stop-opacity:1;" offset="0.402344"/><stop style="stop-color:#cd1803;stop-opacity:1;" offset="0.40625"/><stop style="stop-color:#ce1703;stop-opacity:1;" offset="0.410156"/><stop style="stop-color:#d01603;stop-opacity:1;" offset="0.414062"/><stop style="stop-color:#d21602;stop-opacity:1;" offset="0.417969"/><stop style="stop-color:#d31502;stop-opacity:1;" offset="0.421875"/><stop style="stop-color:#d51402;stop-opacity:1;" offset="0.425781"/><stop style="stop-color:#d71302;stop-opacity:1;" offset="0.429688"/><stop style="stop-color:#d81202;stop-opacity:1;" offset="0.433594"/><stop style="stop-color:#da1202;stop-opacity:1;" offset="0.4375"/><stop style="stop-color:#dc1102;stop-opacity:1;" offset="0.441406"/><stop style="stop-color:#dd1002;stop-opacity:1;" offset="0.445312"/><stop style="stop-color:#df0f02;stop-opacity:1;" offset="0.449219"/><stop style="stop-color:#e10e02;stop-opacity:1;" offset="0.453125"/><stop style="stop-color:#e20e02;stop-opacity:1;" offset="0.457031"/><stop style="stop-color:#e40d01;stop-opacity:1;" offset="0.460938"/><stop style="stop-color:#e60c01;stop-opacity:1;" offset="0.464844"/><stop style="stop-color:#e70b01;stop-opacity:1;" offset="0.46875"/><stop style="stop-color:#e90a01;stop-opacity:1;" offset="0.472656"/><stop style="stop-color:#eb0a01;stop-opacity:1;" offset="0.476562"/><stop style="stop-color:#ec0901;stop-opacity:1;" offset="0.480469"/><stop style="stop-color:#ee0801;stop-opacity:1;" offset="0.484375"/><stop style="stop-color:#f00701;stop-opacity:1;" offset="0.488281"/><stop style="stop-color:#f20601;stop-opacity:1;" offset="0.492188"/><stop style="stop-color:#f30601;stop-opacity:1;" offset="0.496094"/><stop style="stop-color:#f50501;stop-opacity:1;" offset="0.5"/><stop style="stop-color:#f70400;stop-opacity:1;" offset="0.503906"/><stop style="stop-color:#f80300;stop-opacity:1;" offset="0.507813"/><stop style="stop-color:#fa0200;stop-opacity:1;" offset="0.511719"/><stop style="stop-color:#fc0200;stop-opacity:1;" offset="0.515625"/><stop style="stop-color:#fd0100;stop-opacity:1;" offset="0.519531"/><stop style="stop-color:#ff0000;stop-opacity:1;" offset="0.523438"/><stop style="stop-color:#fd0000;stop-opacity:1;" offset="0.527344"/><stop style="stop-color:#fb0000;stop-opacity:1;" offset="0.53125"/><stop style="stop-color:#f90000;stop-opacity:1;" offset="0.535156"/><stop style="stop-color:#f70000;stop-opacity:1;" offset="0.539062"/><stop style="stop-color:#f60000;stop-opacity:1;" offset="0.542969"/><stop style="stop-color:#f40000;stop-opacity:1;" offset="0.546875"/><stop style="stop-color:#f20000;stop-opacity:1;" offset="0.550781"/><stop style="stop-color:#f00000;stop-opacity:1;" offset="0.554688"/><stop style="stop-color:#ee0000;stop-opacity:1;" offset="0.558594"/><stop style="stop-color:#ec0000;stop-opacity:1;" offset="0.5625"/><stop style="stop-color:#ea0000;stop-opacity:1;" offset="0.566406"/><stop style="stop-color:#e80000;stop-opacity:1;" offset="0.570312"/><stop style="stop-color:#e60000;stop-opacity:1;" offset="0.574219"/><stop style="stop-color:#e40000;stop-opacity:1;" offset="0.578125"/><stop style="stop-color:#e30000;stop-opacity:1;" offset="0.582031"/><stop style="stop-color:#e10000;stop-opacity:1;" offset="0.585938"/><stop style="stop-color:#df0000;stop-opacity:1;" offset="0.589844"/><stop style="stop-color:#dd0000;stop-opacity:1;" offset="0.59375"/><stop style="stop-color:#db0000;stop-opacity:1;" offset="0.597656"/><stop style="stop-color:#d90000;stop-opacity:1;" offset="0.601562"/><stop style="stop-color:#d70000;stop-opacity:1;" offset="0.605469"/><stop style="stop-color:#d50000;stop-opacity:1;" offset="0.609375"/><stop style="stop-color:#d30000;stop-opacity:1;" offset="0.613281"/><stop style="stop-color:#d10000;stop-opacity:1;" offset="0.617188"/><stop style="stop-color:#cf0000;stop-opacity:1;" offset="0.621094"/><stop style="stop-color:#ce0000;stop-opacity:1;" offset="0.625"/><stop style="stop-color:#cc0000;stop-opacity:1;" offset="0.628906"/><stop style="stop-color:#ca0000;stop-opacity:1;" offset="0.632812"/><stop style="stop-color:#c80000;stop-opacity:1;" offset="0.636719"/><stop style="stop-color:#c60000;stop-opacity:1;" offset="0.640625"/><stop style="stop-color:#c40000;stop-opacity:1;" offset="0.644531"/><stop style="stop-color:#c20000;stop-opacity:1;" offset="0.648438"/><stop style="stop-color:#c00000;stop-opacity:1;" offset="0.652344"/><stop style="stop-color:#be0000;stop-opacity:1;" offset="0.65625"/><stop style="stop-color:#bc0000;stop-opacity:1;" offset="0.660156"/><stop style="stop-color:#bb0000;stop-opacity:1;" offset="0.664062"/><stop style="stop-color:#b90000;stop-opacity:1;" offset="0.667969"/><stop style="stop-color:#b70000;stop-opacity:1;" offset="0.671875"/><stop style="stop-color:#b50000;stop-opacity:1;" offset="0.675781"/><stop style="stop-color:#b30000;stop-opacity:1;" offset="0.679688"/><stop style="stop-color:#b10000;stop-opacity:1;" offset="0.683594"/><stop style="stop-color:#af0000;stop-opacity:1;" offset="0.6875"/><stop style="stop-color:#ad0000;stop-opacity:1;" offset="0.691406"/><stop style="stop-color:#ab0000;stop-opacity:1;" offset="0.695312"/><stop style="stop-color:#a90000;stop-opacity:1;" offset="0.699219"/><stop style="stop-color:#a80000;stop-opacity:1;" offset="0.703125"/><stop style="stop-color:#a60000;stop-opacity:1;" offset="0.707031"/><stop style="stop-color:#a40000;stop-opacity:1;" offset="0.710938"/><stop style="stop-color:#a20000;stop-opacity:1;" offset="0.714844"/><stop style="stop-color:#a00000;stop-opacity:1;" offset="0.71875"/><stop style="stop-color:#9e0000;stop-opacity:1;" offset="0.722656"/><stop style="stop-color:#9c0000;stop-opacity:1;" offset="0.726562"/><stop style="stop-color:#9a0000;stop-opacity:1;" offset="0.730469"/><stop style="stop-color:#980000;stop-opacity:1;" offset="0.734375"/><stop style="stop-color:#960000;stop-opacity:1;" offset="0.738281"/><stop style="stop-color:#940000;stop-opacity:1;" offset="0.742188"/><stop style="stop-color:#930000;stop-opacity:1;" offset="0.746094"/><stop style="stop-color:#910000;stop-opacity:1;" offset="0.75"/><stop style="stop-color:#8f0000;stop-opacity:1;" offset="0.753906"/><stop style="stop-color:#8d0000;stop-opacity:1;" offset="0.757812"/><stop style="stop-color:#8b0000;stop-opacity:1;" offset="0.761719"/><stop style="stop-color:#890000;stop-opacity:1;" offset="0.765625"/><stop style="stop-color:#870000;stop-opacity:1;" offset="0.769531"/><stop style="stop-color:#850000;stop-opacity:1;" offset="0.773438"/><stop style="stop-color:#830000;stop-opacity:1;" offset="0.777344"/><stop style="stop-color:#810000;stop-opacity:1;" offset="0.78125"/><stop style="stop-color:#800000;stop-opacity:1;" offset="0.785156"/><stop style="stop-color:#7e0000;stop-opacity:1;" offset="0.789062"/><stop style="stop-color:#7c0000;stop-opacity:1;" offset="0.792969"/><stop style="stop-color:#7a0000;stop-opacity:1;" offset="0.796875"/><stop style="stop-color:#780000;stop-opacity:1;" offset="0.800781"/><stop style="stop-color:#760000;stop-opacity:1;" offset="0.804688"/><stop style="stop-color:#740000;stop-opacity:1;" offset="0.808594"/><stop style="stop-color:#720000;stop-opacity:1;" offset="0.8125"/><stop style="stop-color:#700000;stop-opacity:1;" offset="0.816406"/><stop style="stop-color:#6e0000;stop-opacity:1;" offset="0.820312"/><stop style="stop-color:#6d0000;stop-opacity:1;" offset="0.824219"/><stop style="stop-color:#6b0000;stop-opacity:1;" offset="0.828125"/><stop style="stop-color:#690000;stop-opacity:1;" offset="0.832031"/><stop style="stop-color:#670000;stop-opacity:1;" offset="0.835938"/><stop style="stop-color:#650000;stop-opacity:1;" offset="0.839844"/><stop style="stop-color:#630000;stop-opacity:1;" offset="0.84375"/><stop style="stop-color:#610000;stop-opacity:1;" offset="0.847656"/><stop style="stop-color:#5f0000;stop-opacity:1;" offset="0.851562"/><stop style="stop-color:#5d0000;stop-opacity:1;" offset="0.855469"/><stop style="stop-color:#5b0000;stop-opacity:1;" offset="0.859375"/><stop style="stop-color:#5a0000;stop-opacity:1;" offset="0.863281"/><stop style="stop-color:#580000;stop-opacity:1;" offset="0.867188"/><stop style="stop-color:#560000;stop-opacity:1;" offset="0.871094"/><stop style="stop-color:#540000;stop-opacity:1;" offset="0.875"/><stop style="stop-color:#520000;stop-opacity:1;" offset="0.878906"/><stop style="stop-color:#500000;stop-opacity:1;" offset="0.882812"/><stop style="stop-color:#4e0000;stop-opacity:1;" offset="0.886719"/><stop style="stop-color:#4c0000;stop-opacity:1;" offset="0.890625"/><stop style="stop-color:#4a0000;stop-opacity:1;" offset="0.894531"/><stop style="stop-color:#480000;stop-opacity:1;" offset="0.898438"/><stop style="stop-color:#460000;stop-opacity:1;" offset="0.902344"/><stop style="stop-color:#450000;stop-opacity:1;" offset="0.90625"/><stop style="stop-color:#430000;stop-opacity:1;" offset="0.910156"/><stop style="stop-color:#410000;stop-opacity:1;" offset="0.914062"/><stop style="stop-color:#3f0000;stop-opacity:1;" offset="0.917969"/><stop style="stop-color:#3d0000;stop-opacity:1;" offset="0.921875"/><stop style="stop-color:#3b0000;stop-opacity:1;" offset="0.925781"/><stop style="stop-color:#390000;stop-opacity:1;" offset="0.929688"/><stop style="stop-color:#370000;stop-opacity:1;" offset="0.933594"/><stop style="stop-color:#350000;stop-opacity:1;" offset="0.9375"/><stop style="stop-color:#330000;stop-opacity:1;" offset="0.941406"/><stop style="stop-color:#320000;stop-opacity:1;" offset="0.945312"/><stop style="stop-color:#300000;stop-opacity:1;" offset="0.949219"/><stop style="stop-color:#2e0000;stop-opacity:1;" offset="0.953125"/><stop style="stop-color:#2c0000;stop-opacity:1;" offset="0.957031"/><stop style="stop-color:#2a0000;stop-opacity:1;" offset="0.960938"/><stop style="stop-color:#280000;stop-opacity:1;" offset="0.964844"/><stop style="stop-color:#260000;stop-opacity:1;" offset="0.96875"/><stop style="stop-color:#240000;stop-opacity:1;" offset="0.972656"/><stop style="stop-color:#220000;stop-opacity:1;" offset="0.976562"/><stop style="stop-color:#200000;stop-opacity:1;" offset="0.980469"/><stop style="stop-color:#1f0000;stop-opacity:1;" offset="0.984375"/><stop style="stop-color:#1d0000;stop-opacity:1;" offset="0.988281"/><stop style="stop-color:#1b0000;stop-opacity:1;" offset="0.992188"/><stop style="stop-color:#190000;stop-opacity:1;" offset="0.996094"/><stop style="stop-color:#170000;stop-opacity:1;" offset="1"/></linearGradient><clipPath id="e611923b84"><path d="M 1.308594 25.671875 L 26.46875 25.671875 L 26.46875 48.445312 L 1.308594 48.445312 Z M 1.308594 25.671875 "/></clipPath><clipPath id="26955e40f0"><path d="M 1.308594 37.464844 L 13.226562 37.464844 L 13.226562 48.320312 L 1.308594 48.320312 Z M 1.308594 37.464844 "/></clipPath><clipPath id="3b68499dab"><path d="M 15.144531 37.839844 L 26 37.839844 L 26 48.4375 L 15.144531 48.4375 Z M 15.144531 37.839844 "/></clipPath></defs><g id="647e481d87"><g style="fill:#ff3131;fill-opacity:1;"><g transform="translate(80.011171, 48.35857)"><path style="stroke:none" d="M 12.765625 -5.84375 C 12.765625 -4.820312 12.609375 -3.921875 12.296875 -3.140625 C 11.992188 -2.359375 11.570312 -1.695312 11.03125 -1.15625 C 10.5 -0.613281 9.867188 -0.207031 9.140625 0.0625 C 8.410156 0.332031 7.617188 0.46875 6.765625 0.46875 C 4.921875 0.46875 3.457031 -0.0546875 2.375 -1.109375 C 1.300781 -2.160156 0.765625 -3.597656 0.765625 -5.421875 L 0.765625 -7.6875 L 4.5 -7.6875 L 4.5 -5.5 C 4.5 -4.675781 4.675781 -4.046875 5.03125 -3.609375 C 5.394531 -3.179688 5.9375 -2.96875 6.65625 -2.96875 C 7.394531 -2.96875 7.9375 -3.171875 8.28125 -3.578125 C 8.632812 -3.984375 8.8125 -4.546875 8.8125 -5.265625 C 8.8125 -6.398438 8.535156 -7.421875 7.984375 -8.328125 C 7.429688 -9.234375 6.617188 -10.265625 5.546875 -11.421875 C 5.003906 -11.960938 4.460938 -12.546875 3.921875 -13.171875 C 3.378906 -13.804688 2.890625 -14.472656 2.453125 -15.171875 C 2.023438 -15.878906 1.671875 -16.625 1.390625 -17.40625 C 1.109375 -18.1875 0.96875 -18.988281 0.96875 -19.8125 C 0.96875 -20.6875 1.085938 -21.5 1.328125 -22.25 C 1.566406 -23.007812 1.9375 -23.671875 2.4375 -24.234375 C 2.9375 -24.796875 3.554688 -25.242188 4.296875 -25.578125 C 5.046875 -25.910156 5.921875 -26.078125 6.921875 -26.078125 C 8.640625 -26.078125 10.007812 -25.535156 11.03125 -24.453125 C 12.0625 -23.378906 12.578125 -21.960938 12.578125 -20.203125 L 12.578125 -17.890625 L 8.890625 -17.890625 L 8.890625 -20.203125 C 8.890625 -20.910156 8.726562 -21.484375 8.40625 -21.921875 C 8.082031 -22.359375 7.585938 -22.578125 6.921875 -22.578125 C 6.335938 -22.578125 5.859375 -22.394531 5.484375 -22.03125 C 5.109375 -21.675781 4.921875 -21.164062 4.921875 -20.5 C 4.921875 -19.882812 4.988281 -19.328125 5.125 -18.828125 C 5.269531 -18.328125 5.484375 -17.847656 5.765625 -17.390625 C 6.046875 -16.929688 6.410156 -16.445312 6.859375 -15.9375 C 7.316406 -15.4375 7.835938 -14.867188 8.421875 -14.234375 C 9.679688 -12.921875 10.71875 -11.597656 11.53125 -10.265625 C 12.351562 -8.929688 12.765625 -7.457031 12.765625 -5.84375 Z M 12.765625 -5.84375 "/></g></g><g style="fill:#ff3131;fill-opacity:1;"><g transform="translate(92.430991, 48.35857)"><path style="stroke:none" d="M 13.421875 -5.609375 C 13.421875 -4.710938 13.273438 -3.890625 12.984375 -3.140625 C 12.691406 -2.398438 12.28125 -1.757812 11.75 -1.21875 C 11.226562 -0.6875 10.585938 -0.273438 9.828125 0.015625 C 9.066406 0.316406 8.226562 0.46875 7.3125 0.46875 C 6.382812 0.46875 5.539062 0.316406 4.78125 0.015625 C 4.03125 -0.273438 3.390625 -0.6875 2.859375 -1.21875 C 2.335938 -1.757812 1.925781 -2.398438 1.625 -3.140625 C 1.332031 -3.890625 1.1875 -4.710938 1.1875 -5.609375 L 1.1875 -20 C 1.1875 -20.875 1.332031 -21.679688 1.625 -22.421875 C 1.925781 -23.171875 2.335938 -23.8125 2.859375 -24.34375 C 3.390625 -24.882812 4.03125 -25.304688 4.78125 -25.609375 C 5.539062 -25.921875 6.382812 -26.078125 7.3125 -26.078125 C 8.226562 -26.078125 9.066406 -25.921875 9.828125 -25.609375 C 10.585938 -25.304688 11.226562 -24.882812 11.75 -24.34375 C 12.28125 -23.8125 12.691406 -23.171875 12.984375 -22.421875 C 13.273438 -21.679688 13.421875 -20.875 13.421875 -20 Z M 9.3125 -20.3125 C 9.3125 -20.925781 9.132812 -21.425781 8.78125 -21.8125 C 8.4375 -22.195312 7.945312 -22.390625 7.3125 -22.390625 C 6.664062 -22.390625 6.171875 -22.195312 5.828125 -21.8125 C 5.484375 -21.425781 5.3125 -20.925781 5.3125 -20.3125 L 5.3125 -5.3125 C 5.3125 -4.695312 5.484375 -4.195312 5.828125 -3.8125 C 6.171875 -3.425781 6.664062 -3.234375 7.3125 -3.234375 C 7.945312 -3.234375 8.4375 -3.425781 8.78125 -3.8125 C 9.132812 -4.195312 9.3125 -4.695312 9.3125 -5.3125 Z M 9.3125 -20.3125 "/></g></g><g style="fill:#ff3131;fill-opacity:1;"><g transform="translate(105.88904, 48.35857)"><path style="stroke:none" d="M 5.5 -22.078125 L 5.5 -14.6875 L 9.921875 -14.6875 L 9.921875 -11.1875 L 5.5 -11.1875 L 5.5 0 L 1.421875 0 L 1.421875 -25.625 L 11.390625 -25.625 L 11.390625 -22.078125 Z M 5.5 -22.078125 "/></g></g><g style="fill:#ff3131;fill-opacity:1;"><g transform="translate(116.57848, 48.35857)"><path style="stroke:none" d="M 8.34375 -21.890625 L 8.34375 0 L 4.265625 0 L 4.265625 -21.890625 L 0.3125 -21.890625 L 0.3125 -25.625 L 12.234375 -25.625 L 12.234375 -21.890625 Z M 8.34375 -21.890625 "/></g></g><g style="fill:#ff3131;fill-opacity:1;"><g transform="translate(127.998537, 48.35857)"><path style="stroke:none" d="M 15.578125 0 L 11.96875 0 L 9.84375 -15.234375 L 7.5 0 L 3.921875 0 L 0.1875 -25.625 L 4.234375 -25.625 L 6.078125 -8.5 L 8.5 -25.625 L 11.65625 -25.625 L 13.8125 -8.5 L 15.890625 -25.625 L 19.65625 -25.625 Z M 15.578125 0 "/></g></g><g style="fill:#ff3131;fill-opacity:1;"><g transform="translate(145.916935, 48.35857)"><path style="stroke:none" d="M 9.046875 0 L 8.390625 -5 L 4.65625 -5 L 3.890625 0 L 0.15625 0 L 4.421875 -25.625 L 8.921875 -25.625 L 13.1875 0 Z M 6.65625 -18.890625 L 5.15625 -8.421875 L 7.921875 -8.421875 Z M 6.65625 -18.890625 "/></g></g><g style="fill:#ff3131;fill-opacity:1;"><g transform="translate(158.106043, 48.35857)"><path style="stroke:none" d="M 11.34375 0.109375 C 10.550781 0.109375 9.988281 -0.226562 9.65625 -0.90625 C 9.320312 -1.582031 9.15625 -2.421875 9.15625 -3.421875 L 9.15625 -8.921875 C 9.15625 -9.429688 9.019531 -9.875 8.75 -10.25 C 8.476562 -10.625 8.0625 -10.8125 7.5 -10.8125 L 5.5 -10.8125 L 5.5 0 L 1.421875 0 L 1.421875 -25.625 L 7.96875 -25.625 C 8.6875 -25.625 9.351562 -25.519531 9.96875 -25.3125 C 10.582031 -25.101562 11.113281 -24.796875 11.5625 -24.390625 C 12.007812 -23.984375 12.359375 -23.460938 12.609375 -22.828125 C 12.867188 -22.203125 13 -21.453125 13 -20.578125 L 13 -16.046875 C 13 -15.171875 12.800781 -14.425781 12.40625 -13.8125 C 12.007812 -13.195312 11.398438 -12.734375 10.578125 -12.421875 C 11.398438 -12.140625 12.019531 -11.675781 12.4375 -11.03125 C 12.863281 -10.394531 13.078125 -9.679688 13.078125 -8.890625 L 13.078125 -3.65625 C 13.078125 -3.0625 13.140625 -2.554688 13.265625 -2.140625 C 13.398438 -1.734375 13.59375 -1.363281 13.84375 -1.03125 L 13.84375 0.109375 Z M 9 -20.46875 C 9 -21.570312 8.535156 -22.125 7.609375 -22.125 L 5.5 -22.125 L 5.5 -14 L 7.46875 -14 C 8.488281 -14 9 -14.601562 9 -15.8125 Z M 9 -20.46875 "/></g></g><g style="fill:#ff3131;fill-opacity:1;"><g transform="translate(171.256466, 48.35857)"><path style="stroke:none" d="M 1.421875 0 L 1.421875 -25.625 L 11.65625 -25.625 L 11.65625 -22 L 5.5 -22 L 5.5 -14.921875 L 9.765625 -14.921875 L 9.765625 -11.546875 L 5.5 -11.546875 L 5.5 -3.734375 L 11.65625 -3.734375 L 11.65625 0 Z M 1.421875 0 "/></g></g><g clip-rule="nonzero" clip-path="url(#59d85eca1f)"><g clip-rule="nonzero" clip-path="url(#6d3c3da606)"><path style=" stroke:none;fill-rule:nonzero;fill:url(#6c56fd257f);" d="M 29.011719 51.085938 L 29.011719 58.015625 L 187 58.015625 L 187 51.085938 Z M 29.011719 51.085938 "/></g></g><g style="fill:#ffffff;fill-opacity:1;"><g transform="translate(27.626067, 48.83603)"><path style="stroke:none" d="M 9.734375 0 L 6.890625 -10.65625 L 5.5 -6.96875 L 5.5 0 L 1.421875 0 L 1.421875 -25.625 L 5.5 -25.625 L 5.5 -13.578125 L 9.734375 -25.625 L 13.765625 -25.625 L 9.65625 -14.734375 L 13.921875 0 Z M 9.734375 0 "/></g></g><g style="fill:#ffffff;fill-opacity:1;"><g transform="translate(40.661141, 48.83603)"><path style="stroke:none" d="M 11.34375 0.109375 C 10.550781 0.109375 9.988281 -0.226562 9.65625 -0.90625 C 9.320312 -1.582031 9.15625 -2.421875 9.15625 -3.421875 L 9.15625 -8.921875 C 9.15625 -9.429688 9.019531 -9.875 8.75 -10.25 C 8.476562 -10.625 8.0625 -10.8125 7.5 -10.8125 L 5.5 -10.8125 L 5.5 0 L 1.421875 0 L 1.421875 -25.625 L 7.96875 -25.625 C 8.6875 -25.625 9.351562 -25.519531 9.96875 -25.3125 C 10.582031 -25.101562 11.113281 -24.796875 11.5625 -24.390625 C 12.007812 -23.984375 12.359375 -23.460938 12.609375 -22.828125 C 12.867188 -22.203125 13 -21.453125 13 -20.578125 L 13 -16.046875 C 13 -15.171875 12.800781 -14.425781 12.40625 -13.8125 C 12.007812 -13.195312 11.398438 -12.734375 10.578125 -12.421875 C 11.398438 -12.140625 12.019531 -11.675781 12.4375 -11.03125 C 12.863281 -10.394531 13.078125 -9.679688 13.078125 -8.890625 L 13.078125 -3.65625 C 13.078125 -3.0625 13.140625 -2.554688 13.265625 -2.140625 C 13.398438 -1.734375 13.59375 -1.363281 13.84375 -1.03125 L 13.84375 0.109375 Z M 9 -20.46875 C 9 -21.570312 8.535156 -22.125 7.609375 -22.125 L 5.5 -22.125 L 5.5 -14 L 7.46875 -14 C 8.488281 -14 9 -14.601562 9 -15.8125 Z M 9 -20.46875 "/></g></g><g style="fill:#ffffff;fill-opacity:1;"><g transform="translate(53.811563, 48.83603)"><path style="stroke:none" d="M 1.421875 0 L 1.421875 -25.625 L 11.65625 -25.625 L 11.65625 -22 L 5.5 -22 L 5.5 -14.921875 L 9.765625 -14.921875 L 9.765625 -11.546875 L 5.5 -11.546875 L 5.5 -3.734375 L 11.65625 -3.734375 L 11.65625 0 Z M 1.421875 0 "/></g></g><g style="fill:#ffffff;fill-opacity:1;"><g transform="translate(65.077807, 48.83603)"><path style="stroke:none" d="M 12.96875 -15.265625 C 12.96875 -13.503906 12.5 -12.207031 11.5625 -11.375 C 10.625 -10.539062 9.425781 -10.125 7.96875 -10.125 L 5.5 -10.125 L 5.5 0 L 1.421875 0 L 1.421875 -25.625 L 7.96875 -25.625 C 9.425781 -25.625 10.625 -25.207031 11.5625 -24.375 C 12.5 -23.539062 12.96875 -22.222656 12.96875 -20.421875 Z M 9 -20.421875 C 9 -21.554688 8.535156 -22.125 7.609375 -22.125 L 5.5 -22.125 L 5.5 -13.390625 L 7.609375 -13.390625 C 8.535156 -13.390625 9 -13.953125 9 -15.078125 Z M 9 -20.421875 "/></g></g><g style="fill:#ffffff;fill-opacity:1;"><g transform="translate(77.655577, 48.83603)"><path style="stroke:none" d=""/></g></g><g style="fill:#ffffff;fill-opacity:1;"><g transform="translate(81.577322, 48.83603)"><path style="stroke:none" d=""/></g></g><g clip-rule="nonzero" clip-path="url(#e611923b84)"><path style=" stroke:none;fill-rule:evenodd;fill:#ffffff;fill-opacity:1;" d="M 10.898438 34.726562 C 10.617188 34.519531 10.359375 34.285156 10.125 34.019531 C 9.894531 33.757812 9.691406 33.476562 9.519531 33.167969 C 9.34375 32.863281 9.207031 32.546875 9.101562 32.210938 C 8.996094 31.875 8.925781 31.535156 8.890625 31.1875 C 8.855469 30.835938 8.859375 30.488281 8.894531 30.140625 C 8.933594 29.792969 9.007812 29.453125 9.117188 29.117188 C 9.230469 28.785156 9.371094 28.46875 9.546875 28.164062 C 9.726562 27.863281 9.929688 27.582031 10.167969 27.320312 C 10.402344 27.0625 10.660156 26.828125 10.945312 26.621094 C 11.230469 26.417969 11.53125 26.242188 11.851562 26.101562 C 12.171875 25.960938 12.503906 25.851562 12.847656 25.78125 C 13.191406 25.707031 13.539062 25.671875 13.886719 25.671875 C 14.238281 25.671875 14.585938 25.707031 14.929688 25.78125 C 15.273438 25.851562 15.601562 25.960938 15.925781 26.101562 C 16.246094 26.242188 16.546875 26.417969 16.832031 26.621094 C 17.113281 26.828125 17.375 27.0625 17.609375 27.320312 C 17.847656 27.582031 18.050781 27.863281 18.226562 28.164062 C 18.40625 28.46875 18.546875 28.785156 18.65625 29.117188 C 18.769531 29.453125 18.84375 29.792969 18.878906 30.140625 C 18.917969 30.488281 18.921875 30.835938 18.886719 31.1875 C 18.851562 31.535156 18.78125 31.875 18.675781 32.210938 C 18.570312 32.546875 18.429688 32.863281 18.257812 33.167969 C 18.085938 33.476562 17.882812 33.757812 17.652344 34.019531 C 17.417969 34.285156 17.160156 34.519531 16.878906 34.726562 L 15.136719 36.019531 C 14.953125 36.160156 14.800781 36.328125 14.675781 36.523438 C 14.550781 36.722656 14.46875 36.933594 14.421875 37.164062 C 14.375 37.390625 14.371094 37.621094 14.410156 37.851562 C 14.449219 38.078125 14.523438 38.292969 14.640625 38.496094 C 14.757812 38.699219 14.90625 38.871094 15.085938 39.019531 C 15.265625 39.167969 15.464844 39.277344 15.6875 39.351562 C 15.90625 39.425781 16.132812 39.460938 16.367188 39.449219 C 16.597656 39.441406 16.820312 39.394531 17.035156 39.304688 L 19.023438 38.441406 C 19.34375 38.300781 19.675781 38.199219 20.019531 38.128906 C 20.363281 38.058594 20.710938 38.023438 21.0625 38.027344 C 21.410156 38.03125 21.757812 38.070312 22.101562 38.144531 C 22.441406 38.21875 22.773438 38.328125 23.09375 38.476562 C 23.414062 38.621094 23.714844 38.796875 23.996094 39.003906 C 24.277344 39.210938 24.535156 39.445312 24.769531 39.707031 C 25.003906 39.96875 25.207031 40.253906 25.378906 40.554688 C 25.554688 40.859375 25.695312 41.179688 25.800781 41.515625 C 25.910156 41.847656 25.980469 42.1875 26.015625 42.539062 C 26.054688 42.886719 26.050781 43.234375 26.015625 43.582031 C 25.976562 43.933594 25.90625 44.273438 25.796875 44.605469 C 25.6875 44.941406 25.546875 45.257812 25.371094 45.5625 C 25.195312 45.867188 24.988281 46.148438 24.753906 46.410156 C 24.519531 46.667969 24.261719 46.902344 23.976562 47.109375 C 23.695312 47.316406 23.394531 47.492188 23.074219 47.632812 C 22.753906 47.777344 22.421875 47.886719 22.078125 47.960938 C 21.734375 48.035156 21.390625 48.070312 21.039062 48.074219 C 20.6875 48.074219 20.339844 48.039062 20 47.96875 C 19.65625 47.894531 19.324219 47.789062 19 47.648438 C 18.679688 47.507812 18.378906 47.335938 18.09375 47.132812 C 17.808594 46.925781 17.546875 46.695312 17.3125 46.4375 C 17.074219 46.175781 16.867188 45.898438 16.691406 45.59375 C 16.511719 45.292969 16.367188 44.972656 16.257812 44.640625 C 16.144531 44.308594 16.070312 43.96875 16.03125 43.621094 L 15.785156 41.472656 C 15.757812 41.238281 15.691406 41.019531 15.582031 40.808594 C 15.476562 40.601562 15.332031 40.417969 15.160156 40.261719 C 14.984375 40.109375 14.785156 39.988281 14.566406 39.90625 C 14.347656 39.820312 14.121094 39.777344 13.886719 39.777344 C 13.652344 39.777344 13.425781 39.820312 13.207031 39.90625 C 12.988281 39.988281 12.789062 40.109375 12.617188 40.261719 C 12.441406 40.417969 12.300781 40.601562 12.191406 40.808594 C 12.082031 41.019531 12.015625 41.238281 11.988281 41.472656 L 11.746094 43.621094 C 11.703125 43.96875 11.628906 44.308594 11.519531 44.640625 C 11.40625 44.972656 11.261719 45.292969 11.085938 45.59375 C 10.90625 45.898438 10.699219 46.175781 10.464844 46.4375 C 10.226562 46.695312 9.964844 46.925781 9.683594 47.132812 C 9.398438 47.335938 9.09375 47.507812 8.773438 47.648438 C 8.453125 47.789062 8.121094 47.894531 7.777344 47.96875 C 7.433594 48.039062 7.085938 48.074219 6.734375 48.074219 C 6.386719 48.070312 6.039062 48.035156 5.695312 47.960938 C 5.351562 47.886719 5.019531 47.777344 4.703125 47.632812 C 4.382812 47.492188 4.078125 47.316406 3.796875 47.109375 C 3.511719 46.902344 3.253906 46.667969 3.019531 46.410156 C 2.785156 46.148438 2.578125 45.867188 2.40625 45.5625 C 2.230469 45.257812 2.085938 44.941406 1.980469 44.605469 C 1.871094 44.273438 1.796875 43.933594 1.757812 43.582031 C 1.722656 43.234375 1.722656 42.886719 1.757812 42.539062 C 1.792969 42.1875 1.863281 41.847656 1.972656 41.515625 C 2.078125 41.179688 2.21875 40.859375 2.394531 40.554688 C 2.566406 40.253906 2.773438 39.96875 3.003906 39.707031 C 3.238281 39.445312 3.496094 39.210938 3.777344 39.003906 C 4.0625 38.796875 4.363281 38.621094 4.679688 38.476562 C 5 38.328125 5.332031 38.21875 5.675781 38.144531 C 6.015625 38.070312 6.363281 38.03125 6.714844 38.027344 C 7.0625 38.023438 7.410156 38.058594 7.753906 38.128906 C 8.097656 38.199219 8.429688 38.300781 8.753906 38.441406 L 10.738281 39.304688 C 10.953125 39.394531 11.175781 39.441406 11.410156 39.449219 C 11.640625 39.460938 11.867188 39.425781 12.089844 39.351562 C 12.308594 39.277344 12.507812 39.167969 12.6875 39.019531 C 12.867188 38.871094 13.015625 38.699219 13.132812 38.496094 C 13.25 38.292969 13.328125 38.078125 13.363281 37.851562 C 13.402344 37.621094 13.398438 37.390625 13.351562 37.164062 C 13.308594 36.933594 13.222656 36.722656 13.097656 36.523438 C 12.976562 36.328125 12.820312 36.160156 12.636719 36.019531 Z M 10.898438 34.726562 "/></g><g clip-rule="nonzero" clip-path="url(#26955e40f0)"><path style=" stroke:none;fill-rule:evenodd;fill:#ff3131;fill-opacity:1;" d="M 10.898438 34.726562 C 10.617188 34.519531 10.359375 34.285156 10.125 34.019531 C 9.894531 33.757812 9.691406 33.476562 9.519531 33.167969 C 9.34375 32.863281 9.207031 32.546875 9.101562 32.210938 C 8.996094 31.875 8.925781 31.535156 8.890625 31.1875 C 8.855469 30.835938 8.859375 30.488281 8.894531 30.140625 C 8.933594 29.792969 9.007812 29.453125 9.117188 29.117188 C 9.230469 28.785156 9.371094 28.46875 9.546875 28.164062 C 9.726562 27.863281 9.929688 27.582031 10.167969 27.320312 C 10.402344 27.0625 10.660156 26.828125 10.945312 26.621094 C 11.230469 26.417969 11.53125 26.242188 11.851562 26.101562 C 12.171875 25.960938 12.503906 25.851562 12.847656 25.78125 C 13.191406 25.707031 13.539062 25.671875 13.886719 25.671875 C 14.238281 25.671875 14.585938 25.707031 14.929688 25.78125 C 15.273438 25.851562 15.601562 25.960938 15.925781 26.101562 C 16.246094 26.242188 16.546875 26.417969 16.832031 26.621094 C 17.113281 26.828125 17.375 27.0625 17.609375 27.320312 C 17.847656 27.582031 18.050781 27.863281 18.226562 28.164062 C 18.40625 28.46875 18.546875 28.785156 18.65625 29.117188 C 18.769531 29.453125 18.84375 29.792969 18.878906 30.140625 C 18.917969 30.488281 18.921875 30.835938 18.886719 31.1875 C 18.851562 31.535156 18.78125 31.875 18.675781 32.210938 C 18.570312 32.546875 18.429688 32.863281 18.257812 33.167969 C 18.085938 33.476562 17.882812 33.757812 17.652344 34.019531 C 17.417969 34.285156 17.160156 34.519531 16.878906 34.726562 L 15.136719 36.019531 C 14.953125 36.160156 14.800781 36.328125 14.675781 36.523438 C 14.550781 36.722656 14.46875 36.933594 14.421875 37.164062 C 14.375 37.390625 14.371094 37.621094 14.410156 37.851562 C 14.449219 38.078125 14.523438 38.292969 14.640625 38.496094 C 14.757812 38.699219 14.90625 38.871094 15.085938 39.019531 C 15.265625 39.167969 15.464844 39.277344 15.6875 39.351562 C 15.90625 39.425781 16.132812 39.460938 16.367188 39.449219 C 16.597656 39.441406 16.820312 39.394531 17.035156 39.304688 L 19.023438 38.441406 C 19.34375 38.300781 19.675781 38.199219 20.019531 38.128906 C 20.363281 38.058594 20.710938 38.023438 21.0625 38.027344 C 21.410156 38.03125 21.757812 38.070312 22.101562 38.144531 C 22.441406 38.21875 22.773438 38.328125 23.09375 38.476562 C 23.414062 38.621094 23.714844 38.796875 23.996094 39.003906 C 24.277344 39.210938 24.535156 39.445312 24.769531 39.707031 C 25.003906 39.96875 25.207031 40.253906 25.378906 40.554688 C 25.554688 40.859375 25.695312 41.179688 25.800781 41.515625 C 25.910156 41.847656 25.980469 42.1875 26.015625 42.539062 C 26.054688 42.886719 26.050781 43.234375 26.015625 43.582031 C 25.976562 43.933594 25.90625 44.273438 25.796875 44.605469 C 25.6875 44.941406 25.546875 45.257812 25.371094 45.5625 C 25.195312 45.867188 24.988281 46.148438 24.753906 46.410156 C 24.519531 46.667969 24.261719 46.902344 23.976562 47.109375 C 23.695312 47.316406 23.394531 47.492188 23.074219 47.632812 C 22.753906 47.777344 22.421875 47.886719 22.078125 47.960938 C 21.734375 48.035156 21.390625 48.070312 21.039062 48.074219 C 20.6875 48.074219 20.339844 48.039062 20 47.96875 C 19.65625 47.894531 19.324219 47.789062 19 47.648438 C 18.679688 47.507812 18.378906 47.335938 18.09375 47.132812 C 17.808594 46.925781 17.546875 46.695312 17.3125 46.4375 C 17.074219 46.175781 16.867188 45.898438 16.691406 45.59375 C 16.511719 45.292969 16.367188 44.972656 16.257812 44.640625 C 16.144531 44.308594 16.070312 43.96875 16.03125 43.621094 L 15.785156 41.472656 C 15.757812 41.238281 15.691406 41.019531 15.582031 40.808594 C 15.476562 40.601562 15.332031 40.417969 15.160156 40.261719 C 14.984375 40.109375 14.785156 39.988281 14.566406 39.90625 C 14.347656 39.820312 14.121094 39.777344 13.886719 39.777344 C 13.652344 39.777344 13.425781 39.820312 13.207031 39.90625 C 12.988281 39.988281 12.789062 40.109375 12.617188 40.261719 C 12.441406 40.417969 12.300781 40.601562 12.191406 40.808594 C 12.082031 41.019531 12.015625 41.238281 11.988281 41.472656 L 11.746094 43.621094 C 11.703125 43.96875 11.628906 44.308594 11.519531 44.640625 C 11.40625 44.972656 11.261719 45.292969 11.085938 45.59375 C 10.90625 45.898438 10.699219 46.175781 10.464844 46.4375 C 10.226562 46.695312 9.964844 46.925781 9.683594 47.132812 C 9.398438 47.335938 9.09375 47.507812 8.773438 47.648438 C 8.453125 47.789062 8.121094 47.894531 7.777344 47.96875 C 7.433594 48.039062 7.085938 48.074219 6.734375 48.074219 C 6.386719 48.070312 6.039062 48.035156 5.695312 47.960938 C 5.351562 47.886719 5.019531 47.777344 4.703125 47.632812 C 4.382812 47.492188 4.078125 47.316406 3.796875 47.109375 C 3.511719 46.902344 3.253906 46.667969 3.019531 46.410156 C 2.785156 46.148438 2.578125 45.867188 2.40625 45.5625 C 2.230469 45.257812 2.085938 44.941406 1.980469 44.605469 C 1.871094 44.273438 1.796875 43.933594 1.757812 43.582031 C 1.722656 43.234375 1.722656 42.886719 1.757812 42.539062 C 1.792969 42.1875 1.863281 41.847656 1.972656 41.515625 C 2.078125 41.179688 2.21875 40.859375 2.394531 40.554688 C 2.566406 40.253906 2.773438 39.96875 3.003906 39.707031 C 3.238281 39.445312 3.496094 39.210938 3.777344 39.003906 C 4.0625 38.796875 4.363281 38.621094 4.679688 38.476562 C 5 38.328125 5.332031 38.21875 5.675781 38.144531 C 6.015625 38.070312 6.363281 38.03125 6.714844 38.027344 C 7.0625 38.023438 7.410156 38.058594 7.753906 38.128906 C 8.097656 38.199219 8.429688 38.300781 8.753906 38.441406 L 10.738281 39.304688 C 10.953125 39.394531 11.175781 39.441406 11.410156 39.449219 C 11.640625 39.460938 11.867188 39.425781 12.089844 39.351562 C 12.308594 39.277344 12.507812 39.167969 12.6875 39.019531 C 12.867188 38.871094 13.015625 38.699219 13.132812 38.496094 C 13.25 38.292969 13.328125 38.078125 13.363281 37.851562 C 13.402344 37.621094 13.398438 37.390625 13.351562 37.164062 C 13.308594 36.933594 13.222656 36.722656 13.097656 36.523438 C 12.976562 36.328125 12.820312 36.160156 12.636719 36.019531 Z M 10.898438 34.726562 "/></g><g clip-rule="nonzero" clip-path="url(#3b68499dab)"><path style=" stroke:none;fill-rule:evenodd;fill:#016e01;fill-opacity:1;" d="M 10.800781 34.726562 C 10.519531 34.519531 10.261719 34.285156 10.03125 34.019531 C 9.796875 33.757812 9.59375 33.476562 9.421875 33.167969 C 9.25 32.863281 9.109375 32.546875 9.003906 32.210938 C 8.898438 31.875 8.828125 31.535156 8.792969 31.1875 C 8.757812 30.835938 8.761719 30.488281 8.800781 30.140625 C 8.839844 29.792969 8.914062 29.453125 9.023438 29.117188 C 9.132812 28.785156 9.277344 28.46875 9.453125 28.164062 C 9.628906 27.863281 9.835938 27.582031 10.070312 27.320312 C 10.304688 27.0625 10.566406 26.828125 10.847656 26.621094 C 11.132812 26.417969 11.4375 26.242188 11.757812 26.101562 C 12.078125 25.960938 12.410156 25.851562 12.75 25.78125 C 13.09375 25.707031 13.441406 25.671875 13.792969 25.671875 C 14.140625 25.671875 14.488281 25.707031 14.832031 25.78125 C 15.175781 25.851562 15.507812 25.960938 15.828125 26.101562 C 16.148438 26.242188 16.449219 26.417969 16.734375 26.621094 C 17.019531 26.828125 17.277344 27.0625 17.515625 27.320312 C 17.75 27.582031 17.953125 27.863281 18.132812 28.164062 C 18.308594 28.46875 18.453125 28.785156 18.5625 29.117188 C 18.671875 29.453125 18.746094 29.792969 18.785156 30.140625 C 18.824219 30.488281 18.824219 30.835938 18.789062 31.1875 C 18.757812 31.535156 18.6875 31.875 18.578125 32.210938 C 18.472656 32.546875 18.335938 32.863281 18.160156 33.167969 C 17.988281 33.476562 17.785156 33.757812 17.554688 34.019531 C 17.320312 34.285156 17.066406 34.519531 16.785156 34.726562 L 15.042969 36.019531 C 14.855469 36.160156 14.703125 36.328125 14.578125 36.523438 C 14.457031 36.722656 14.371094 36.933594 14.324219 37.164062 C 14.28125 37.390625 14.273438 37.621094 14.3125 37.851562 C 14.351562 38.078125 14.429688 38.292969 14.542969 38.496094 C 14.660156 38.699219 14.808594 38.871094 14.988281 39.019531 C 15.167969 39.167969 15.367188 39.277344 15.589844 39.351562 C 15.808594 39.425781 16.035156 39.460938 16.269531 39.449219 C 16.5 39.441406 16.726562 39.394531 16.941406 39.304688 L 18.925781 38.441406 C 19.246094 38.300781 19.578125 38.199219 19.921875 38.128906 C 20.265625 38.058594 20.613281 38.023438 20.964844 38.027344 C 21.316406 38.03125 21.660156 38.070312 22.003906 38.144531 C 22.347656 38.21875 22.675781 38.328125 22.996094 38.476562 C 23.316406 38.621094 23.617188 38.796875 23.898438 39.003906 C 24.183594 39.210938 24.441406 39.445312 24.671875 39.707031 C 24.90625 39.96875 25.109375 40.253906 25.285156 40.554688 C 25.457031 40.859375 25.597656 41.179688 25.707031 41.515625 C 25.8125 41.847656 25.882812 42.1875 25.921875 42.539062 C 25.957031 42.886719 25.957031 43.234375 25.917969 43.582031 C 25.882812 43.933594 25.808594 44.273438 25.699219 44.605469 C 25.589844 44.941406 25.449219 45.257812 25.273438 45.5625 C 25.097656 45.867188 24.894531 46.148438 24.660156 46.410156 C 24.425781 46.667969 24.164062 46.902344 23.882812 47.109375 C 23.597656 47.316406 23.296875 47.492188 22.976562 47.632812 C 22.65625 47.777344 22.324219 47.886719 21.980469 47.960938 C 21.640625 48.035156 21.292969 48.070312 20.941406 48.074219 C 20.589844 48.074219 20.246094 48.039062 19.902344 47.96875 C 19.558594 47.894531 19.226562 47.789062 18.90625 47.648438 C 18.582031 47.507812 18.28125 47.335938 17.996094 47.132812 C 17.710938 46.925781 17.449219 46.695312 17.214844 46.4375 C 16.976562 46.175781 16.769531 45.898438 16.59375 45.59375 C 16.414062 45.292969 16.269531 44.972656 16.160156 44.640625 C 16.046875 44.308594 15.972656 43.96875 15.933594 43.621094 L 15.6875 41.472656 C 15.660156 41.238281 15.59375 41.019531 15.484375 40.808594 C 15.378906 40.601562 15.238281 40.417969 15.0625 40.261719 C 14.886719 40.109375 14.691406 39.988281 14.472656 39.90625 C 14.25 39.820312 14.023438 39.777344 13.789062 39.777344 C 13.554688 39.777344 13.328125 39.820312 13.109375 39.90625 C 12.890625 39.988281 12.695312 40.109375 12.519531 40.261719 C 12.34375 40.417969 12.203125 40.601562 12.09375 40.808594 C 11.988281 41.019531 11.917969 41.238281 11.894531 41.472656 L 11.648438 43.621094 C 11.609375 43.96875 11.53125 44.308594 11.421875 44.640625 C 11.308594 44.972656 11.164062 45.292969 10.988281 45.59375 C 10.808594 45.898438 10.605469 46.175781 10.367188 46.4375 C 10.128906 46.695312 9.871094 46.925781 9.585938 47.132812 C 9.300781 47.335938 8.996094 47.507812 8.675781 47.648438 C 8.355469 47.789062 8.023438 47.894531 7.679688 47.96875 C 7.335938 48.039062 6.988281 48.074219 6.640625 48.074219 C 6.289062 48.070312 5.941406 48.035156 5.597656 47.960938 C 5.257812 47.886719 4.925781 47.777344 4.605469 47.632812 C 4.285156 47.492188 3.984375 47.316406 3.699219 47.109375 C 3.417969 46.902344 3.15625 46.667969 2.921875 46.410156 C 2.6875 46.148438 2.484375 45.867188 2.308594 45.5625 C 2.132812 45.257812 1.992188 44.941406 1.882812 44.605469 C 1.773438 44.273438 1.699219 43.933594 1.664062 43.582031 C 1.625 43.234375 1.625 42.886719 1.660156 42.539062 C 1.695312 42.1875 1.769531 41.847656 1.875 41.515625 C 1.984375 41.179688 2.125 40.859375 2.296875 40.554688 C 2.472656 40.253906 2.675781 39.96875 2.910156 39.707031 C 3.140625 39.445312 3.398438 39.210938 3.683594 39.003906 C 3.964844 38.796875 4.265625 38.621094 4.585938 38.476562 C 4.902344 38.328125 5.234375 38.21875 5.578125 38.144531 C 5.917969 38.070312 6.265625 38.03125 6.617188 38.027344 C 6.96875 38.023438 7.316406 38.058594 7.660156 38.128906 C 8 38.199219 8.335938 38.300781 8.65625 38.441406 L 10.640625 39.304688 C 10.855469 39.394531 11.078125 39.441406 11.3125 39.449219 C 11.542969 39.460938 11.769531 39.425781 11.992188 39.351562 C 12.210938 39.277344 12.414062 39.167969 12.59375 39.019531 C 12.773438 38.871094 12.921875 38.699219 13.035156 38.496094 C 13.152344 38.292969 13.230469 38.078125 13.269531 37.851562 C 13.304688 37.621094 13.300781 37.390625 13.257812 37.164062 C 13.210938 36.933594 13.125 36.722656 13.003906 36.523438 C 12.878906 36.328125 12.722656 36.160156 12.539062 36.019531 Z M 10.800781 34.726562 "/></g></g></svg>