<svg xmlns="http://www.w3.org/2000/svg" xmlns:xlink="http://www.w3.org/1999/xlink" width="1024" zoomAndPan="magnify" viewBox="0 0 768 767.999994" height="1024" preserveAspectRatio="xMidYMid meet" version="1.2"><defs><clipPath id="b7147fa309"><path d="M 40 85.601562 L 687 85.601562 L 687 682 L 40 682 Z M 40 85.601562 "/></clipPath><clipPath id="1f8beb36b1"><path d="M 40 399.171875 L 346.234375 399.171875 L 346.234375 682 L 40 682 Z M 40 399.171875 "/></clipPath><clipPath id="1c716b5278"><path d="M 397.246094 409.238281 L 685 409.238281 L 685 682 L 397.246094 682 Z M 397.246094 409.238281 "/></clipPath></defs><g id="486c7eebb0"><g clip-rule="nonzero" clip-path="url(#b7147fa309)"><path style=" stroke:none;fill-rule:evenodd;fill:#101010;fill-opacity:1;" d="M 284.257812 326.457031 C 282.390625 325.074219 280.5625 323.644531 278.773438 322.164062 C 276.980469 320.6875 275.230469 319.164062 273.519531 317.59375 C 271.808594 316.023438 270.136719 314.410156 268.511719 312.75 C 266.882812 311.09375 265.300781 309.394531 263.761719 307.65625 C 262.222656 305.917969 260.730469 304.136719 259.285156 302.320312 C 257.839844 300.503906 256.441406 298.648438 255.09375 296.757812 C 253.742188 294.867188 252.445312 292.945312 251.195312 290.984375 C 249.945312 289.027344 248.75 287.039062 247.605469 285.019531 C 246.460938 282.996094 245.367188 280.949219 244.332031 278.871094 C 243.292969 276.792969 242.308594 274.6875 241.382812 272.558594 C 240.453125 270.433594 239.582031 268.28125 238.765625 266.105469 C 237.949219 263.929688 237.1875 261.738281 236.488281 259.523438 C 235.785156 257.308594 235.140625 255.078125 234.558594 252.832031 C 233.972656 250.582031 233.445312 248.320312 232.976562 246.046875 C 232.511719 243.773438 232.101562 241.484375 231.753906 239.191406 C 231.40625 236.894531 231.121094 234.589844 230.890625 232.277344 C 230.664062 229.96875 230.496094 227.652344 230.390625 225.332031 C 230.28125 223.011719 230.234375 220.691406 230.25 218.367188 C 230.265625 216.046875 230.339844 213.726562 230.472656 211.40625 C 230.609375 209.085938 230.804688 206.773438 231.058594 204.464844 C 231.316406 202.15625 231.632812 199.859375 232.007812 197.566406 C 232.382812 195.273438 232.816406 192.992188 233.3125 190.722656 C 233.808594 188.453125 234.363281 186.199219 234.972656 183.960938 C 235.585938 181.71875 236.257812 179.496094 236.984375 177.292969 C 237.714844 175.085938 238.5 172.902344 239.339844 170.738281 C 240.183594 168.574219 241.082031 166.429688 242.035156 164.3125 C 242.988281 162.195312 244 160.105469 245.0625 158.039062 C 246.125 155.976562 247.242188 153.941406 248.410156 151.933594 C 249.578125 149.925781 250.800781 147.953125 252.074219 146.007812 C 253.34375 144.066406 254.667969 142.15625 256.039062 140.285156 C 257.410156 138.410156 258.832031 136.574219 260.296875 134.773438 C 261.765625 132.972656 263.28125 131.210938 264.839844 129.492188 C 266.398438 127.769531 268.003906 126.089844 269.648438 124.453125 C 271.296875 122.816406 272.984375 121.222656 274.714844 119.675781 C 276.445312 118.125 278.214844 116.621094 280.023438 115.164062 C 281.832031 113.707031 283.679688 112.300781 285.5625 110.9375 C 287.445312 109.578125 289.359375 108.269531 291.3125 107.007812 C 293.261719 105.746094 295.242188 104.539062 297.257812 103.378906 C 299.269531 102.222656 301.3125 101.121094 303.382812 100.070312 C 305.457031 99.019531 307.554688 98.023438 309.675781 97.082031 C 311.800781 96.140625 313.945312 95.253906 316.117188 94.425781 C 318.285156 93.597656 320.472656 92.824219 322.683594 92.109375 C 324.894531 91.394531 327.121094 90.738281 329.363281 90.136719 C 331.609375 89.539062 333.867188 89 336.140625 88.519531 C 338.410156 88.039062 340.695312 87.617188 342.988281 87.253906 C 345.28125 86.890625 347.585938 86.589844 349.894531 86.347656 C 352.203125 86.105469 354.519531 85.925781 356.839844 85.804688 C 359.15625 85.683594 361.476562 85.621094 363.800781 85.621094 C 366.125 85.621094 368.445312 85.683594 370.761719 85.804688 C 373.082031 85.925781 375.398438 86.105469 377.707031 86.347656 C 380.015625 86.589844 382.320312 86.890625 384.613281 87.253906 C 386.90625 87.617188 389.191406 88.039062 391.460938 88.519531 C 393.734375 89 395.992188 89.539062 398.238281 90.136719 C 400.480469 90.738281 402.707031 91.394531 404.917969 92.109375 C 407.128906 92.824219 409.316406 93.597656 411.484375 94.425781 C 413.65625 95.253906 415.800781 96.140625 417.925781 97.082031 C 420.046875 98.023438 422.144531 99.019531 424.214844 100.070312 C 426.289062 101.121094 428.332031 102.222656 430.34375 103.378906 C 432.359375 104.539062 434.339844 105.746094 436.289062 107.007812 C 438.242188 108.269531 440.15625 109.578125 442.039062 110.9375 C 443.921875 112.300781 445.769531 113.707031 447.578125 115.164062 C 449.386719 116.621094 451.15625 118.125 452.886719 119.675781 C 454.617188 121.222656 456.304688 122.816406 457.953125 124.453125 C 459.597656 126.089844 461.203125 127.769531 462.761719 129.492188 C 464.320312 131.210938 465.835938 132.972656 467.300781 134.773438 C 468.769531 136.574219 470.191406 138.410156 471.5625 140.285156 C 472.933594 142.15625 474.257812 144.066406 475.527344 146.007812 C 476.800781 147.953125 478.023438 149.925781 479.191406 151.933594 C 480.359375 153.941406 481.476562 155.976562 482.539062 158.039062 C 483.601562 160.105469 484.613281 162.195312 485.566406 164.3125 C 486.519531 166.429688 487.417969 168.574219 488.261719 170.738281 C 489.101562 172.902344 489.886719 175.085938 490.617188 177.292969 C 491.34375 179.496094 492.015625 181.71875 492.628906 183.960938 C 493.238281 186.199219 493.792969 188.453125 494.289062 190.722656 C 494.785156 192.992188 495.21875 195.273438 495.59375 197.566406 C 495.96875 199.859375 496.285156 202.15625 496.542969 204.464844 C 496.796875 206.773438 496.992188 209.085938 497.128906 211.40625 C 497.261719 213.726562 497.335938 216.046875 497.351562 218.367188 C 497.367188 220.691406 497.320312 223.011719 497.210938 225.332031 C 497.105469 227.652344 496.9375 229.96875 496.710938 232.277344 C 496.480469 234.589844 496.195312 236.894531 495.847656 239.191406 C 495.5 241.484375 495.089844 243.773438 494.625 246.046875 C 494.15625 248.320312 493.628906 250.582031 493.042969 252.832031 C 492.460938 255.078125 491.816406 257.308594 491.113281 259.523438 C 490.414062 261.738281 489.652344 263.929688 488.835938 266.105469 C 488.019531 268.28125 487.148438 270.433594 486.21875 272.558594 C 485.292969 274.6875 484.308594 276.792969 483.269531 278.871094 C 482.234375 280.949219 481.140625 282.996094 479.996094 285.019531 C 478.851562 287.039062 477.65625 289.027344 476.40625 290.984375 C 475.15625 292.945312 473.859375 294.867188 472.507812 296.757812 C 471.160156 298.648438 469.761719 300.503906 468.316406 302.320312 C 466.871094 304.136719 465.378906 305.917969 463.839844 307.65625 C 462.300781 309.394531 460.71875 311.09375 459.089844 312.75 C 457.464844 314.410156 455.792969 316.023438 454.082031 317.59375 C 452.371094 319.164062 450.621094 320.6875 448.828125 322.164062 C 447.039062 323.644531 445.210938 325.074219 443.34375 326.457031 L 397.039062 360.738281 C 395.820312 361.667969 394.648438 362.648438 393.515625 363.679688 C 392.386719 364.714844 391.308594 365.796875 390.273438 366.925781 C 389.242188 368.058594 388.265625 369.234375 387.339844 370.453125 C 386.414062 371.671875 385.542969 372.929688 384.730469 374.226562 C 383.917969 375.523438 383.167969 376.855469 382.476562 378.222656 C 381.785156 379.585938 381.15625 380.980469 380.589844 382.40625 C 380.023438 383.828125 379.523438 385.273438 379.085938 386.738281 C 378.652344 388.207031 378.28125 389.691406 377.980469 391.191406 C 377.679688 392.695312 377.445312 394.203125 377.28125 395.726562 C 377.117188 397.25 377.019531 398.773438 376.992188 400.304688 C 376.964844 401.835938 377.007812 403.367188 377.117188 404.890625 C 377.230469 406.417969 377.410156 407.9375 377.65625 409.449219 C 377.90625 410.960938 378.222656 412.457031 378.605469 413.9375 C 378.988281 415.421875 379.4375 416.882812 379.953125 418.324219 C 380.46875 419.765625 381.046875 421.179688 381.691406 422.570312 C 382.332031 423.960938 383.039062 425.316406 383.804688 426.640625 C 384.570312 427.96875 385.394531 429.257812 386.273438 430.507812 C 387.15625 431.757812 388.09375 432.96875 389.085938 434.132812 C 390.078125 435.300781 391.117188 436.421875 392.210938 437.492188 C 393.304688 438.566406 394.441406 439.585938 395.625 440.558594 C 396.8125 441.527344 398.035156 442.441406 399.304688 443.300781 C 400.570312 444.160156 401.875 444.960938 403.214844 445.699219 C 404.554688 446.441406 405.921875 447.121094 407.324219 447.738281 C 408.726562 448.355469 410.152344 448.910156 411.601562 449.398438 C 413.050781 449.886719 414.523438 450.308594 416.011719 450.667969 C 417.5 451.023438 419.003906 451.3125 420.515625 451.53125 C 422.03125 451.75 423.554688 451.902344 425.082031 451.988281 C 426.609375 452.070312 428.140625 452.082031 429.671875 452.027344 C 431.199219 451.972656 432.722656 451.847656 434.242188 451.65625 C 435.761719 451.464844 437.269531 451.203125 438.765625 450.875 C 440.257812 450.546875 441.738281 450.148438 443.195312 449.6875 C 444.65625 449.226562 446.089844 448.699219 447.503906 448.105469 L 500.289062 425.195312 C 502.417969 424.269531 504.574219 423.402344 506.75 422.589844 C 508.925781 421.777344 511.121094 421.023438 513.335938 420.328125 C 515.550781 419.628906 517.785156 418.992188 520.035156 418.410156 C 522.28125 417.828125 524.546875 417.308594 526.820312 416.84375 C 529.097656 416.382812 531.382812 415.976562 533.679688 415.632812 C 535.980469 415.289062 538.285156 415.007812 540.59375 414.785156 C 542.90625 414.5625 545.222656 414.398438 547.542969 414.296875 C 549.863281 414.191406 552.1875 414.152344 554.507812 414.167969 C 556.832031 414.1875 559.152344 414.269531 561.472656 414.40625 C 563.789062 414.546875 566.101562 414.746094 568.410156 415.007812 C 570.71875 415.269531 573.019531 415.589844 575.308594 415.96875 C 577.601562 416.351562 579.882812 416.789062 582.148438 417.289062 C 584.417969 417.789062 586.671875 418.347656 588.910156 418.964844 C 591.152344 419.582031 593.371094 420.257812 595.578125 420.988281 C 597.78125 421.722656 599.964844 422.511719 602.128906 423.359375 C 604.289062 424.207031 606.429688 425.109375 608.546875 426.066406 C 610.660156 427.023438 612.75 428.039062 614.8125 429.105469 C 616.875 430.171875 618.910156 431.292969 620.914062 432.46875 C 622.917969 433.640625 624.890625 434.867188 626.832031 436.144531 C 628.773438 437.417969 630.679688 438.746094 632.550781 440.121094 C 634.421875 441.496094 636.253906 442.921875 638.050781 444.394531 C 639.847656 445.863281 641.605469 447.382812 643.324219 448.945312 C 645.042969 450.507812 646.71875 452.117188 648.351562 453.765625 C 649.988281 455.417969 651.578125 457.109375 653.121094 458.84375 C 654.667969 460.578125 656.167969 462.351562 657.621094 464.164062 C 659.074219 465.972656 660.480469 467.824219 661.835938 469.707031 C 663.191406 471.59375 664.5 473.511719 665.753906 475.464844 C 667.011719 477.421875 668.21875 479.40625 669.371094 481.421875 C 670.523438 483.4375 671.621094 485.484375 672.667969 487.554688 C 673.714844 489.628906 674.707031 491.730469 675.644531 493.855469 C 676.582031 495.980469 677.460938 498.128906 678.285156 500.300781 C 679.109375 502.472656 679.878906 504.664062 680.589844 506.875 C 681.300781 509.085938 681.953125 511.316406 682.546875 513.5625 C 683.140625 515.804688 683.675781 518.066406 684.152344 520.339844 C 684.628906 522.613281 685.042969 524.898438 685.402344 527.191406 C 685.757812 529.488281 686.054688 531.789062 686.292969 534.101562 C 686.527344 536.410156 686.703125 538.726562 686.820312 541.046875 C 686.9375 543.367188 686.992188 545.6875 686.988281 548.011719 C 686.980469 550.332031 686.917969 552.652344 686.789062 554.972656 C 686.664062 557.292969 686.476562 559.605469 686.230469 561.917969 C 685.984375 564.226562 685.675781 566.527344 685.308594 568.820312 C 684.941406 571.117188 684.515625 573.398438 684.03125 575.667969 C 683.542969 577.941406 683 580.199219 682.394531 582.441406 C 681.792969 584.683594 681.128906 586.910156 680.410156 589.117188 C 679.6875 591.324219 678.914062 593.515625 678.078125 595.683594 C 677.242188 597.847656 676.355469 599.992188 675.40625 602.117188 C 674.460938 604.238281 673.460938 606.332031 672.40625 608.402344 C 671.351562 610.46875 670.242188 612.511719 669.078125 614.523438 C 667.917969 616.535156 666.703125 618.511719 665.4375 620.460938 C 664.175781 622.410156 662.859375 624.324219 661.492188 626.203125 C 660.128906 628.082031 658.714844 629.925781 657.253906 631.730469 C 655.792969 633.535156 654.285156 635.300781 652.734375 637.027344 C 651.179688 638.753906 649.582031 640.441406 647.941406 642.085938 C 646.300781 643.726562 644.617188 645.328125 642.894531 646.882812 C 641.167969 648.441406 639.402344 649.949219 637.601562 651.414062 C 635.796875 652.878906 633.957031 654.292969 632.078125 655.660156 C 630.203125 657.027344 628.289062 658.347656 626.34375 659.613281 C 624.398438 660.882812 622.421875 662.097656 620.410156 663.265625 C 618.402344 664.429688 616.363281 665.539062 614.296875 666.597656 C 612.226562 667.65625 610.132812 668.660156 608.015625 669.609375 C 605.894531 670.558594 603.75 671.453125 601.585938 672.289062 C 599.417969 673.128906 597.230469 673.910156 595.023438 674.632812 C 592.816406 675.355469 590.589844 676.019531 588.347656 676.628906 C 586.105469 677.234375 583.851562 677.785156 581.582031 678.273438 C 579.308594 678.761719 577.027344 679.191406 574.734375 679.5625 C 572.441406 679.933594 570.140625 680.242188 567.832031 680.496094 C 565.523438 680.746094 563.207031 680.933594 560.890625 681.0625 C 558.570312 681.195312 556.25 681.261719 553.925781 681.273438 C 551.601562 681.28125 549.28125 681.226562 546.960938 681.117188 C 544.640625 681.003906 542.328125 680.832031 540.015625 680.597656 C 537.703125 680.363281 535.402344 680.070312 533.105469 679.714844 C 530.808594 679.363281 528.523438 678.949219 526.25 678.476562 C 523.976562 678.003906 521.714844 677.472656 519.46875 676.882812 C 517.222656 676.289062 514.992188 675.640625 512.78125 674.933594 C 510.570312 674.226562 508.375 673.464844 506.203125 672.640625 C 504.03125 671.820312 501.882812 670.945312 499.753906 670.011719 C 497.628906 669.078125 495.527344 668.085938 493.449219 667.042969 C 491.375 666 489.328125 664.90625 487.3125 663.753906 C 485.292969 662.605469 483.304688 661.402344 481.351562 660.148438 C 479.394531 658.894531 477.472656 657.589844 475.585938 656.238281 C 473.699219 654.882812 471.847656 653.480469 470.035156 652.03125 C 468.21875 650.582031 466.445312 649.082031 464.707031 647.539062 C 462.972656 645.996094 461.277344 644.410156 459.625 642.777344 C 457.972656 641.148438 456.363281 639.472656 454.796875 637.757812 C 453.230469 636.042969 451.710938 634.289062 450.234375 632.492188 C 448.761719 630.699219 447.335938 628.867188 445.957031 626.996094 C 444.578125 625.128906 443.246094 623.222656 441.96875 621.285156 C 440.6875 619.347656 439.460938 617.375 438.285156 615.371094 C 437.105469 613.371094 435.984375 611.339844 434.914062 609.277344 C 433.84375 607.214844 432.828125 605.128906 431.863281 603.011719 C 430.902344 600.898438 429.996094 598.761719 429.148438 596.597656 C 428.296875 594.4375 427.503906 592.253906 426.765625 590.050781 C 426.03125 587.847656 425.351562 585.628906 424.730469 583.390625 C 424.113281 581.152344 423.550781 578.898438 423.046875 576.632812 C 422.542969 574.363281 422.101562 572.085938 421.71875 569.792969 C 421.332031 567.503906 421.007812 565.203125 420.746094 562.894531 L 414.226562 505.742188 C 414.050781 504.210938 413.804688 502.691406 413.488281 501.179688 C 413.175781 499.671875 412.792969 498.179688 412.339844 496.703125 C 411.890625 495.230469 411.375 493.777344 410.792969 492.351562 C 410.207031 490.921875 409.5625 489.523438 408.851562 488.15625 C 408.140625 486.785156 407.371094 485.453125 406.539062 484.152344 C 405.707031 482.855469 404.820312 481.597656 403.871094 480.378906 C 402.925781 479.164062 401.925781 477.992188 400.875 476.863281 C 399.820312 475.738281 398.71875 474.660156 397.570312 473.632812 C 396.417969 472.609375 395.222656 471.636719 393.984375 470.71875 C 392.742188 469.800781 391.464844 468.941406 390.148438 468.140625 C 388.828125 467.339844 387.476562 466.601562 386.09375 465.925781 C 384.707031 465.246094 383.292969 464.632812 381.855469 464.082031 C 380.414062 463.535156 378.949219 463.050781 377.464844 462.636719 C 375.980469 462.21875 374.480469 461.871094 372.964844 461.59375 C 371.445312 461.316406 369.921875 461.105469 368.382812 460.964844 C 366.847656 460.824219 365.308594 460.753906 363.769531 460.753906 C 362.226562 460.753906 360.6875 460.824219 359.152344 460.964844 C 357.617188 461.105469 356.089844 461.316406 354.574219 461.59375 C 353.058594 461.871094 351.554688 462.21875 350.070312 462.636719 C 348.585938 463.050781 347.125 463.535156 345.683594 464.082031 C 344.242188 464.632812 342.828125 465.246094 341.445312 465.925781 C 340.058594 466.601562 338.707031 467.339844 337.390625 468.140625 C 336.070312 468.941406 334.792969 469.800781 333.554688 470.71875 C 332.3125 471.636719 331.117188 472.609375 329.96875 473.632812 C 328.816406 474.660156 327.714844 475.738281 326.660156 476.863281 C 325.609375 477.992188 324.609375 479.164062 323.664062 480.378906 C 322.71875 481.597656 321.828125 482.855469 320.996094 484.152344 C 320.164062 485.453125 319.394531 486.785156 318.683594 488.15625 C 317.972656 489.523438 317.328125 490.921875 316.746094 492.351562 C 316.160156 493.777344 315.644531 495.230469 315.195312 496.703125 C 314.746094 498.179688 314.363281 499.671875 314.046875 501.179688 C 313.730469 502.691406 313.488281 504.210938 313.3125 505.742188 L 306.789062 562.894531 C 306.527344 565.203125 306.203125 567.503906 305.820312 569.792969 C 305.433594 572.085938 304.992188 574.363281 304.488281 576.632812 C 303.984375 578.898438 303.425781 581.152344 302.804688 583.390625 C 302.183594 585.628906 301.503906 587.847656 300.769531 590.050781 C 300.03125 592.253906 299.238281 594.4375 298.390625 596.597656 C 297.539062 598.761719 296.632812 600.898438 295.671875 603.011719 C 294.710938 605.128906 293.695312 607.214844 292.625 609.277344 C 291.550781 611.339844 290.429688 613.371094 289.253906 615.371094 C 288.074219 617.375 286.847656 619.347656 285.566406 621.285156 C 284.289062 623.222656 282.960938 625.128906 281.582031 626.996094 C 280.203125 628.867188 278.777344 630.699219 277.300781 632.492188 C 275.828125 634.289062 274.304688 636.042969 272.742188 637.757812 C 271.175781 639.472656 269.566406 641.148438 267.910156 642.777344 C 266.257812 644.410156 264.5625 645.996094 262.828125 647.539062 C 261.089844 649.082031 259.316406 650.582031 257.503906 652.03125 C 255.6875 653.480469 253.835938 654.882812 251.949219 656.238281 C 250.0625 657.589844 248.140625 658.894531 246.1875 660.148438 C 244.230469 661.402344 242.242188 662.605469 240.226562 663.753906 C 238.207031 664.90625 236.160156 666 234.085938 667.042969 C 232.011719 668.085938 229.910156 669.078125 227.78125 670.011719 C 225.65625 670.945312 223.503906 671.820312 221.332031 672.640625 C 219.160156 673.464844 216.96875 674.226562 214.753906 674.933594 C 212.542969 675.640625 210.3125 676.292969 208.066406 676.882812 C 205.820312 677.472656 203.558594 678.003906 201.285156 678.476562 C 199.011719 678.949219 196.726562 679.363281 194.429688 679.714844 C 192.136719 680.070312 189.832031 680.363281 187.519531 680.597656 C 185.210938 680.832031 182.894531 681.003906 180.574219 681.117188 C 178.253906 681.226562 175.933594 681.28125 173.609375 681.273438 C 171.289062 681.261719 168.964844 681.195312 166.648438 681.0625 C 164.328125 680.933594 162.015625 680.746094 159.703125 680.496094 C 157.394531 680.242188 155.09375 679.933594 152.800781 679.5625 C 150.507812 679.191406 148.226562 678.761719 145.957031 678.273438 C 143.683594 677.785156 141.429688 677.234375 139.1875 676.628906 C 136.945312 676.019531 134.71875 675.355469 132.511719 674.632812 C 130.304688 673.910156 128.117188 673.128906 125.953125 672.289062 C 123.785156 671.453125 121.640625 670.558594 119.523438 669.609375 C 117.402344 668.660156 115.308594 667.65625 113.242188 666.597656 C 111.171875 665.539062 109.136719 664.429688 107.125 663.265625 C 105.117188 662.097656 103.136719 660.882812 101.191406 659.613281 C 99.246094 658.347656 97.335938 657.027344 95.457031 655.660156 C 93.578125 654.292969 91.738281 652.878906 89.9375 651.414062 C 88.132812 649.949219 86.367188 648.441406 84.644531 646.882812 C 82.917969 645.328125 81.234375 643.726562 79.59375 642.085938 C 77.953125 640.441406 76.355469 638.753906 74.804688 637.027344 C 73.25 635.300781 71.742188 633.535156 70.28125 631.730469 C 68.820312 629.925781 67.40625 628.082031 66.042969 626.203125 C 64.675781 624.324219 63.363281 622.410156 62.097656 620.460938 C 60.832031 618.511719 59.617188 616.535156 58.457031 614.523438 C 57.292969 612.511719 56.1875 610.46875 55.128906 608.402344 C 54.074219 606.332031 53.074219 604.238281 52.128906 602.117188 C 51.183594 599.996094 50.292969 597.847656 49.457031 595.683594 C 48.625 593.515625 47.847656 591.324219 47.128906 589.117188 C 46.40625 586.910156 45.746094 584.683594 45.140625 582.441406 C 44.539062 580.199219 43.992188 577.941406 43.507812 575.667969 C 43.019531 573.398438 42.59375 571.117188 42.226562 568.820312 C 41.859375 566.527344 41.550781 564.226562 41.304688 561.917969 C 41.058594 559.609375 40.871094 557.292969 40.746094 554.972656 C 40.621094 552.65625 40.554688 550.332031 40.550781 548.011719 C 40.542969 545.6875 40.597656 543.367188 40.714844 541.046875 C 40.832031 538.726562 41.007812 536.410156 41.246094 534.101562 C 41.480469 531.789062 41.777344 529.488281 42.136719 527.191406 C 42.492188 524.898438 42.910156 522.613281 43.386719 520.339844 C 43.863281 518.066406 44.398438 515.804688 44.992188 513.5625 C 45.585938 511.316406 46.238281 509.085938 46.949219 506.875 C 47.65625 504.664062 48.425781 502.472656 49.25 500.300781 C 50.074219 498.128906 50.957031 495.980469 51.890625 493.855469 C 52.828125 491.730469 53.820312 489.628906 54.867188 487.558594 C 55.914062 485.484375 57.011719 483.4375 58.167969 481.421875 C 59.320312 479.40625 60.523438 477.421875 61.78125 475.464844 C 63.039062 473.511719 64.34375 471.59375 65.699219 469.707031 C 67.058594 467.824219 68.460938 465.972656 69.914062 464.164062 C 71.367188 462.351562 72.867188 460.578125 74.414062 458.84375 C 75.960938 457.109375 77.550781 455.417969 79.183594 453.765625 C 80.816406 452.117188 82.492188 450.507812 84.210938 448.945312 C 85.929688 447.382812 87.6875 445.863281 89.484375 444.394531 C 91.28125 442.921875 93.117188 441.496094 94.988281 440.121094 C 96.859375 438.746094 98.765625 437.417969 100.703125 436.144531 C 102.644531 434.867188 104.617188 433.640625 106.621094 432.46875 C 108.625 431.292969 110.660156 430.171875 112.722656 429.105469 C 114.785156 428.039062 116.875 427.023438 118.992188 426.066406 C 121.105469 425.109375 123.246094 424.207031 125.410156 423.359375 C 127.570312 422.511719 129.753906 421.722656 131.960938 420.988281 C 134.164062 420.257812 136.386719 419.582031 138.625 418.964844 C 140.863281 418.347656 143.117188 417.789062 145.386719 417.289062 C 147.65625 416.789062 149.933594 416.351562 152.226562 415.96875 C 154.519531 415.589844 156.816406 415.269531 159.125 415.007812 C 161.433594 414.746094 163.746094 414.546875 166.066406 414.40625 C 168.382812 414.269531 170.703125 414.1875 173.027344 414.171875 C 175.351562 414.152344 177.671875 414.191406 179.992188 414.296875 C 182.3125 414.398438 184.628906 414.5625 186.941406 414.785156 C 189.253906 415.007812 191.558594 415.289062 193.855469 415.632812 C 196.152344 415.976562 198.4375 416.382812 200.714844 416.84375 C 202.992188 417.308594 205.253906 417.828125 207.503906 418.410156 C 209.75 418.992188 211.984375 419.628906 214.199219 420.328125 C 216.414062 421.023438 218.609375 421.777344 220.789062 422.589844 C 222.964844 423.402344 225.117188 424.269531 227.25 425.195312 L 280.03125 448.105469 C 281.445312 448.699219 282.878906 449.226562 284.339844 449.6875 C 285.800781 450.148438 287.277344 450.546875 288.773438 450.875 C 290.265625 451.203125 291.773438 451.464844 293.292969 451.65625 C 294.8125 451.847656 296.335938 451.972656 297.867188 452.027344 C 299.394531 452.082031 300.925781 452.070312 302.453125 451.988281 C 303.984375 451.902344 305.503906 451.75 307.019531 451.53125 C 308.535156 451.3125 310.035156 451.023438 311.523438 450.667969 C 313.015625 450.308594 314.484375 449.886719 315.933594 449.398438 C 317.386719 448.910156 318.8125 448.355469 320.210938 447.738281 C 321.613281 447.121094 322.984375 446.441406 324.324219 445.699219 C 325.660156 444.960938 326.964844 444.160156 328.230469 443.300781 C 329.5 442.441406 330.726562 441.527344 331.910156 440.558594 C 333.09375 439.585938 334.234375 438.566406 335.324219 437.492188 C 336.417969 436.421875 337.460938 435.300781 338.449219 434.132812 C 339.441406 432.96875 340.378906 431.757812 341.261719 430.507812 C 342.144531 429.257812 342.96875 427.96875 343.734375 426.640625 C 344.5 425.316406 345.203125 423.960938 345.847656 422.570312 C 346.488281 421.179688 347.066406 419.765625 347.582031 418.324219 C 348.097656 416.882812 348.546875 415.421875 348.929688 413.9375 C 349.316406 412.457031 349.628906 410.960938 349.878906 409.449219 C 350.125 407.9375 350.304688 406.417969 350.417969 404.890625 C 350.527344 403.367188 350.570312 401.835938 350.542969 400.304688 C 350.515625 398.773438 350.421875 397.25 350.253906 395.726562 C 350.089844 394.203125 349.855469 392.695312 349.554688 391.191406 C 349.253906 389.691406 348.886719 388.207031 348.449219 386.738281 C 348.015625 385.273438 347.515625 383.828125 346.949219 382.40625 C 346.382812 380.980469 345.753906 379.585938 345.0625 378.222656 C 344.367188 376.855469 343.617188 375.523438 342.804688 374.226562 C 341.992188 372.929688 341.125 371.671875 340.199219 370.453125 C 339.273438 369.230469 338.292969 368.058594 337.261719 366.925781 C 336.230469 365.796875 335.148438 364.714844 334.019531 363.679688 C 332.890625 362.648438 331.714844 361.667969 330.496094 360.738281 Z M 284.257812 326.457031 "/></g><g clip-rule="nonzero" clip-path="url(#1f8beb36b1)"><path style=" stroke:none;fill-rule:evenodd;fill:#ff3131;fill-opacity:1;" d="M 284.257812 326.457031 C 282.390625 325.074219 280.5625 323.644531 278.773438 322.164062 C 276.980469 320.6875 275.230469 319.164062 273.519531 317.59375 C 271.808594 316.023438 270.136719 314.410156 268.511719 312.75 C 266.882812 311.09375 265.300781 309.394531 263.761719 307.65625 C 262.222656 305.917969 260.730469 304.136719 259.285156 302.320312 C 257.839844 300.503906 256.441406 298.648438 255.09375 296.757812 C 253.742188 294.867188 252.445312 292.945312 251.195312 290.984375 C 249.945312 289.027344 248.75 287.039062 247.605469 285.019531 C 246.460938 282.996094 245.367188 280.949219 244.332031 278.871094 C 243.292969 276.792969 242.308594 274.691406 241.382812 272.5625 C 240.453125 270.433594 239.582031 268.28125 238.765625 266.105469 C 237.949219 263.929688 237.1875 261.738281 236.488281 259.523438 C 235.785156 257.308594 235.140625 255.078125 234.558594 252.832031 C 233.972656 250.582031 233.445312 248.320312 232.976562 246.046875 C 232.511719 243.773438 232.101562 241.488281 231.753906 239.191406 C 231.40625 236.894531 231.121094 234.589844 230.890625 232.277344 C 230.664062 229.96875 230.496094 227.652344 230.390625 225.332031 C 230.28125 223.011719 230.234375 220.691406 230.25 218.367188 C 230.265625 216.046875 230.339844 213.726562 230.472656 211.40625 C 230.609375 209.085938 230.804688 206.773438 231.058594 204.464844 C 231.316406 202.15625 231.632812 199.859375 232.007812 197.566406 C 232.382812 195.273438 232.816406 192.992188 233.3125 190.722656 C 233.808594 188.453125 234.363281 186.199219 234.972656 183.960938 C 235.585938 181.71875 236.257812 179.496094 236.984375 177.292969 C 237.714844 175.085938 238.5 172.902344 239.339844 170.738281 C 240.183594 168.574219 241.082031 166.429688 242.035156 164.3125 C 242.988281 162.195312 244 160.105469 245.0625 158.039062 C 246.125 155.976562 247.242188 153.941406 248.410156 151.933594 C 249.578125 149.925781 250.800781 147.953125 252.074219 146.007812 C 253.34375 144.066406 254.667969 142.15625 256.039062 140.285156 C 257.410156 138.410156 258.832031 136.574219 260.296875 134.773438 C 261.765625 132.972656 263.28125 131.210938 264.839844 129.492188 C 266.398438 127.769531 268.003906 126.089844 269.648438 124.453125 C 271.296875 122.816406 272.984375 121.222656 274.714844 119.675781 C 276.445312 118.125 278.214844 116.621094 280.023438 115.164062 C 281.832031 113.707031 283.679688 112.300781 285.5625 110.9375 C 287.445312 109.578125 289.359375 108.269531 291.3125 107.007812 C 293.261719 105.746094 295.242188 104.539062 297.257812 103.378906 C 299.269531 102.222656 301.3125 101.121094 303.382812 100.070312 C 305.457031 99.019531 307.554688 98.023438 309.675781 97.082031 C 311.800781 96.140625 313.945312 95.253906 316.117188 94.425781 C 318.285156 93.597656 320.472656 92.824219 322.683594 92.109375 C 324.894531 91.394531 327.121094 90.738281 329.363281 90.136719 C 331.609375 89.539062 333.867188 89 336.140625 88.519531 C 338.410156 88.039062 340.695312 87.617188 342.988281 87.253906 C 345.28125 86.890625 347.585938 86.589844 349.894531 86.347656 C 352.203125 86.105469 354.519531 85.925781 356.839844 85.804688 C 359.15625 85.683594 361.476562 85.621094 363.800781 85.621094 C 366.125 85.621094 368.445312 85.683594 370.761719 85.804688 C 373.082031 85.925781 375.398438 86.105469 377.707031 86.347656 C 380.015625 86.589844 382.320312 86.890625 384.613281 87.253906 C 386.90625 87.617188 389.191406 88.039062 391.460938 88.519531 C 393.734375 89 395.992188 89.539062 398.238281 90.136719 C 400.480469 90.738281 402.707031 91.394531 404.917969 92.109375 C 407.128906 92.824219 409.316406 93.597656 411.484375 94.425781 C 413.65625 95.253906 415.800781 96.140625 417.925781 97.082031 C 420.046875 98.023438 422.144531 99.019531 424.214844 100.070312 C 426.289062 101.121094 428.332031 102.222656 430.34375 103.378906 C 432.359375 104.539062 434.339844 105.746094 436.289062 107.007812 C 438.242188 108.269531 440.15625 109.578125 442.039062 110.9375 C 443.921875 112.300781 445.769531 113.707031 447.578125 115.164062 C 449.386719 116.621094 451.15625 118.125 452.886719 119.675781 C 454.617188 121.222656 456.304688 122.816406 457.953125 124.453125 C 459.597656 126.089844 461.203125 127.769531 462.761719 129.492188 C 464.320312 131.210938 465.835938 132.972656 467.300781 134.773438 C 468.769531 136.574219 470.191406 138.410156 471.5625 140.285156 C 472.933594 142.15625 474.257812 144.066406 475.527344 146.007812 C 476.800781 147.953125 478.023438 149.925781 479.191406 151.933594 C 480.359375 153.941406 481.476562 155.976562 482.539062 158.039062 C 483.601562 160.105469 484.613281 162.195312 485.566406 164.3125 C 486.519531 166.429688 487.417969 168.574219 488.261719 170.738281 C 489.101562 172.902344 489.886719 175.085938 490.617188 177.292969 C 491.34375 179.496094 492.015625 181.71875 492.628906 183.960938 C 493.238281 186.199219 493.792969 188.453125 494.289062 190.722656 C 494.785156 192.992188 495.21875 195.273438 495.59375 197.566406 C 495.96875 199.859375 496.285156 202.15625 496.542969 204.464844 C 496.796875 206.773438 496.992188 209.085938 497.128906 211.40625 C 497.261719 213.726562 497.335938 216.046875 497.351562 218.367188 C 497.367188 220.691406 497.320312 223.011719 497.210938 225.332031 C 497.105469 227.652344 496.9375 229.96875 496.710938 232.277344 C 496.480469 234.589844 496.195312 236.894531 495.847656 239.191406 C 495.5 241.488281 495.089844 243.773438 494.625 246.046875 C 494.15625 248.320312 493.628906 250.582031 493.042969 252.832031 C 492.460938 255.078125 491.816406 257.308594 491.113281 259.523438 C 490.414062 261.738281 489.652344 263.929688 488.835938 266.105469 C 488.019531 268.28125 487.148438 270.433594 486.21875 272.5625 C 485.292969 274.691406 484.308594 276.792969 483.269531 278.871094 C 482.234375 280.949219 481.140625 282.996094 479.996094 285.019531 C 478.851562 287.039062 477.65625 289.027344 476.40625 290.984375 C 475.15625 292.945312 473.859375 294.867188 472.507812 296.757812 C 471.160156 298.648438 469.761719 300.503906 468.316406 302.320312 C 466.871094 304.136719 465.378906 305.917969 463.839844 307.65625 C 462.300781 309.394531 460.71875 311.09375 459.089844 312.75 C 457.464844 314.410156 455.792969 316.023438 454.082031 317.59375 C 452.371094 319.164062 450.621094 320.6875 448.828125 322.164062 C 447.039062 323.644531 445.210938 325.074219 443.34375 326.457031 L 397.039062 360.738281 C 395.820312 361.667969 394.648438 362.648438 393.515625 363.679688 C 392.386719 364.714844 391.308594 365.796875 390.273438 366.925781 C 389.242188 368.058594 388.265625 369.234375 387.339844 370.453125 C 386.414062 371.671875 385.542969 372.929688 384.730469 374.226562 C 383.917969 375.523438 383.167969 376.855469 382.476562 378.222656 C 381.785156 379.589844 381.15625 380.980469 380.589844 382.40625 C 380.023438 383.828125 379.523438 385.273438 379.085938 386.738281 C 378.652344 388.207031 378.28125 389.691406 377.980469 391.191406 C 377.679688 392.695312 377.445312 394.203125 377.28125 395.726562 C 377.117188 397.25 377.019531 398.773438 376.992188 400.304688 C 376.964844 401.835938 377.007812 403.367188 377.117188 404.890625 C 377.230469 406.417969 377.410156 407.9375 377.65625 409.449219 C 377.90625 410.960938 378.222656 412.457031 378.605469 413.9375 C 378.988281 415.421875 379.4375 416.882812 379.953125 418.324219 C 380.46875 419.765625 381.046875 421.179688 381.691406 422.570312 C 382.332031 423.960938 383.039062 425.316406 383.804688 426.640625 C 384.570312 427.96875 385.394531 429.257812 386.273438 430.507812 C 387.15625 431.757812 388.09375 432.96875 389.085938 434.132812 C 390.078125 435.300781 391.117188 436.421875 392.210938 437.492188 C 393.304688 438.566406 394.441406 439.585938 395.625 440.558594 C 396.8125 441.527344 398.035156 442.441406 399.304688 443.300781 C 400.570312 444.160156 401.875 444.960938 403.214844 445.699219 C 404.554688 446.441406 405.921875 447.121094 407.324219 447.738281 C 408.726562 448.355469 410.152344 448.910156 411.601562 449.398438 C 413.050781 449.886719 414.523438 450.308594 416.011719 450.667969 C 417.5 451.023438 419.003906 451.3125 420.515625 451.53125 C 422.03125 451.75 423.554688 451.902344 425.082031 451.988281 C 426.609375 452.070312 428.140625 452.082031 429.671875 452.027344 C 431.199219 451.972656 432.722656 451.847656 434.242188 451.65625 C 435.761719 451.464844 437.269531 451.203125 438.765625 450.875 C 440.257812 450.546875 441.738281 450.148438 443.195312 449.6875 C 444.65625 449.226562 446.089844 448.699219 447.503906 448.105469 L 500.289062 425.195312 C 502.417969 424.269531 504.574219 423.402344 506.75 422.589844 C 508.925781 421.777344 511.121094 421.023438 513.335938 420.328125 C 515.550781 419.628906 517.785156 418.992188 520.035156 418.410156 C 522.28125 417.828125 524.546875 417.308594 526.820312 416.84375 C 529.097656 416.382812 531.382812 415.976562 533.679688 415.632812 C 535.980469 415.289062 538.285156 415.007812 540.59375 414.785156 C 542.90625 414.5625 545.222656 414.398438 547.542969 414.296875 C 549.863281 414.191406 552.1875 414.152344 554.507812 414.171875 C 556.832031 414.1875 559.152344 414.269531 561.472656 414.40625 C 563.789062 414.546875 566.101562 414.746094 568.410156 415.007812 C 570.71875 415.269531 573.019531 415.589844 575.308594 415.96875 C 577.601562 416.351562 579.882812 416.789062 582.148438 417.289062 C 584.417969 417.789062 586.671875 418.347656 588.910156 418.964844 C 591.152344 419.582031 593.371094 420.257812 595.578125 420.988281 C 597.78125 421.722656 599.964844 422.511719 602.128906 423.359375 C 604.289062 424.207031 606.429688 425.109375 608.546875 426.066406 C 610.660156 427.023438 612.75 428.039062 614.8125 429.105469 C 616.875 430.171875 618.910156 431.292969 620.914062 432.46875 C 622.917969 433.640625 624.890625 434.867188 626.832031 436.144531 C 628.773438 437.417969 630.679688 438.746094 632.550781 440.121094 C 634.421875 441.496094 636.253906 442.921875 638.050781 444.394531 C 639.847656 445.863281 641.605469 447.382812 643.324219 448.945312 C 645.042969 450.507812 646.71875 452.117188 648.351562 453.765625 C 649.988281 455.417969 651.578125 457.109375 653.121094 458.84375 C 654.667969 460.578125 656.167969 462.351562 657.621094 464.164062 C 659.074219 465.972656 660.480469 467.824219 661.835938 469.707031 C 663.191406 471.59375 664.5 473.511719 665.753906 475.464844 C 667.011719 477.421875 668.21875 479.40625 669.371094 481.421875 C 670.523438 483.4375 671.621094 485.484375 672.667969 487.554688 C 673.714844 489.628906 674.707031 491.730469 675.644531 493.855469 C 676.582031 495.980469 677.460938 498.128906 678.285156 500.300781 C 679.109375 502.472656 679.878906 504.664062 680.589844 506.875 C 681.300781 509.085938 681.953125 511.316406 682.546875 513.5625 C 683.140625 515.804688 683.675781 518.066406 684.152344 520.339844 C 684.628906 522.613281 685.042969 524.898438 685.402344 527.191406 C 685.757812 529.488281 686.054688 531.789062 686.292969 534.101562 C 686.527344 536.410156 686.703125 538.726562 686.820312 541.046875 C 686.9375 543.367188 686.992188 545.6875 686.988281 548.011719 C 686.980469 550.332031 686.917969 552.65625 686.789062 554.972656 C 686.664062 557.292969 686.476562 559.609375 686.230469 561.917969 C 685.984375 564.226562 685.675781 566.527344 685.308594 568.820312 C 684.941406 571.117188 684.515625 573.398438 684.03125 575.667969 C 683.542969 577.941406 683 580.199219 682.394531 582.441406 C 681.792969 584.683594 681.128906 586.910156 680.410156 589.117188 C 679.6875 591.324219 678.914062 593.515625 678.078125 595.683594 C 677.242188 597.847656 676.355469 599.992188 675.40625 602.117188 C 674.460938 604.238281 673.460938 606.332031 672.40625 608.402344 C 671.351562 610.46875 670.242188 612.511719 669.078125 614.523438 C 667.917969 616.535156 666.703125 618.511719 665.4375 620.460938 C 664.175781 622.410156 662.859375 624.324219 661.492188 626.203125 C 660.128906 628.082031 658.714844 629.925781 657.253906 631.730469 C 655.792969 633.535156 654.285156 635.300781 652.734375 637.027344 C 651.179688 638.753906 649.582031 640.441406 647.941406 642.085938 C 646.300781 643.726562 644.617188 645.328125 642.894531 646.882812 C 641.167969 648.441406 639.402344 649.949219 637.601562 651.414062 C 635.796875 652.878906 633.957031 654.292969 632.078125 655.660156 C 630.203125 657.027344 628.289062 658.347656 626.34375 659.613281 C 624.398438 660.882812 622.421875 662.097656 620.410156 663.265625 C 618.402344 664.429688 616.363281 665.539062 614.296875 666.597656 C 612.226562 667.65625 610.132812 668.660156 608.015625 669.609375 C 605.894531 670.558594 603.75 671.453125 601.585938 672.289062 C 599.417969 673.128906 597.230469 673.910156 595.023438 674.632812 C 592.816406 675.355469 590.589844 676.019531 588.347656 676.628906 C 586.105469 677.234375 583.851562 677.785156 581.582031 678.273438 C 579.308594 678.761719 577.027344 679.191406 574.734375 679.5625 C 572.441406 679.933594 570.140625 680.242188 567.832031 680.496094 C 565.523438 680.746094 563.207031 680.933594 560.890625 681.066406 C 558.570312 681.195312 556.25 681.261719 553.925781 681.273438 C 551.601562 681.28125 549.28125 681.226562 546.960938 681.117188 C 544.640625 681.003906 542.328125 680.832031 540.015625 680.597656 C 537.703125 680.363281 535.402344 680.070312 533.105469 679.714844 C 530.808594 679.363281 528.523438 678.949219 526.25 678.476562 C 523.976562 678.003906 521.714844 677.472656 519.46875 676.882812 C 517.222656 676.292969 514.992188 675.640625 512.78125 674.933594 C 510.570312 674.226562 508.375 673.464844 506.203125 672.640625 C 504.03125 671.820312 501.882812 670.945312 499.753906 670.011719 C 497.628906 669.078125 495.527344 668.085938 493.449219 667.042969 C 491.375 666 489.328125 664.90625 487.3125 663.753906 C 485.292969 662.605469 483.304688 661.402344 481.351562 660.148438 C 479.394531 658.894531 477.472656 657.589844 475.585938 656.238281 C 473.699219 654.882812 471.847656 653.480469 470.035156 652.03125 C 468.21875 650.582031 466.445312 649.082031 464.707031 647.539062 C 462.972656 645.996094 461.277344 644.410156 459.625 642.777344 C 457.972656 641.148438 456.363281 639.472656 454.796875 637.757812 C 453.230469 636.042969 451.710938 634.289062 450.234375 632.492188 C 448.761719 630.699219 447.335938 628.867188 445.957031 626.996094 C 444.578125 625.128906 443.246094 623.222656 441.96875 621.285156 C 440.6875 619.347656 439.460938 617.375 438.285156 615.371094 C 437.105469 613.371094 435.984375 611.339844 434.914062 609.277344 C 433.84375 607.214844 432.828125 605.128906 431.863281 603.011719 C 430.902344 600.898438 429.996094 598.761719 429.148438 596.597656 C 428.296875 594.4375 427.503906 592.253906 426.765625 590.050781 C 426.03125 587.847656 425.351562 585.628906 424.730469 583.390625 C 424.113281 581.152344 423.550781 578.898438 423.046875 576.632812 C 422.542969 574.363281 422.101562 572.085938 421.71875 569.792969 C 421.332031 567.503906 421.007812 565.203125 420.746094 562.894531 L 414.226562 505.742188 C 414.050781 504.210938 413.804688 502.691406 413.488281 501.179688 C 413.175781 499.671875 412.792969 498.179688 412.339844 496.703125 C 411.890625 495.230469 411.375 493.777344 410.792969 492.351562 C 410.207031 490.921875 409.5625 489.523438 408.851562 488.15625 C 408.140625 486.785156 407.371094 485.453125 406.539062 484.15625 C 405.707031 482.855469 404.820312 481.597656 403.871094 480.378906 C 402.925781 479.164062 401.925781 477.992188 400.875 476.863281 C 399.820312 475.738281 398.71875 474.660156 397.570312 473.632812 C 396.417969 472.609375 395.222656 471.636719 393.984375 470.71875 C 392.742188 469.800781 391.464844 468.941406 390.148438 468.140625 C 388.828125 467.339844 387.476562 466.601562 386.09375 465.925781 C 384.707031 465.246094 383.292969 464.632812 381.855469 464.082031 C 380.414062 463.535156 378.949219 463.050781 377.464844 462.636719 C 375.980469 462.21875 374.480469 461.871094 372.964844 461.59375 C 371.445312 461.316406 369.921875 461.105469 368.382812 460.964844 C 366.847656 460.824219 365.308594 460.753906 363.769531 460.753906 C 362.226562 460.753906 360.6875 460.824219 359.152344 460.964844 C 357.617188 461.105469 356.089844 461.316406 354.574219 461.59375 C 353.058594 461.871094 351.554688 462.21875 350.070312 462.636719 C 348.585938 463.050781 347.125 463.535156 345.683594 464.082031 C 344.242188 464.632812 342.828125 465.246094 341.445312 465.925781 C 340.058594 466.601562 338.707031 467.339844 337.390625 468.140625 C 336.070312 468.941406 334.792969 469.800781 333.554688 470.71875 C 332.3125 471.636719 331.117188 472.609375 329.96875 473.632812 C 328.816406 474.660156 327.714844 475.738281 326.660156 476.863281 C 325.609375 477.992188 324.609375 479.164062 323.664062 480.378906 C 322.71875 481.597656 321.828125 482.855469 320.996094 484.15625 C 320.164062 485.453125 319.394531 486.785156 318.683594 488.15625 C 317.972656 489.523438 317.328125 490.921875 316.746094 492.351562 C 316.160156 493.777344 315.644531 495.230469 315.195312 496.703125 C 314.746094 498.179688 314.363281 499.671875 314.046875 501.179688 C 313.730469 502.691406 313.488281 504.210938 313.3125 505.742188 L 306.789062 562.894531 C 306.527344 565.203125 306.203125 567.503906 305.820312 569.792969 C 305.433594 572.085938 304.992188 574.363281 304.488281 576.632812 C 303.984375 578.898438 303.425781 581.152344 302.804688 583.390625 C 302.183594 585.628906 301.503906 587.847656 300.769531 590.050781 C 300.03125 592.253906 299.238281 594.4375 298.390625 596.597656 C 297.539062 598.761719 296.632812 600.898438 295.671875 603.011719 C 294.710938 605.128906 293.695312 607.214844 292.625 609.277344 C 291.550781 611.339844 290.429688 613.371094 289.253906 615.371094 C 288.074219 617.375 286.847656 619.347656 285.566406 621.285156 C 284.289062 623.222656 282.960938 625.128906 281.582031 626.996094 C 280.203125 628.867188 278.777344 630.699219 277.300781 632.492188 C 275.828125 634.289062 274.304688 636.042969 272.742188 637.757812 C 271.175781 639.472656 269.566406 641.148438 267.910156 642.777344 C 266.257812 644.410156 264.5625 645.996094 262.828125 647.539062 C 261.089844 649.082031 259.316406 650.582031 257.503906 652.03125 C 255.6875 653.480469 253.835938 654.882812 251.949219 656.238281 C 250.0625 657.59375 248.140625 658.894531 246.1875 660.148438 C 244.230469 661.402344 242.242188 662.605469 240.226562 663.753906 C 238.207031 664.90625 236.160156 666 234.085938 667.042969 C 232.011719 668.089844 229.910156 669.078125 227.78125 670.011719 C 225.65625 670.945312 223.503906 671.820312 221.332031 672.640625 C 219.160156 673.464844 216.96875 674.226562 214.753906 674.933594 C 212.542969 675.640625 210.3125 676.292969 208.066406 676.882812 C 205.820312 677.472656 203.558594 678.003906 201.285156 678.476562 C 199.011719 678.949219 196.726562 679.363281 194.429688 679.714844 C 192.136719 680.070312 189.832031 680.363281 187.519531 680.597656 C 185.210938 680.832031 182.894531 681.003906 180.574219 681.117188 C 178.253906 681.226562 175.933594 681.28125 173.609375 681.273438 C 171.289062 681.261719 168.964844 681.195312 166.648438 681.066406 C 164.328125 680.933594 162.015625 680.746094 159.703125 680.496094 C 157.394531 680.242188 155.09375 679.933594 152.800781 679.5625 C 150.507812 679.191406 148.226562 678.761719 145.957031 678.273438 C 143.683594 677.785156 141.429688 677.234375 139.1875 676.628906 C 136.945312 676.019531 134.71875 675.355469 132.511719 674.632812 C 130.304688 673.910156 128.117188 673.128906 125.953125 672.289062 C 123.785156 671.453125 121.640625 670.558594 119.523438 669.609375 C 117.402344 668.660156 115.308594 667.65625 113.242188 666.597656 C 111.171875 665.539062 109.136719 664.429688 107.125 663.265625 C 105.117188 662.097656 103.136719 660.882812 101.191406 659.613281 C 99.246094 658.347656 97.335938 657.027344 95.457031 655.660156 C 93.578125 654.292969 91.738281 652.878906 89.9375 651.414062 C 88.132812 649.949219 86.367188 648.441406 84.644531 646.882812 C 82.917969 645.328125 81.234375 643.726562 79.59375 642.085938 C 77.953125 640.441406 76.355469 638.753906 74.804688 637.027344 C 73.25 635.300781 71.742188 633.535156 70.28125 631.730469 C 68.820312 629.925781 67.40625 628.082031 66.042969 626.203125 C 64.675781 624.324219 63.363281 622.410156 62.097656 620.460938 C 60.832031 618.511719 59.617188 616.535156 58.457031 614.523438 C 57.292969 612.511719 56.1875 610.46875 55.128906 608.402344 C 54.074219 606.332031 53.074219 604.238281 52.128906 602.117188 C 51.183594 599.996094 50.292969 597.847656 49.457031 595.683594 C 48.625 593.515625 47.847656 591.324219 47.128906 589.117188 C 46.40625 586.910156 45.746094 584.683594 45.140625 582.441406 C 44.539062 580.199219 43.992188 577.941406 43.507812 575.667969 C 43.019531 573.398438 42.59375 571.117188 42.226562 568.820312 C 41.859375 566.527344 41.550781 564.226562 41.304688 561.917969 C 41.058594 559.609375 40.871094 557.292969 40.746094 554.972656 C 40.621094 552.65625 40.554688 550.332031 40.550781 548.011719 C 40.542969 545.6875 40.597656 543.367188 40.714844 541.046875 C 40.832031 538.726562 41.007812 536.410156 41.246094 534.101562 C 41.480469 531.789062 41.777344 529.488281 42.136719 527.191406 C 42.492188 524.898438 42.910156 522.613281 43.386719 520.339844 C 43.863281 518.066406 44.398438 515.804688 44.992188 513.5625 C 45.585938 511.316406 46.238281 509.085938 46.949219 506.875 C 47.65625 504.664062 48.425781 502.472656 49.25 500.300781 C 50.074219 498.128906 50.957031 495.980469 51.890625 493.855469 C 52.828125 491.730469 53.820312 489.628906 54.867188 487.558594 C 55.914062 485.484375 57.011719 483.4375 58.167969 481.421875 C 59.320312 479.40625 60.523438 477.421875 61.78125 475.464844 C 63.039062 473.511719 64.34375 471.59375 65.699219 469.707031 C 67.058594 467.824219 68.460938 465.972656 69.914062 464.164062 C 71.367188 462.351562 72.867188 460.578125 74.414062 458.84375 C 75.960938 457.109375 77.550781 455.417969 79.183594 453.765625 C 80.816406 452.117188 82.492188 450.507812 84.210938 448.945312 C 85.929688 447.382812 87.6875 445.863281 89.484375 444.394531 C 91.28125 442.921875 93.117188 441.496094 94.988281 440.121094 C 96.859375 438.746094 98.765625 437.417969 100.703125 436.144531 C 102.644531 434.867188 104.617188 433.640625 106.621094 432.46875 C 108.625 431.292969 110.660156 430.171875 112.722656 429.105469 C 114.785156 428.039062 116.875 427.023438 118.992188 426.066406 C 121.105469 425.109375 123.246094 424.207031 125.410156 423.359375 C 127.570312 422.511719 129.753906 421.722656 131.960938 420.988281 C 134.164062 420.257812 136.386719 419.582031 138.625 418.964844 C 140.863281 418.347656 143.117188 417.789062 145.386719 417.289062 C 147.65625 416.789062 149.933594 416.351562 152.226562 415.96875 C 154.519531 415.589844 156.816406 415.269531 159.125 415.007812 C 161.433594 414.746094 163.746094 414.546875 166.066406 414.40625 C 168.382812 414.269531 170.703125 414.1875 173.027344 414.171875 C 175.351562 414.152344 177.671875 414.191406 179.992188 414.296875 C 182.3125 414.398438 184.628906 414.5625 186.941406 414.785156 C 189.253906 415.007812 191.558594 415.289062 193.855469 415.632812 C 196.152344 415.976562 198.4375 416.382812 200.714844 416.84375 C 202.992188 417.308594 205.253906 417.828125 207.503906 418.410156 C 209.75 418.992188 211.984375 419.628906 214.199219 420.328125 C 216.414062 421.023438 218.609375 421.777344 220.789062 422.589844 C 222.964844 423.402344 225.117188 424.269531 227.25 425.195312 L 280.03125 448.105469 C 281.445312 448.699219 282.878906 449.226562 284.339844 449.6875 C 285.800781 450.148438 287.277344 450.546875 288.773438 450.875 C 290.265625 451.203125 291.773438 451.464844 293.292969 451.65625 C 294.8125 451.847656 296.335938 451.972656 297.867188 452.027344 C 299.394531 452.082031 300.925781 452.070312 302.453125 451.988281 C 303.984375 451.902344 305.503906 451.75 307.019531 451.53125 C 308.535156 451.3125 310.035156 451.023438 311.523438 450.667969 C 313.015625 450.308594 314.484375 449.886719 315.933594 449.398438 C 317.386719 448.910156 318.8125 448.355469 320.210938 447.738281 C 321.613281 447.121094 322.984375 446.441406 324.324219 445.699219 C 325.660156 444.960938 326.964844 444.160156 328.230469 443.300781 C 329.5 442.441406 330.726562 441.527344 331.910156 440.558594 C 333.09375 439.585938 334.234375 438.566406 335.324219 437.492188 C 336.417969 436.421875 337.460938 435.300781 338.449219 434.132812 C 339.441406 432.96875 340.378906 431.757812 341.261719 430.507812 C 342.144531 429.257812 342.96875 427.96875 343.734375 426.640625 C 344.5 425.316406 345.203125 423.960938 345.847656 422.570312 C 346.488281 421.179688 347.066406 419.765625 347.582031 418.324219 C 348.097656 416.882812 348.546875 415.421875 348.929688 413.9375 C 349.316406 412.457031 349.628906 410.960938 349.878906 409.449219 C 350.125 407.9375 350.304688 406.417969 350.417969 404.890625 C 350.527344 403.367188 350.570312 401.835938 350.542969 400.304688 C 350.515625 398.773438 350.421875 397.25 350.253906 395.726562 C 350.089844 394.203125 349.855469 392.695312 349.554688 391.191406 C 349.253906 389.691406 348.886719 388.207031 348.449219 386.738281 C 348.015625 385.273438 347.515625 383.828125 346.949219 382.40625 C 346.382812 380.980469 345.753906 379.585938 345.0625 378.222656 C 344.367188 376.855469 343.617188 375.523438 342.804688 374.226562 C 341.992188 372.929688 341.125 371.671875 340.199219 370.453125 C 339.273438 369.234375 338.292969 368.058594 337.261719 366.925781 C 336.230469 365.796875 335.148438 364.714844 334.019531 363.679688 C 332.890625 362.648438 331.714844 361.667969 330.496094 360.738281 Z M 284.257812 326.457031 "/></g><g clip-rule="nonzero" clip-path="url(#1c716b5278)"><path style=" stroke:none;fill-rule:evenodd;fill:#016e01;fill-opacity:1;" d="M 281.6875 326.457031 C 279.824219 325.074219 277.996094 323.644531 276.203125 322.164062 C 274.414062 320.6875 272.664062 319.164062 270.949219 317.59375 C 269.238281 316.023438 267.570312 314.410156 265.941406 312.75 C 264.316406 311.09375 262.730469 309.394531 261.195312 307.65625 C 259.65625 305.917969 258.164062 304.136719 256.714844 302.320312 C 255.269531 300.503906 253.875 298.648438 252.523438 296.757812 C 251.175781 294.867188 249.875 292.945312 248.628906 290.984375 C 247.378906 289.027344 246.179688 287.039062 245.035156 285.019531 C 243.890625 282.996094 242.800781 280.949219 241.761719 278.871094 C 240.722656 276.792969 239.742188 274.691406 238.8125 272.5625 C 237.882812 270.433594 237.011719 268.28125 236.195312 266.105469 C 235.378906 263.929688 234.621094 261.738281 233.917969 259.523438 C 233.21875 257.308594 232.574219 255.078125 231.988281 252.832031 C 231.402344 250.582031 230.878906 248.320312 230.410156 246.046875 C 229.941406 243.773438 229.535156 241.488281 229.1875 239.191406 C 228.839844 236.894531 228.550781 234.589844 228.324219 232.277344 C 228.09375 229.96875 227.925781 227.652344 227.820312 225.332031 C 227.714844 223.011719 227.667969 220.691406 227.679688 218.367188 C 227.695312 216.046875 227.769531 213.726562 227.90625 211.40625 C 228.039062 209.085938 228.234375 206.773438 228.492188 204.464844 C 228.746094 202.15625 229.0625 199.859375 229.4375 197.566406 C 229.8125 195.273438 230.25 192.992188 230.746094 190.722656 C 231.238281 188.453125 231.792969 186.199219 232.40625 183.960938 C 233.015625 181.71875 233.6875 179.496094 234.417969 177.292969 C 235.144531 175.085938 235.929688 172.902344 236.773438 170.738281 C 237.613281 168.574219 238.511719 166.429688 239.46875 164.3125 C 240.421875 162.195312 241.429688 160.105469 242.492188 158.039062 C 243.554688 155.976562 244.671875 153.941406 245.839844 151.933594 C 247.011719 149.925781 248.230469 147.953125 249.503906 146.007812 C 250.777344 144.066406 252.097656 142.15625 253.46875 140.285156 C 254.84375 138.410156 256.261719 136.574219 257.730469 134.773438 C 259.199219 132.972656 260.710938 131.210938 262.269531 129.492188 C 263.832031 127.769531 265.433594 126.089844 267.082031 124.453125 C 268.730469 122.816406 270.417969 121.222656 272.148438 119.675781 C 273.878906 118.125 275.648438 116.621094 277.457031 115.164062 C 279.265625 113.707031 281.109375 112.300781 282.992188 110.9375 C 284.875 109.578125 286.792969 108.269531 288.742188 107.007812 C 290.691406 105.746094 292.675781 104.539062 294.6875 103.378906 C 296.703125 102.222656 298.746094 101.121094 300.816406 100.070312 C 302.886719 99.019531 304.984375 98.023438 307.109375 97.082031 C 309.230469 96.140625 311.378906 95.253906 313.546875 94.425781 C 315.714844 93.597656 317.90625 92.824219 320.117188 92.109375 C 322.324219 91.394531 324.550781 90.738281 326.796875 90.136719 C 329.039062 89.539062 331.296875 89 333.570312 88.519531 C 335.84375 88.039062 338.125 87.617188 340.417969 87.253906 C 342.714844 86.890625 345.015625 86.589844 347.324219 86.347656 C 349.636719 86.105469 351.949219 85.925781 354.269531 85.804688 C 356.589844 85.683594 358.910156 85.621094 361.230469 85.621094 C 363.554688 85.621094 365.875 85.683594 368.195312 85.804688 C 370.515625 85.925781 372.828125 86.105469 375.136719 86.347656 C 377.449219 86.589844 379.75 86.890625 382.042969 87.253906 C 384.339844 87.617188 386.621094 88.039062 388.894531 88.519531 C 391.167969 89 393.425781 89.539062 395.667969 90.136719 C 397.914062 90.738281 400.140625 91.394531 402.347656 92.109375 C 404.558594 92.824219 406.746094 93.597656 408.917969 94.425781 C 411.085938 95.253906 413.234375 96.140625 415.355469 97.082031 C 417.480469 98.023438 419.578125 99.019531 421.648438 100.070312 C 423.71875 101.121094 425.761719 102.222656 427.777344 103.378906 C 429.789062 104.539062 431.769531 105.746094 433.722656 107.007812 C 435.671875 108.269531 437.589844 109.578125 439.472656 110.9375 C 441.351562 112.300781 443.199219 113.707031 445.007812 115.164062 C 446.816406 116.621094 448.585938 118.125 450.316406 119.675781 C 452.046875 121.222656 453.734375 122.816406 455.382812 124.453125 C 457.03125 126.089844 458.632812 127.769531 460.191406 129.492188 C 461.753906 131.210938 463.265625 132.972656 464.734375 134.773438 C 466.203125 136.574219 467.621094 138.410156 468.992188 140.285156 C 470.367188 142.15625 471.6875 144.066406 472.960938 146.007812 C 474.234375 147.953125 475.453125 149.925781 476.621094 151.933594 C 477.792969 153.941406 478.910156 155.976562 479.972656 158.039062 C 481.035156 160.105469 482.042969 162.195312 482.996094 164.3125 C 483.953125 166.429688 484.847656 168.574219 485.691406 170.738281 C 486.535156 172.902344 487.320312 175.085938 488.046875 177.292969 C 488.777344 179.496094 489.445312 181.71875 490.058594 183.960938 C 490.671875 186.199219 491.226562 188.453125 491.71875 190.722656 C 492.214844 192.992188 492.648438 195.273438 493.027344 197.566406 C 493.402344 199.859375 493.71875 202.15625 493.972656 204.464844 C 494.230469 206.773438 494.425781 209.085938 494.558594 211.40625 C 494.695312 213.726562 494.769531 216.046875 494.78125 218.367188 C 494.796875 220.691406 494.75 223.011719 494.644531 225.332031 C 494.535156 227.652344 494.371094 229.96875 494.140625 232.277344 C 493.914062 234.589844 493.625 236.894531 493.277344 239.191406 C 492.929688 241.488281 492.523438 243.773438 492.054688 246.046875 C 491.585938 248.320312 491.0625 250.582031 490.476562 252.832031 C 489.890625 255.078125 489.246094 257.308594 488.546875 259.523438 C 487.84375 261.738281 487.085938 263.929688 486.269531 266.105469 C 485.453125 268.28125 484.582031 270.433594 483.652344 272.5625 C 482.722656 274.691406 481.742188 276.792969 480.703125 278.871094 C 479.664062 280.949219 478.574219 282.996094 477.425781 285.019531 C 476.28125 287.039062 475.085938 289.027344 473.835938 290.984375 C 472.589844 292.945312 471.289062 294.867188 469.941406 296.757812 C 468.589844 298.648438 467.191406 300.503906 465.746094 302.320312 C 464.300781 304.136719 462.808594 305.917969 461.269531 307.65625 C 459.730469 309.394531 458.148438 311.09375 456.523438 312.75 C 454.894531 314.410156 453.226562 316.023438 451.511719 317.59375 C 449.800781 319.164062 448.050781 320.6875 446.257812 322.164062 C 444.46875 323.644531 442.640625 325.074219 440.773438 326.457031 L 394.46875 360.738281 C 393.253906 361.667969 392.078125 362.648438 390.949219 363.679688 C 389.820312 364.714844 388.738281 365.796875 387.707031 366.925781 C 386.675781 368.058594 385.695312 369.234375 384.769531 370.453125 C 383.84375 371.671875 382.976562 372.929688 382.164062 374.226562 C 381.351562 375.523438 380.597656 376.855469 379.90625 378.222656 C 379.214844 379.589844 378.585938 380.980469 378.019531 382.40625 C 377.453125 383.828125 376.953125 385.273438 376.515625 386.738281 C 376.082031 388.207031 375.714844 389.691406 375.414062 391.191406 C 375.109375 392.695312 374.878906 394.203125 374.710938 395.726562 C 374.546875 397.25 374.453125 398.773438 374.425781 400.304688 C 374.398438 401.835938 374.4375 403.367188 374.550781 404.890625 C 374.660156 406.417969 374.839844 407.9375 375.089844 409.449219 C 375.335938 410.960938 375.652344 412.457031 376.035156 413.9375 C 376.417969 415.421875 376.867188 416.882812 377.382812 418.324219 C 377.898438 419.765625 378.476562 421.179688 379.121094 422.570312 C 379.765625 423.960938 380.46875 425.316406 381.234375 426.640625 C 382 427.96875 382.824219 429.257812 383.707031 430.507812 C 384.589844 431.757812 385.523438 432.96875 386.515625 434.132812 C 387.507812 435.300781 388.550781 436.421875 389.640625 437.492188 C 390.734375 438.566406 391.871094 439.585938 393.058594 440.558594 C 394.242188 441.527344 395.46875 442.441406 396.734375 443.300781 C 398.003906 444.160156 399.304688 444.960938 400.644531 445.699219 C 401.984375 446.441406 403.355469 447.121094 404.753906 447.738281 C 406.15625 448.355469 407.582031 448.910156 409.03125 449.398438 C 410.484375 449.886719 411.953125 450.308594 413.441406 450.667969 C 414.929688 451.023438 416.433594 451.3125 417.949219 451.53125 C 419.464844 451.75 420.984375 451.902344 422.515625 451.988281 C 424.042969 452.070312 425.570312 452.082031 427.101562 452.027344 C 428.632812 451.972656 430.15625 451.847656 431.675781 451.65625 C 433.195312 451.464844 434.699219 451.203125 436.195312 450.875 C 437.691406 450.546875 439.167969 450.148438 440.628906 449.6875 C 442.085938 449.226562 443.523438 448.699219 444.933594 448.105469 L 497.71875 425.195312 C 499.851562 424.269531 502.003906 423.402344 504.179688 422.589844 C 506.355469 421.777344 508.550781 421.023438 510.769531 420.328125 C 512.984375 419.628906 515.214844 418.992188 517.464844 418.410156 C 519.714844 417.828125 521.976562 417.308594 524.253906 416.84375 C 526.527344 416.382812 528.816406 415.976562 531.113281 415.632812 C 533.410156 415.289062 535.714844 415.007812 538.027344 414.785156 C 540.339844 414.5625 542.65625 414.398438 544.976562 414.296875 C 547.296875 414.191406 549.617188 414.152344 551.941406 414.171875 C 554.261719 414.1875 556.582031 414.269531 558.902344 414.40625 C 561.21875 414.546875 563.535156 414.746094 565.84375 415.007812 C 568.148438 415.269531 570.449219 415.589844 572.742188 415.96875 C 575.03125 416.351562 577.3125 416.789062 579.582031 417.289062 C 581.847656 417.789062 584.101562 418.347656 586.34375 418.964844 C 588.582031 419.582031 590.804688 420.257812 593.007812 420.988281 C 595.210938 421.722656 597.394531 422.511719 599.558594 423.359375 C 601.722656 424.207031 603.859375 425.109375 605.976562 426.066406 C 608.09375 427.023438 610.179688 428.039062 612.246094 429.105469 C 614.308594 430.171875 616.339844 431.292969 618.34375 432.46875 C 620.351562 433.640625 622.324219 434.867188 624.261719 436.144531 C 626.203125 437.417969 628.109375 438.746094 629.980469 440.121094 C 631.851562 441.496094 633.6875 442.921875 635.484375 444.394531 C 637.28125 445.863281 639.039062 447.382812 640.757812 448.945312 C 642.472656 450.507812 644.148438 452.117188 645.785156 453.765625 C 647.417969 455.417969 649.007812 457.109375 650.554688 458.84375 C 652.097656 460.578125 653.597656 462.351562 655.050781 464.164062 C 656.503906 465.972656 657.910156 467.824219 659.265625 469.707031 C 660.625 471.59375 661.929688 473.511719 663.1875 475.464844 C 664.445312 477.421875 665.648438 479.40625 666.800781 481.421875 C 667.953125 483.4375 669.054688 485.484375 670.101562 487.554688 C 671.148438 489.628906 672.136719 491.730469 673.074219 493.855469 C 674.011719 495.980469 674.894531 498.128906 675.71875 500.300781 C 676.542969 502.472656 677.308594 504.664062 678.019531 506.875 C 678.730469 509.085938 679.382812 511.316406 679.976562 513.5625 C 680.570312 515.804688 681.105469 518.066406 681.582031 520.339844 C 682.058594 522.613281 682.476562 524.898438 682.832031 527.191406 C 683.1875 529.488281 683.484375 531.789062 683.722656 534.101562 C 683.960938 536.410156 684.136719 538.726562 684.253906 541.046875 C 684.367188 543.367188 684.421875 545.6875 684.417969 548.011719 C 684.414062 550.332031 684.347656 552.65625 684.222656 554.972656 C 684.09375 557.292969 683.910156 559.609375 683.660156 561.917969 C 683.414062 564.226562 683.109375 566.527344 682.742188 568.820312 C 682.375 571.117188 681.949219 573.398438 681.460938 575.667969 C 680.976562 577.941406 680.429688 580.199219 679.828125 582.441406 C 679.222656 584.683594 678.5625 586.910156 677.839844 589.117188 C 677.121094 591.324219 676.34375 593.515625 675.507812 595.683594 C 674.675781 597.847656 673.785156 599.992188 672.839844 602.117188 C 671.894531 604.238281 670.890625 606.332031 669.835938 608.402344 C 668.78125 610.46875 667.671875 612.511719 666.511719 614.523438 C 665.347656 616.535156 664.136719 618.511719 662.871094 620.460938 C 661.605469 622.410156 660.289062 624.324219 658.925781 626.203125 C 657.558594 628.082031 656.148438 629.925781 654.6875 631.730469 C 653.226562 633.535156 651.71875 635.300781 650.164062 637.027344 C 648.613281 638.753906 647.015625 640.441406 645.371094 642.085938 C 643.730469 643.726562 642.046875 645.328125 640.324219 646.882812 C 638.597656 648.441406 636.835938 649.949219 635.03125 651.414062 C 633.226562 652.878906 631.386719 654.292969 629.511719 655.660156 C 627.632812 657.027344 625.722656 658.347656 623.777344 659.613281 C 621.828125 660.882812 619.851562 662.097656 617.84375 663.265625 C 615.832031 664.429688 613.792969 665.539062 611.726562 666.597656 C 609.660156 667.65625 607.566406 668.660156 605.445312 669.609375 C 603.324219 670.558594 601.183594 671.453125 599.015625 672.289062 C 596.847656 673.128906 594.660156 673.910156 592.453125 674.632812 C 590.246094 675.355469 588.023438 676.019531 585.78125 676.628906 C 583.539062 677.234375 581.28125 677.785156 579.011719 678.273438 C 576.742188 678.761719 574.460938 679.191406 572.167969 679.5625 C 569.875 679.933594 567.570312 680.242188 565.261719 680.496094 C 562.953125 680.746094 560.640625 680.933594 558.320312 681.066406 C 556 681.195312 553.679688 681.261719 551.359375 681.273438 C 549.035156 681.28125 546.714844 681.226562 544.394531 681.117188 C 542.074219 681.003906 539.757812 680.832031 537.445312 680.597656 C 535.136719 680.363281 532.832031 680.070312 530.535156 679.714844 C 528.242188 679.363281 525.957031 678.949219 523.683594 678.476562 C 521.40625 678.003906 519.148438 677.472656 516.902344 676.882812 C 514.65625 676.292969 512.425781 675.640625 510.210938 674.933594 C 508 674.226562 505.808594 673.464844 503.636719 672.640625 C 501.460938 671.820312 499.3125 670.945312 497.1875 670.011719 C 495.058594 669.078125 492.957031 668.085938 490.882812 667.042969 C 488.808594 666 486.761719 664.90625 484.742188 663.753906 C 482.722656 662.605469 480.738281 661.402344 478.78125 660.148438 C 476.828125 658.894531 474.90625 657.589844 473.019531 656.238281 C 471.128906 654.882812 469.28125 653.480469 467.464844 652.03125 C 465.652344 650.582031 463.875 649.082031 462.140625 647.539062 C 460.402344 645.996094 458.710938 644.410156 457.054688 642.777344 C 455.402344 641.148438 453.792969 639.472656 452.226562 637.757812 C 450.660156 636.042969 449.140625 634.289062 447.667969 632.492188 C 446.191406 630.699219 444.765625 628.867188 443.386719 626.996094 C 442.007812 625.128906 440.679688 623.222656 439.398438 621.285156 C 438.121094 619.347656 436.890625 617.375 435.714844 615.371094 C 434.539062 613.371094 433.414062 611.339844 432.34375 609.277344 C 431.273438 607.214844 430.257812 605.128906 429.296875 603.011719 C 428.335938 600.898438 427.429688 598.761719 426.578125 596.597656 C 425.726562 594.4375 424.933594 592.253906 424.199219 590.050781 C 423.460938 587.847656 422.785156 585.628906 422.164062 583.390625 C 421.542969 581.152344 420.980469 578.898438 420.480469 576.632812 C 419.976562 574.363281 419.53125 572.085938 419.148438 569.792969 C 418.765625 567.503906 418.441406 565.203125 418.175781 562.894531 L 411.65625 505.742188 C 411.480469 504.210938 411.234375 502.691406 410.921875 501.179688 C 410.605469 499.671875 410.222656 498.179688 409.773438 496.703125 C 409.324219 495.230469 408.804688 493.777344 408.222656 492.351562 C 407.640625 490.921875 406.992188 489.523438 406.285156 488.15625 C 405.574219 486.785156 404.800781 485.453125 403.972656 484.152344 C 403.140625 482.855469 402.25 481.597656 401.304688 480.378906 C 400.359375 479.164062 399.359375 477.992188 398.304688 476.863281 C 397.253906 475.738281 396.152344 474.660156 395 473.632812 C 393.847656 472.609375 392.652344 471.636719 391.414062 470.71875 C 390.175781 469.800781 388.894531 468.941406 387.578125 468.140625 C 386.261719 467.339844 384.910156 466.601562 383.523438 465.925781 C 382.140625 465.246094 380.726562 464.632812 379.285156 464.082031 C 377.84375 463.535156 376.382812 463.050781 374.894531 462.636719 C 373.410156 462.21875 371.910156 461.871094 370.394531 461.59375 C 368.878906 461.316406 367.351562 461.105469 365.816406 460.964844 C 364.28125 460.824219 362.742188 460.753906 361.199219 460.753906 C 359.65625 460.753906 358.117188 460.824219 356.582031 460.964844 C 355.046875 461.105469 353.519531 461.316406 352.003906 461.59375 C 350.488281 461.871094 348.988281 462.21875 347.503906 462.636719 C 346.019531 463.050781 344.554688 463.535156 343.113281 464.082031 C 341.671875 464.632812 340.261719 465.246094 338.875 465.925781 C 337.488281 466.601562 336.136719 467.339844 334.820312 468.140625 C 333.503906 468.941406 332.222656 469.800781 330.984375 470.71875 C 329.746094 471.636719 328.550781 472.609375 327.398438 473.632812 C 326.25 474.660156 325.144531 475.738281 324.09375 476.863281 C 323.039062 477.992188 322.039062 479.164062 321.09375 480.378906 C 320.148438 481.597656 319.257812 482.855469 318.429688 484.152344 C 317.597656 485.453125 316.824219 486.785156 316.117188 488.15625 C 315.40625 489.523438 314.757812 490.921875 314.175781 492.351562 C 313.59375 493.777344 313.078125 495.230469 312.625 496.703125 C 312.175781 498.179688 311.792969 499.671875 311.476562 501.179688 C 311.164062 502.691406 310.917969 504.210938 310.742188 505.742188 L 304.222656 562.894531 C 303.957031 565.203125 303.632812 567.503906 303.25 569.792969 C 302.867188 572.085938 302.421875 574.363281 301.921875 576.632812 C 301.417969 578.898438 300.855469 581.152344 300.234375 583.390625 C 299.613281 585.628906 298.9375 587.847656 298.199219 590.050781 C 297.464844 592.253906 296.671875 594.4375 295.820312 596.597656 C 294.96875 598.761719 294.066406 600.898438 293.101562 603.011719 C 292.140625 605.128906 291.125 607.214844 290.054688 609.277344 C 288.984375 611.339844 287.859375 613.371094 286.683594 615.371094 C 285.507812 617.375 284.277344 619.347656 283 621.285156 C 281.71875 623.222656 280.390625 625.128906 279.011719 626.996094 C 277.632812 628.867188 276.207031 630.699219 274.734375 632.492188 C 273.257812 634.289062 271.738281 636.042969 270.171875 637.757812 C 268.605469 639.472656 266.996094 641.148438 265.34375 642.777344 C 263.691406 644.410156 261.996094 645.996094 260.257812 647.539062 C 258.523438 649.082031 256.746094 650.582031 254.933594 652.03125 C 253.121094 653.480469 251.269531 654.882812 249.382812 656.238281 C 247.492188 657.59375 245.574219 658.894531 243.617188 660.148438 C 241.660156 661.402344 239.675781 662.605469 237.65625 663.753906 C 235.640625 664.90625 233.59375 666 231.515625 667.042969 C 229.441406 668.089844 227.339844 669.078125 225.214844 670.011719 C 223.085938 670.945312 220.9375 671.820312 218.765625 672.640625 C 216.589844 673.464844 214.398438 674.226562 212.1875 674.933594 C 209.972656 675.640625 207.746094 676.292969 205.496094 676.882812 C 203.25 677.472656 200.992188 678.003906 198.71875 678.476562 C 196.441406 678.949219 194.15625 679.363281 191.863281 679.714844 C 189.566406 680.070312 187.261719 680.363281 184.953125 680.597656 C 182.640625 680.832031 180.324219 681.003906 178.003906 681.117188 C 175.6875 681.226562 173.363281 681.28125 171.042969 681.273438 C 168.71875 681.261719 166.398438 681.195312 164.078125 681.066406 C 161.757812 680.933594 159.445312 680.746094 157.136719 680.496094 C 154.828125 680.242188 152.527344 679.933594 150.234375 679.5625 C 147.941406 679.191406 145.65625 678.761719 143.386719 678.273438 C 141.117188 677.785156 138.859375 677.234375 136.617188 676.628906 C 134.375 676.019531 132.152344 675.355469 129.945312 674.632812 C 127.738281 673.910156 125.550781 673.128906 123.382812 672.289062 C 121.21875 671.453125 119.074219 670.558594 116.953125 669.609375 C 114.832031 668.660156 112.738281 667.65625 110.671875 666.597656 C 108.605469 665.539062 106.566406 664.429688 104.558594 663.265625 C 102.546875 662.097656 100.570312 660.882812 98.625 659.613281 C 96.675781 658.347656 94.765625 657.027344 92.886719 655.660156 C 91.011719 654.292969 89.171875 652.878906 87.367188 651.414062 C 85.5625 649.949219 83.800781 648.441406 82.074219 646.882812 C 80.351562 645.328125 78.667969 643.726562 77.027344 642.085938 C 75.386719 640.441406 73.789062 638.753906 72.234375 637.027344 C 70.679688 635.300781 69.175781 633.535156 67.710938 631.730469 C 66.25 629.925781 64.839844 628.082031 63.472656 626.203125 C 62.109375 624.324219 60.792969 622.410156 59.527344 620.460938 C 58.261719 618.511719 57.050781 616.535156 55.886719 614.523438 C 54.726562 612.511719 53.617188 610.46875 52.5625 608.402344 C 51.507812 606.332031 50.507812 604.238281 49.558594 602.117188 C 48.613281 599.996094 47.722656 597.847656 46.890625 595.683594 C 46.054688 593.515625 45.277344 591.324219 44.558594 589.117188 C 43.839844 586.910156 43.175781 584.683594 42.574219 582.441406 C 41.96875 580.199219 41.421875 577.941406 40.9375 575.667969 C 40.453125 573.398438 40.023438 571.117188 39.65625 568.820312 C 39.289062 566.527344 38.984375 564.226562 38.738281 561.917969 C 38.488281 559.609375 38.304688 557.292969 38.175781 554.972656 C 38.050781 552.65625 37.984375 550.332031 37.980469 548.011719 C 37.976562 545.6875 38.03125 543.367188 38.148438 541.046875 C 38.261719 538.726562 38.441406 536.410156 38.675781 534.101562 C 38.914062 531.789062 39.210938 529.488281 39.566406 527.191406 C 39.925781 524.898438 40.339844 522.613281 40.816406 520.339844 C 41.292969 518.066406 41.828125 515.804688 42.421875 513.5625 C 43.015625 511.316406 43.667969 509.085938 44.378906 506.875 C 45.089844 504.664062 45.855469 502.472656 46.679688 500.300781 C 47.507812 498.128906 48.386719 495.980469 49.324219 493.855469 C 50.261719 491.730469 51.253906 489.628906 52.296875 487.558594 C 53.34375 485.484375 54.445312 483.4375 55.597656 481.421875 C 56.75 479.40625 57.957031 477.421875 59.210938 475.464844 C 60.46875 473.511719 61.777344 471.59375 63.132812 469.707031 C 64.488281 467.824219 65.894531 465.972656 67.347656 464.164062 C 68.800781 462.351562 70.300781 460.578125 71.84375 458.84375 C 73.390625 457.109375 74.980469 455.417969 76.617188 453.765625 C 78.25 452.117188 79.925781 450.507812 81.644531 448.945312 C 83.359375 447.382812 85.117188 445.863281 86.914062 444.394531 C 88.710938 442.921875 90.546875 441.496094 92.417969 440.121094 C 94.289062 438.746094 96.195312 437.417969 98.136719 436.144531 C 100.078125 434.867188 102.050781 433.640625 104.054688 432.46875 C 106.058594 431.292969 108.089844 430.171875 110.15625 429.105469 C 112.21875 428.039062 114.308594 427.023438 116.421875 426.066406 C 118.539062 425.109375 120.679688 424.207031 122.839844 423.359375 C 125.003906 422.511719 127.1875 421.722656 129.390625 420.988281 C 131.59375 420.257812 133.816406 419.582031 136.054688 418.964844 C 138.296875 418.347656 140.550781 417.789062 142.816406 417.289062 C 145.085938 416.789062 147.367188 416.351562 149.65625 415.96875 C 151.949219 415.589844 154.25 415.269531 156.558594 415.007812 C 158.863281 414.746094 161.179688 414.546875 163.496094 414.40625 C 165.816406 414.269531 168.136719 414.1875 170.457031 414.171875 C 172.78125 414.152344 175.101562 414.191406 177.421875 414.296875 C 179.742188 414.398438 182.058594 414.5625 184.371094 414.785156 C 186.683594 415.007812 188.988281 415.289062 191.285156 415.632812 C 193.582031 415.976562 195.871094 416.382812 198.144531 416.84375 C 200.421875 417.308594 202.683594 417.828125 204.933594 418.410156 C 207.183594 418.992188 209.414062 419.628906 211.632812 420.328125 C 213.847656 421.023438 216.042969 421.777344 218.21875 422.589844 C 220.394531 423.402344 222.546875 424.269531 224.679688 425.195312 L 277.464844 448.105469 C 278.875 448.699219 280.3125 449.226562 281.769531 449.6875 C 283.230469 450.148438 284.707031 450.546875 286.203125 450.875 C 287.699219 451.203125 289.207031 451.464844 290.722656 451.65625 C 292.242188 451.847656 293.765625 451.972656 295.296875 452.027344 C 296.828125 452.082031 298.355469 452.070312 299.886719 451.988281 C 301.414062 451.902344 302.9375 451.75 304.449219 451.53125 C 305.964844 451.3125 307.46875 451.023438 308.957031 450.667969 C 310.445312 450.308594 311.914062 449.886719 313.367188 449.398438 C 314.816406 448.910156 316.242188 448.355469 317.644531 447.738281 C 319.042969 447.121094 320.414062 446.441406 321.753906 445.699219 C 323.09375 444.960938 324.398438 444.160156 325.664062 443.300781 C 326.929688 442.441406 328.15625 441.527344 329.339844 440.558594 C 330.527344 439.585938 331.664062 438.566406 332.757812 437.492188 C 333.847656 436.421875 334.890625 435.300781 335.882812 434.132812 C 336.875 432.96875 337.808594 431.757812 338.691406 430.507812 C 339.574219 429.257812 340.398438 427.96875 341.164062 426.640625 C 341.929688 425.316406 342.632812 423.960938 343.277344 422.570312 C 343.921875 421.179688 344.5 419.765625 345.015625 418.324219 C 345.53125 416.882812 345.980469 415.421875 346.363281 413.9375 C 346.746094 412.457031 347.0625 410.960938 347.308594 409.449219 C 347.558594 407.9375 347.738281 406.417969 347.847656 404.890625 C 347.960938 403.367188 348 401.835938 347.972656 400.304688 C 347.949219 398.773438 347.851562 397.25 347.6875 395.726562 C 347.519531 394.203125 347.289062 392.695312 346.988281 391.191406 C 346.683594 389.691406 346.316406 388.207031 345.882812 386.738281 C 345.445312 385.273438 344.945312 383.828125 344.378906 382.40625 C 343.8125 380.980469 343.183594 379.585938 342.492188 378.222656 C 341.800781 376.855469 341.046875 375.523438 340.234375 374.226562 C 339.425781 372.929688 338.554688 371.671875 337.628906 370.453125 C 336.703125 369.234375 335.722656 368.058594 334.691406 366.925781 C 333.660156 365.796875 332.578125 364.714844 331.449219 363.679688 C 330.320312 362.648438 329.148438 361.667969 327.929688 360.738281 Z M 281.6875 326.457031 "/></g></g></svg>